<mxfile host="65bd71144e">
    <diagram id="asKLZ_BkZrXnsCV6dmML" name="ページ1">
        <mxGraphModel dx="1071" dy="1128" grid="1" gridSize="10" guides="1" tooltips="1" connect="1" arrows="1" fold="1" page="1" pageScale="1" pageWidth="827" pageHeight="1169" math="0" shadow="0">
            <root>
                <mxCell id="0"/>
                <mxCell id="1" parent="0"/>
                <mxCell id="3" value="DQNを利用した論文で、&lt;br&gt;・[0,1]の値をとる７つの汎用的特徴をStateから抽出して、状態表現としている&lt;br&gt;・次にどのオペレーションをするか、どのマシンに割り当てるかを同時に決定する６つのルールが設計されている&lt;br&gt;・S-A対に対して、任意の決定点における最適なルールを選択するようにDQNで学習させる&lt;br&gt;&lt;br&gt;状態は、&lt;br&gt;・機械の平均稼働率&lt;br&gt;・機械使用率の標準偏差&lt;br&gt;・オペレーションの平均完了率&lt;br&gt;・平均ジョブ完了率&lt;br&gt;・ジョブ完了率の標準偏差&lt;br&gt;・遅延率の推定値&lt;br&gt;・実際の遅延率&lt;br&gt;で表現される&lt;br&gt;&lt;br&gt;" style="text;html=1;strokeColor=none;fillColor=none;align=left;verticalAlign=top;whiteSpace=wrap;rounded=0;" vertex="1" parent="1">
                    <mxGeometry x="10" y="10" width="790" height="490" as="geometry"/>
                </mxCell>
                <mxCell id="4" value="" style="shape=image;verticalLabelPosition=bottom;labelBackgroundColor=default;verticalAlign=top;aspect=fixed;imageAspect=0;image=data:image/png,iVBORw0KGgoAAAANSUhEUgAAAywAAAHZCAYAAABkTr8eAAAAAXNSR0IArs4c6QAAAARnQU1BAACxjwv8YQUAAAAJcEhZcwAADsMAAA7DAcdvqGQAAP+lSURBVHhe7J0HeBRVF4ZPGr333qtUQYoIShVRQcResKAUFQuKvf7YAFFAigUFKyIqogiCSFMEpPcO0nsvSUjbf9+bGRiWTbJJNskmOa9PZOdum92duXO+026Qy40oiqIoiqIoiqIEIMHWv4qiKIqiKIqiKAGHChZFURRFURRFUQIWFSyKoiiKoiiKogQsKlgURVEURVEURQlYVLAoiqIoiqIoihKwqGBRFEVRFEVRFCVgUcGiKIqiKIqiKErAooJFURRFURRFUZSARQWLoiiKoiiKoigBiwoWRVEURVEURVECFhUsiqIoiqIoiqIELEEuN9ZtRVEURVGUFHH27FlZsmSJbN68WbZu3Wr+jh07Zu4LCgqSQoUKSbFixS76K1WqlNSsWVMqVapkHqcoiuINFSyKoiiKoiSbHTt2mL8JEybIwoULZfXq1Wa8WrVq5s8WIvwhVhAvR44cMX+HDx8+f3vt2rWyZ88eKVy4sFx++eVy5513SpcuXaRkyZLm9RRFUVSwKIqiKIriE3PmzJF58+bJ3LlzZdWqVXLLLbdI3bp1pXbt2lK1alUjVFLCunXrZMWKFbJmzRr55ZdfTHSmbdu2ctddd0m3bt2kYMGC1iMVRcmOqGBRFEVRFCVR5s+fL0OGDDFiBZFSr149eeCBB9JMSBB1IXLDH9GXzp07y/333y/XXXedhIaGWo/KGPbu3SsbN26UDRs2yIEDB+To0aNy6tQpOXnypISHh0v+/Pkv+itRooTUqlXL/KVU0ClKdkcFi6IoiqIoXvnuu+/kueeeM/UpTz31lDz55JPpHu34999/Zfz48fLVV19JWFiYPPvss+YvPUCQfP/997J8+fLzIiVnzpxSp04dE1kqW7as+T4KFChg/s2XL58RLqdPnz7/d/DgQVm0aJGJIEVGRhqx17RpU+nYsaMRYIgaRVESRwWLoiiKoigXgXHes2dPk5r10ksvyUMPPSR58uSx7s04fv75Z3n77beNEPjoo49M2pi/2bdvn4ns/PjjjyZFjXqaq666Si677DKpX7++FClSxHpk8kH4IF4WLFggU6ZMMZGZq6++Wnr16iX33HOP9ShFUTxRwaIoiqIoioEIwBtvvCHDhw+X3r17y1tvvWWiBoFEXFycjBgxQl555RW5/vrrZejQoVKmTBnr3pSBKfTbb7/JqFGjjKhApFA70759e8mRI4f1KP9DTRDCaOzYsSbS0qdPH+nbt69JI1MU5QIqWBRFURRFkW3btskNN9xgUpvGjRtnIgqBDLUtjz/+uDH6ERstW7a07kke1OYgVPLmzSsvv/yyKfRPb+igNnr0aBk5cqRJKUO4vPrqq6mK5ihKVkIXjlQURVGUbM6MGTOkcePGcuutt5qUpUAXK1CuXDmTIvbtt9/KfffdZ2pcksPUqVOlfPnyMnnyZBNRotA/I8QKIEyIGO3atcsIl1mzZpki/V9//dV6hKJkbzTCoiiKoijZmAEDBsigQYNMcfmNN95ojWYuiFAQYbn55ptNjUti7N+/Xx577DH5559/5JNPPpGuXbta9wQWNBro37+/XHPNNWY/KexXlOyKRlgURVEUJZvyyCOPmPqJxYsXZ1qxAkQoWBtm4sSJcscdd1ijl0L0ggUtqRfZtGlTwIoVuPvuu80+sugmXclIfVOU7IpGWBRFURQlG/Laa6/JF198IUuXLs0yRd5ET+joRetg0sWCg+P9sjExMXL77bebgnrqc9q0aWPGMwukrT344IOmW9s777yTpo0AFCUQUcGiKIqiKNmMjz/+2NRMEFmpUqWKNZo12Llzp0kPo8sXtSlA9Ij1UKgNyaypVbt37zaiCxFGzVGgdW9TlLREBYuiKIqiZCNYDJIuVH/99Zc0aNDAGs1arFu3Tlq0aGFSwL755huz3sn06dMz/SKNRIpIYzt06JD8+eefWteiZBtUsCiKoihKNoGaiEaNGsnMmTONQZ+VwaDv0KGDKVqnIxhti7MCdnrbf//9J7Nnz5bChQtb9yhK1kUFi6IoiqJkExAppEexen12gJoV2gMHwir9/iQ2NlZuu+022bx5s2k2UKxYMeseRcmaqGBRFEVRlGwABfZvvvmmbNy4UcLCwqxRJbOCaLn33nvN2i3z58+XoKAg6x5FyXqoYFEURVGUTM6ZM2dMUTm1DQcOHDC3jxw5YtKgaPnL6vU9e/Y09RwdO3a0nqVkduLi4qR58+YmRYw1WxQlq6KCRVEURVEyEURIVq9ebdKdVq5caf49fPiwda+YwvJSpUqZP7utL1x++eUydOhQa0vJKmzbtk0aNmwoS5YsMelvipIVUcGiKIqiKAEOrXo/+ugjk9ZF9ITICR2+GjdubIRI7dq1pWTJklK5cmXrGUp24r333jPRM0SLrtGiZEVUsCiKoihKgEIL4s8//9ysH1KhQgWzMn2XLl3ksssusx6hKCKYcs2aNTM1LU888YQ1qihZBxUsiqIoihJgzJkzRx5++GETWbnhhhuMUKH2RAurlYQgusIaLRwzoaGh1qiiZA0uJLcqiqIoipKhHD9+XB544AFp27atXHvttWatjV9++UWuu+46FStKojRp0kRq1KghX375pTWiKFkHFSyKoiiKEgBgaGJwnjhxwizwSM1K+fLlrXsVJWleeOEFeeutt0z3MEXJSmhKmKIoiqJkMNQebNiwQUaMGJHlV6BX0pb69etL9+7dTcQlJCTENGcoUKCAda+iZE5UsCiKoihKBsG6Kaw8T2Rl7Nix2uFJSTV//fWXWZNl7969sm/fPjNWs2ZNadmypXTq1Ek6dOigAkbJdKhgURRFUZQMYO3atcaA7Nu3rzz//PPWqKL4l/379xvhsnTpUvn555+NoGnVqpUMGDDAdBZTlMyAChZFURRFSWcopO/Vq5eMGzdOrr/+emtUUdKes2fPmvV8Xn31Vbn66qvl3XffNev4KEogo0X3iqIoipKOTJ061ayVMW/ePBUrSrrDoqOPPfaY6UDH2j4sPEq0RQv1lUBGIyyKoiiKkk5s27ZNWrduLfPnz5eKFStao1mXyMhIOXnypLUVmGDA58uXz9pKHrShjoqKsrYCCz4Tny0pFi9eLN26dZPKlSvLjz/+KCVLlrTuUZTAQQWLoiiKoqQDZ86cMZ2bhg8fbtZY8ZWvvvhCHurZM83WYcEMePftt6T/c/6vo7n77jvlzz//lJDgwEzoiIiIlNJlysqKFSskV65c1qhvrF+/Xm665RY5eey4NRI4YNhVqlJFlixcED+QBMeOHTOiZd26dfLtt98m6/hUlPRABYuiKIqipAN2N7APPvjAGkkaIhSFCxeWfatWWCNpQ/027WThv/9KuXLlrBH/8Pnnn8uiv6fJmBEvWSOBxWVN7pCffp6SohqOGTNmyDvvvS+f/zDJGgkcYmNjpW7pYhIdHW2NJA0pYa+//rq88847pji/S5cu1j2KkvFoDYuiKIqipDE//PCDHDhwQAYPHmyN+AbRmD733yehISFp+tf7vu7yofu9/M1DDz0k3/04XcIjIq2RwGHmnH+lfIVKWnBuERwcLG+++aa88cYbcuedd8rKlSutexQl41HBoiiKoihpCJ7r1157zaxkHxoaao36xsgRI6T3vfdaW2lH7+73ysiRI60t//LEE4/Lhx9PsLYChxEf/yCPP/GUtaXY0D2MNVuICFKjoyiBgAoWRVEURUlDvv/+e6lSpYrUqVPHGvEN0nIa1asrZUuXskbSjlw5c8qdN3eVMWPGWCP+4/HHnzTiIJDYsWu/rN2w3RjlyqVMnDjR/Dtw4EDzr6JkNCpYFEVRFCWNILryyiuvyMsvv2yN+M7wYcNM5CO96N09bdLCSpcuLS1atJCffp1tjfjG6rVb5JZ7n5PW1/eWvxdcXMPz67R5ZvyuHi/JytWbrFHfGfHx9/L4E09aW4onhQoVkkmTJsno0aPNwpOKktGoYFEURVGUNIKOS+XLlzcGe3JYs2aNHD18WFolsRL51v/+k87d75cC1WrIh599bo3G8+1Pk8x4s043yIIlS63RhLmsRnUp6jZU58yZY434D1KvRnz8o7XlG/XrVpeoqGiZN3+ZES82O3buk0efHmTGb76xjTSsX9O6x3dIUXsiAwXLmdOnpd/DD8o9nTvJ0kULrdF4/vhtihkfPvBt08Eto2jatKm0b99ePvnkE2tEUTIOFSyKoiiKkkaMHTtWXnop+R2yhg8nunKPtZUw1SpXdv9VMrf3Hjhg/oVtO3fK/96P70b2VK+HpUWTK8ztpOh97z3yofu9/Q0rqp88HSGrHMIjKY4dOylVK8d3Lduz75D5Nzo6RsZ+86vkyBEmYWGhcv21V5nx5DD6sx+lt/s7CQkJsUbSn3z588vJEydk8T/zZePaNdaoyM7t22TAC/3N+JVXt06zVta+8vjjj8svv/xibSlKxqGCRVEURVHSgHPnzpl1LZK7pkVERISMH/+d3H/77dZIwkRERkrlChXM7b1W6k5MTIy8/9HHUqFsWWPwdmzd2oz7wo0d2suypctk9+7d1oj/iI+y+F7L8su0edLrwZvN7V174sXYx5//JG1aXSH/7dgrba6+QvLly2PGk0MgFNvv2bVTmrSIF1v79+4x/55z/5YTvhgnrrg4t6ApII2bNTfjGQmLnG7dutWsiq8oGYkKFkVRFEVJAxYuXCiNGze2tnzHbmXsC9NmzZLbOt8oeXLnPi9Y3hv9kfS89x5ZsnKlXHlFYylSuLAZ95W0anHco0cPmfCT7y2Ojxw9IbVrVpbQ0BDZu++w/Lt0rdS9rKr5F7p0utr8u//AEXnj3U9lwb+rzHZi0Mq4QsVKUrNm8tPI/Mns6b9Lt7viI2j79sQLlo+GDpFrOlwrhw4ckPbX35ChESAbWh23a9dOfv31V2tEUTIGFSyKoiiKkgZQC9IsiRoUb4z48EPp42Ox/a49e6V0yZImmrL3wEH5Z/ESqVG1imzYvMXUP1zvNjaBhQQ/+3a8rFq33mwnRpq2OH6cFsffW1sJExl5TnLmzGEiRJUqlJHtO/bIqjWbTVRlyu9/m8fc3LmN+Xf9xu3S6sqG8vxrI+Ts2QgzlhAjPvkxIFoZR0Wdk5KlS5s21/v37Jbpv0yWlm3ayaL5f5n72113vfl30/p18uGgd2ThX/PMdkZwxRVXyNKlSddAKUpaooJFURRFUdKAuXPnmsLl5PDTTz9J08svNyIkKRAhthee1scHDh2SmfP+kltuuEGm/vmnGe9spaPxuKioKDl5+pTZToycOXLI3bd0k08//dQa8R905hrxcXzL3MT4feYCubZtfEpU+XIlpVyZktKjexdT17JoyRq5vEFNKVO6uLm/Xeum5q9BvRqmSD8h/tu5T9YFQCtjmikUK17C3C5XsZJs27xZdu/8T65ofqX8OfU3CQsLk1bt2pv7EZ09Hukr40anjYD0hapVq2pKmJLhqGBRFEVRFD9D/cqCBQvMAnzJYcTw4dLrnrutrcRBnLRo0sTcLluqtFStVEme6/uonD5zRmb9Pd9sV65Q3twPOdxCxNeuU0RZMqrF8cmTZ2TAoM8kb55cZrveZdVkwrh3TDTi3Q++MK2iS5csJidOnDb3A8+pX6eaFC5cwBq5lPhWxhkfXfntpx9MNAWIslSrWVMe6vukKbgnotKs1dWSN18+c3+tOnVly6YN0uX2O8x2RkCLY11AUsloVLAoiqIoip/ZsmWL5HMbnQUKJGxAe7J69Wo5dvSotGyWdFRmmfuxzw54U+b/+6/ZruQWJl9+OFwOHDpsxsMjIow48aWdsTdqV68uxYsUkdmzk7d2ii8k1eK4YMF8smL+t1K+XPyCmcMH95cK5eNvv/fWk+I6tVSm/jjcbUjnN2M0Gdh/8Ij0erCbhIcnXB8T38r4CWsrY5g/e5YMH/iOrFy6xGzXdAuSoWPGydZNG+X1/v3MWGhIqBzYu9fchvwFCskPX38p0dEJR4/SEsQ3x7KiZCRB7gkt45p8K4qiKEoWBEP/0UcflY0bN1ojSfPQQz2kUbVqct/tt1kj/uXz8d9J9SqV5ermvnWfmvrnLJkw7XeZnAZtbS9vWF+++OglaVC3ujWSMjBhBg/7SiIiz0lERKTce8f1Uq9ONeveC9DKeP3WEzJy1EfWSOqZMWOGvPPe+/L5D5OskbTj28/HyK33dJecueKjTklBumDd0sX8InKGDRsmK1askC+//NIaUZT0RyMsiqIoiuJnwsPDJWfOnNZW0vD4CRO+TzOxAhTjlyhazNpKmhvat5MVy5fLrl27rBH/kdwWxwlBUf7z/e6XN17sJYMGPOFVrEAgtDJOCa/2e0K2b9ksN912h89ixd9Qv1K7dm1rS1EyBhUsiqIoiuJnECuk0vhKcloZpxRWza9V3btBnxCB0uI4Nfwxe5FUrFQ5w1sZp4Q3h34oVarXkHzJSC30N/PmzZNatWpZW4qSMahgURRFURQ/U6RIETl27Ji1lTTJaWWcnpgWx6NGWVv+xdcWx6klUFoZZ0ZIaVy1apVGWJQMR2tYFEVRFMXPkEZTrVo1U0uQFJ999plM/PZbGfa/N6yRwOKN9z+QK1u3ln794ovC/cX+/fulUaMGMnn8e9aI/9m7/7A89+oo2brN/215WUzxxVdelR594wv5KZYvV7GiuZ0RREdFyeFDB81tjrv+fXpKTCprWPr372/qsZYvX26NKErGoIJFURRFUfwMxc558+aVzZs3S6VKlazRS+ESTDQmLiZGQkLj11QJCgqW/PnjO2BlFGfOnJa42Dj3zrj3Mc4ll9WpI/8sWGDd6z86XddRlixZbFazd7+T+/sQqVKlavydKYDvfffuXaa2BViX5Zn+z8nLL79stv3JCy+8IL9MnWp+L4g6d07CgoNMG+CMYMeOHRKSI+f52ql8+QvIqmXx3chSStmyZWXChAnSqlUra0RRMgYVLIqiKIqSBrDK/TPPPCO33367NeKdLl26SPfON8p1beNXbi9YvaZZayQjKV60qCyZPk2KusXU0pWr5KUh78vChQute/3HtddeK0/36SzXdWgh585FSaHybUy3r5Sybt06ufP2m2TNovhUs0FDv5QTEXnl3XffNdv+ZKpbrLw/YpR8+l38Qpi0JW7VpLH06dPHbKc3119/vdzao6dc3a6DX7qEDRkyRObPny+TJ0+2RhQl49AaFkVRFEVJA1jlfsmS1Hm4FSUjWL9+vbz99tsyaNAga0RRMhYVLIqiKIqSBjRp0kSmTZtmbSlK5oAW29ddd5289tprmbKzmpI1UcGiKIqiKGlAp06dzIr3K1eutEYUJfDJkyePSWP8+OOPZefOndaoomQsKlgURVEUJQ0oXry4dO7cWb755htrRFEyB9SvsFZOmzZtZPfu3daoomQcKlgURVEUJY14+OGH5euvvzbdwBQlM/H8889L+/bt5ZprrjEtqBUlI1HBoiiKoihpBGlhtIYdO3asNaIomYdRo0ZJ4cKF5cYbb5SYmBhrVFHSHxUsiqIoipKGjB492qzZceLECWtEUTIHYWFhMmXKFNmzZ48pwleUjELXYVEURVGUNKZ169ZmXRbPNrHHjh2Tq666SgrkziUlixc3Y6vXb5AdGVg3cPToUSlfrpx0ua6j5MqZU44dPy5nomPMiuf+5NSpU9K8eXOpWLaQlC9bUmJj42T6rIWyd98h6xHJZ/r06XL3XXfIrTe1NdvrN/0nnW68ze8LR2I6DR8+XAa//760atvejG1at1b6P/Wk3HvvvWY7PaGzF99l8bLlpWz58mb/pvz4g5w4fsx6ROpYsGCBOU5Z5+ayyy6zRhUl/VDBoiiKoihpyCuvvCLvuw3bP/74w+uK4V988YWcPHlSKlasaLZr1apl/jKSnj17mpa29qrttLkt5xYx/uaNN94wixtWrlzZbLN2Tf369c3tlIAA7N27t3To0EGCg+OTSB588EEJCWElff+yZs0aGThwoClMB7pr3X333eZ2RoAoi4yMPP9dImCuuOIKc9sfPProo7Jr1y757bffrBFFST9UsCiKoihKGvHss8+a9rAzZsyQFi1aWKOKkvnYvn27VKtWTWbNmnVepClKeqGCRVEURVHSgE8//dQIlj///NMsIqkomZ2uXbvKuXPn5Pfff7dGFCV9UMGiKIqiKH4GbzSpTT/99JN07NjRGlWUzM38+fNNPda+ffukRIkS1qiipD0qWBRFURTFj8TFxZmISr169Ux9SkqJioqS48ePW1u+UaRIEdPZCajnoD7EV3LmzHm+ZkVJHUQhkkNoaOj5OhvaB8fGxprbvhAUFCQ5cuSwttIeamPuuOMO6devnzWiKGmPChZFURRF8SNvvvmmfPTRR7Jx40YpUKCANZp8etzaSX6bvdDngvEYt5H74MO9ZPDgwbJ69Wq5sdstcubUKevepClcvIT8+duv54u2M5Jhw4aZdtAY8r6AkY8B/cgjj1gjGQcitVevnueL/n2h2VWNZN6shaZzWutmTWX99v+se5ImT65cMnX6dLnyyiutkbRlzJgxMnHiRJk5c6Y1oihpjwoWRVEURfETZ86ckeLFi5uWt7169bJGU0aT+rVk5GtPSOO6NayRxPlj/lIZ8dM8U1/wyy+/yKBRn8hrH4+z7k2ap2+7UcaOGmE86BnN5Q0ayYP395TatepYI4mzes1K+XXaTzJv3jxrJOOgm1aJ8rnkzu5drJHEOX3qjLRvcZecPHFa9u7dK00aNpSl335p3Zs0r47+WC5vf6307dvXGklbVq5caYrukxv9U5TUoAtHKoqiKIqfmDx5svGsZ8RaHFkJvsOyZcpJ1crVfPorU7pssiIaSsqhNuvs2bOybds2a0RR0h49uxVFURTFT4wfP17uv/9+syZHWrH/8FG595l3JDo6xhpJHhNGDZN/Z2fOdJ5Tp07KyI+GSWRkhDWSedi754A889ibsuif5dZI8vhm2u/y7tgv5MDRo9ZIxoAwrFChguzYscMaUZS0RwWLoiiKovgJVoN/7LHHrK20YcPWXVKqOMX1vtV3eLJk7iy5rHHmbLN87PgxWbdhreTKldsayTyUKl1cDuw/JM2vamSNJI/wiEhpUKOGlCpa1BrJOPLnzy+nT5+2thQl7VHBoiiKoih+YPfu3ZIvXz6pU8e3uouU8susf6Rz25QVWJ9yG/yhOcIkf8HM2Q3sz9l/SJtr2llbmYvlS9ZIoyb1rK3kM2vJUmlzRcrEjr/JmzevRERkviiXknlRwaIoiqIofmDTpk0mVSatWbB8rVzdpL6cPhsun/84zRr1jUWz/pCrrr1B9mzfKl8Pe09+/HSUdU/mYO7fs6Rdm2tl7fo18uU3n1ujmYM5MxfKNW3jGxocO3pC1q/ZbG77wskzZyQ4KEhy58ol67Zvl/e//taMZRRHjx6VwoULW1uKkvaoYFEURVEUP5CWgmXXvkNy6sxZWbF+q7S9spFZeyN/3jyyc+9B6xGJ89/G9ebfpfNmSesuN0vO3Hmk+1PPmohLZuHEieOSN09eKVqkqJQuWVpy5Mgphw779vkzirNnwuXokfhuWmtWbZKGjeOjbzOmzpON65MuWv9v7z7z75wly6TTVS3M7Z9nz5XbO7SXgvnyme2M4ODBg7pwpJKuqGBRFEVRFD/A6vZpJVjeHv2NTPpjvkyZvUBe6HWXNeq+iAclfRk/uHe3fDTgFfl72q/StHV7KVC4iBQvXUbCz5yRqnXqW48KXP739quybPkSGTPuY+nb5ykzlj9/AflvR+B3qfp9yhz5bfIs+XrsT3LrnZ0kNDRE5sxcIFe2amw9InF6vvm27D5wUP5YtEhuv7a9GXvk1ltk5PcTMyzCwoKktDRWwaKkJypYFEVRFMUP0BksuSuc+8q7/R+WZg1qy2t975PCBfNboyKxcUmviF6ybHnp+eLr0rRtB2l/yx1mLMq9n798MUbyFSggMclYDT8juP2WO2XFquXS5up2Uq9uAzPGyu49H3xEFiyab7YDlZtvv04uq1tN2l57ldx0a0czVrhoIVm/erPs2rnXbCfGZ6+9IvuPHJERz/WXXO7PzAr4uXPllM5XtzJRtoyAxhLFihWTsmXLWiOKkvaoYFEURVEUP1CmTBmz8F9aUKRQAald9dLoza3XXWPdSpzq9RpITkdnrZNHj0idK5pJnnz5JTQszBoNTFg88uEHe8sVjZtaIyI///qjHDt+VDq2v94aCUxCQkKkSfOGUrZcKWtEpGGjy6Rdx5ZyzwPdrJGEqVSmtDStW8e8DkTFxMiSdeulfo3qUiBvXjOW3syfP186deqUYYJJyZ7oSveKoiiK4gd+/fVXef3112XFihXWSOq4rFolefCWjlKtom+ebOpbFmzcJ3/++adZD+bN996XOx55wro3ab78YJB898XYwFjpvmFjebbfi9KgXkNrJHGWLFssX44fI3PmzLFGMo777rtPQvNESfvrWlojiRN+NkL6PfI/s+I9greBW6B8/tor1r1J8/nkX+Xa225Pl5Xu4+LipGLFijJkyBC54474aJ2ipAcqWBRFURTFDyxdulSuv/56OXTokDWSOho2bChFixaVAgUKWCOJEx0dLf369ZN27drJmDFjZPDgwVK3bl3r3qSh/ubdd99N00UvfaVo0WISHn5WgoPjIwtJgSH9wgvPG8GY0Vx77bWya9cuKV68uDWSOJhhHTp0MPu+fv16admyZbJaY4eGhsrXX38t5cqVs0bSjp9++kl69uxphFXu3JlvLRwl86KCRVEURVH8AIIBgbFy5UqpUqWKNaooWYfWrVtLmzZtAkIYKtkLrWFRFEVRFD8QFhYm3bp1k88++8waUZSsw6xZs2Tx4sXyxBO+pxkqir9QwaIoiqIofuKuu+4y6TmavKBkJc6cOSP333+/vPHGG7pgpJIhqGBRFEVRFD/Rvn17OXv2rIwbN84aUZTMzzPPPCPly5eX5557zhpRlPRFBYuiKIqi+Anazw4YMMAYeCdOnLBGFSXz8vHHH8s333wjX3zxhTWiKOmPFt0riqIoip9p1aqV1KpVy3TrUpTMyqJFi8yxPG3aNNPJTFEyCo2wKIqiKIqfwSP97bffmn8VJTNC6+KuXbuaCIuKFSWj0QiLoiiKoqQBeKXpGjZ58mS57rrrrNHswZo1a2T69OmmngdYs4MFFUuXLm22k8vp06dl5MiRsmzZMvnxxx+t0ZQzYsQI2bRpk3lN5VL+/fdfs5r9Cy+8oHUrSkCgERZFURRFSQNYRHLChAly6623mnaw2Yl69erJgQMHZMOGDaazVI0aNUyKHGvUpIT8+fNL1apVJSIiwhpJPjNmzLBuidx7773y0ksvWVuKk0mTJpnmESw8qmJFCRRUsCiKoihKGkFKzaeffmoiLH/++ac1mj0gqmIncdx8881SuXJlGTt2rNk+dOiQaZW7du1asw0bN240kRnPxA9EyoIFCyQyMtIaSRqE0fz5860tMYLxrbfesrZEChYsKOfOnbO2xDRI4PGnTp2yRuLZunWrWUV/6dKll9yX1Th8+LARcn379pW5c+fKww8/bN2jKBmPChZFURRFSUPuvvtumThxovkXr3V2BLFBTcQ111xjRAnRkiFDhpg0MRYkRMjMnDnTiLp27drJvn37zPMQEY8//rhERUXJDz/8IEFBQXLw4EHp2bOn9OnTxzzmk08+Ob82CI974IEHzHuNHj3adGvjvT///HPZvn27ifZw32233WbeHzZv3iwvv/yyEVFExb7//nsjpogusH+s6s5ioFk5rY8UuerVq0vevHll3bp10rhxY+seRQkQqGFRFEVRFCVt2bNnj6t58+auTp06udavX2+NZl3cIsDVpk0b15gxY1xugeF68cUXXXFxcea+2rVru2bPnm1uL1261HwnNi+99JLrpptucrnFh6tixYquI0eOmPFJkya53ILC3HaLEdfDDz9sbh89etSVL18+c/ujjz5yuUWJub1161bXhx9+aG7/888/riuuuMLcBrdwdD3yyCNmf2rUqOFyiyAz7hYvrpw5c7rc4sU1depUV7Nmzcx4bGysKywszHX27FmznRXYv3+/67XXXnMVL17c1bRpU9eyZcusexQl8NAIi6IoiqKkA2XLlpWFCxeajkstWrQwK4fv3LnTujdrUqxYMZNaRFrcO++8YyIkEBwcfD4qQoQFz75Ny5YtZfny5cbTT8SkaNGiZtwtGMy/iUHqVpUqVcxtojhEZ7zhFiXmX7eINBEWt+Ax20QZChQoYFLVcuTIcX6c/SXFLTlpaYEIaXejRo0yqYo0QKC4/ssvvzT/NmrUyHqUogQeKlgURVEUJR3p16+fMRwx3itVqiQ33HCD6aiVXSlVqpSsWrXK2hIJDQ01BfqInSNHjsjJkyete+S84GGBTmpLgDEEBRQqVEimTp1qbgO1Ky6XyzzGfq4TxBBiiTQ1G4RRzZo1zevHxsZaoyYj5ZL6mswAooxUuAoVKkjt2rVNCh1ibv369ea4oxuYogQ6KlgURVEUJZ0pWbKkWTmcTloszEehMxGHzp07y7vvvnuRAZ1Z4bNhLHuDSIVdxH7HHXcYcfLTTz8ZgcJim3TwKleunCnW79GjhykC54+oC99N/fr1Tb0LtUE///yzqTnh34ceekimTJli6lheffVVUwODUOH1qWH5+uuv5dixY+a9abmcJ08e832//fbbRqBQ60L0oUyZMrJ///7zXckQKtHR0RIeHm62MxN0/aIVNJ+R+p/Vq1fL+++/b8SLomQWdB0WRVEURQkASE0iNWf27NmmBa9deJ4ZQVQcPXrU3CaVqlmzZuY2OO9r2rSpEQ0IGAxr/qUgnjbGgIhAyGBoU7BPtIWUMSCViZQxOltRkH/XXXeZ6Ajrq/A9Ii4ozicaA6SLIRSJqGC0Q7Vq1Yww+ueff0w0hmgD0R32g1XeoUSJEkYQ8Xq8/lVXXWXGMwuvvPKKEYIsAKkomRUVLIqiKIoSQGzbts14vzHGFSW19OrVy6TdDRgwwBpRlMyHpoQpiqIoSgBBrQHpR3jFFSW10K6ZKJGiZGZUsCiKoihKAEHaUZEiRTJ1SpgSONDxrE6dOtaWomROVLAoiqIoSoBBC2QWOFSU1EB0hdbZV155pTWiKJkTFSyKoiiKEmBQCE4RuKKkBpo3NG/eXHLlymWNKErmRAWLoiiKogQYdKKia1Z25LXXXjNdvpTUM2fOHNNdTVEyOypYFEVRFCXAuO+++0zr3R07dlgj2YfGjRubBTUDHdZ1oTlCoMIaMpMnT1bBomQJVLAoiqIoSoBRvnx5adGihVmDJLtx0003mfVSAhlWwH/ssccCWrCMHTvWpIK1adPGGlGUzIuuw6IoiqIoAcjo0aPl22+/NYsaZgZYuf/cuXMmlY1FHK+99lp5+umnzRogrDTP/QMHDpTrrrtOhg4dalatHzJkiKnX+eijj6R06dLSoEEDsxBk//79jaH9xhtvmNdkdfrQ0FDzfbCCPbeXL19uHvPUU0/JkiVL5MEHHzSLJPL+q1atMgtwsmjks88+K9WrV5eqVaua+1mXJGfOnDJ16lSzCv4ff/whwcHBZiV9OrP99ttvUrBgQRk8eLB89tlnMmvWLPM+rKTP+jisxM8q+x07dpRp06bJ5ZdfHnBtg1lwk0Ux+f779u1rjSpK5kUjLIqiKIoSgGCAk3b0119/WSOBC4Y7K/XXrFnTGPK9e/c2RjyGP6IAofDee+/Jp59+Kvny5ZP777/fCAZuA4Kha9euUrlyZcmRI4cZK1SokHmN//77T7766iv54IMP5JdffjEC5vXXXzfpTqze/v3330uTJk3M6vm838SJE00NEI9FLLFqPhGRe+65R8aPH2+eQxQHIXLixAlZsWKFnDp1Sj788EMpU6aM9OjRQ77++mv5+++/pUaNGrJ7927zW/B4Vtfn/du3b2/2uVWrVgG5xgmf/fTp00acKUpWQAWLoiiKogQguXPnNlEWjHvqEQIZjPkCBQqY240aNTLdqfDy8xlYCBOIsiAMgLEbbrjBpC1hWOfJk8eMQ968ea1bYlKaEEFEREgTQ3AQkQGEEK+B8AHei6gCFC1a1IgR4LVtYVS8eHETnSHaAoiZ48ePm2iNnd7F/URZiJzwmoULFzbr4rAPPN7+DIFKVFSUiSo999xz58WfomR2VLAoiqIoSoBy8803mzQkIhSBDItdsjJ/69atzR/CAUFB1jnCxRvPPPOMjBo1Sr755hu59dZbrdGL4fnOzHVSvFhXxAZhgqAAz8faOPfBeRvs2xj2W7duNRET+zOcPXvW6+O9vUcgQfQJnnzySfOvomQFVLAoiqIoSgDzySefmEgLqUuBCulW1KVQTzJz5kz57rvvjIiJjIw8b/DHxMSY1Cwb0rhIwdq1a5eJZNgQIbCfQ9TD+RxSnEh3Qkxw37x580wKFxCFsh/Lfc73db6eU3DY+9S0aVPzL+lsv/76q7z77rsmJc25/+B8LfZ5/fr1sm3bNrMdCFC7Q10QaXIaXVGyEiFvUNGmKIqiKEpAQl0GaVHUUXTu3NmkJwUapGtdffXVptD95MmTptj78OHDpi0zqWDs84YNG0xhPWlZjAGCpV27diZSAhj/CBZSwfjce/bsMcKB5/AatDtGXFBLgljo06eP1KtXzyyyyeMRSTyXFd7Zxmgn5Yx0Nd576dKlUrZsWSM2SO1CpFCLUrduXRPl2bhxoyxbtkweffRRU5uyaNEik4JGFIcaHWpiiPLYRfw8nv1nLKNBXNHQgOOke/fu1qiiZA20S5iiKIqiZAJIn3rrrbdMMbhdq6EoNoiVAwcOyMqVK60RRck6aEqYoiiKomQCWPcD7zl1Fnj2FQWISHXq1MlEsGh2oChZERUsiqIoipJJeOedd0xL3ebNm5u2vkr2hpoaWjSTukY6XqAvuKkoKUUFi6IoiqJkIliThLa11FywKCDrgijZD8TKLbfcYloys1aP3apZUbIiWsOiKIqiKJkQvOrdunUzxeh0zlKDNftAswB+ezrHIVZoRqAoWRmNsCiKoihKJoS0sLVr15ouVhTh09lq79691r3phxZ6py/UqvDb07Xs33//VbGiZAtUsCiKoihKJoXoyvTp083aIRiviBfWKtm9e7f1iLSDlsWsjFCjRg3Tbpn2wUraQXH9a6+9Jg0aNJDLLrtMlixZYlo1K0p2QAWLoiiKomRyEAysHzJlyhRT01C5cmWzLsrgwYPNeiX+ApEyd+5c6dq1q3kPbpOaxtooWWFlddaOSQ+xl1xYP4a1YkaMGCE//fSTWYcmX7581r2KkvVRwaIoiqIoWYQbb7zRGLcYtawG//zzz0udOnWkYsWKZhX633//Xf777z/r0UnD6vEsyugUKQ888IA0bNjQvA7jePs/++wz+e2338zrZ1ZOnDhhUq0qVKgg9957r6xbt866J2NBCDZp0kQ6dOggW7ZsMeJUUbIbWnSvKIqiKFkUVo4nVWzhwoUyf/78i2pNKNLnr0qVKqYdbnh4uFmlHsOdf3ft2mX+EDyXX3651KpVy4iWhGomECsPPfSQWSOGleUzGwgCohisd/Puu+/KN998Y1pIv/DCC2btm/SEQvpPPvnECM82bdrI0KFDzfevKNkVFSyKoiiKko3Yt2+fHDp0SI4cOWIK5g8ePGjqT3Lnzi0FCxaUQoUKmX+JyhA9SQ69e/eW1atXG/HC62QWWJBz69atJmIUEhJixvhuhgwZIp9++qkRdDfccIP5a926tYSFhZnH+BMiVkSpRo8eLWfOnJG77rpL7rvvPiOiFCW7o4JFURRFUdKA0+diJX/OeOM3u8CaMKwPs337dpkzZ46UKFHCuidweemll2TatGlGrHgTWaTF/fHHH2ahTtpH8xmJvHTp0kUaN24s1atXl7x581qP9h1S7Yh6/fPPP+YPSOm7++67pW3btmZbUZR4VLAoiqIoShrQ6/vNciIiRiY+kLwoRVaAOpe///7bRAxq165tjQYWCJFnnnlGZs2aZYRD8eLFrXsSx/5ckyZNMlEZ4Lmk1xUrVkwKFy5s/hA/QUFB5n5MLdLrqEGhFfWpU6dMql3Lli3lqquuMv9qe2JFSRgVLIqiKIriZ56atFXGLj4gsXEuyR0WLDMfaSCXl8teXZ0ef/xx+eKLL0wtBlGDQALhcPPNN0twcLBMnTpVypcvb92TPKj34bWIKJHSRard8ePHzR91QLaJhXDhPWrWrGmECsX9pUqVMvcpipI0KlgURVEUxY/8tOqw9J64WY6Gx1gjIgVzhUifFmVkYOcq1kj2YOzYsaYQn1QnajNSKgz8yfjx402tDftF2+ccOXJY9yiKEqhoW2NFURRF8RP7T0XJ/eM3XiRW4GRkrIyav0/u+HKDSRPLLvTo0UPWrFljIhG0C6b7VkbBApvXXHON9OvXz9SjDBs2TMWKomQSVLAoiqIoip+oP2iJnI2Ks7YuJtblkjIFwqRQ7lBrJHtAlyvqPki9mjBhgqnVGDlypERGRlqPSDvi4uJk4sSJ0qhRIyOeiPRQd9KuXTvrEYqiZAY0JUxRFEVR/ECnT1bL7C0nJCr20stqcFCQtKpSQOb2bWiNZF9YW2TUqFGm+Pzpp5+W+++/X0qXLm3d6x/27NljVv0nihITE2MW0OzVq5d1r5IULT9cKWEhQXJL/WLSoGw+aVAmnxTIlb063imBhQoWRVEURUkl78zcJYNn7zKpX96ghuXEuy2tLQWIdBBpoaaEFfRZ44TIBxEZ1oFJDiyMuWjRIlmwYIG5vXfvXrMiPGLolltusR6l+EqVN/+V/45FSu7QYMkZGiTh0XFuwRIqdUrlkZaVC8oVFfJLm2qFpGA2ixYqGYcKFkVRFEVJBf/8d1I6j1krxxOoTckTFiwbX2oq5QvltEYUT2gTPGPGDNNieMOGDVK0aFHTDpnV3VmJn3bBtA6mVfCxY8dMXQwRmk2bNpnbwGr8V155pfnr2LGjz22KlUsJ6TdPvCc2unFbjYiY1c81kRolcluDipK2qGBRFEVRlBQSE+eSnM/8laBxRxrNx7fVkLsaBf4CioEC65WwqOL69etl48aNZmV+JwUKFJBy5cqZjmP8S00MCzjmyZPHeoSSGlbsOSNtRq30Gi0slCtUSuQPkx8frCP1Sid/sUxFSSkqWBRFURQlhdR6Z7FsOhJhvM6e4IW+74pS8ukdNawRRQl8Pl24X56ctFUiYy6V4XRq6lKvmPzco078gKKkE9olTFEURVFSwIPjN8quE+e8ihWoViy3ihUl0zF3ywmvYgUYnbnpuIxfdih+QFHSCRUsiqIoipJMvlh8QH5Ze1Qior0bdlxc1z7fJH5DUTIRC3ectG4FWf9ezNmoWLn/2w0SnkD7bkVJC1SwKIqiKEoy2HI4Qp76eWuCRfb5c4bIv/0aWVuKknmIjnXJruPnpID7GO5Uu7AUzeO9C1iMK0iafrDM2lKUtEcFi6IoiqIkg8vfW5pg++J8OULktY4VTdtXRcls7D8VJXVL55Xfe9eXab3qSfOKBSQs2FukxSXbjkTKK1P/s7YVJW3RontFUTKUFStWmLUTYmNj5eqrr5aGDeMX1jt79qxpc0oHIFapVpRAoNWHK2TRztOmO5gnIUFBcn3twvJrz3rWiKJkfnI/+3eCNS35woLl7ycul4bl8lkjipI2aIRFUZQMITo6Wu69916ZPHmy3H777XLttdfKiBEj5J133jH3Hzx4UIYPHy7Lly8324qYFbu3b99ubSXN5s2bJSmfFI9RfOPF37bL6n1nvYoVKJ4vVMWKkuX489H6UiS391Xuz0THyTUjV1pbipJ2qGBRFCVDeOaZZ+TQoUPyv//9zyzwxgJxY8aMkS+//FImTpxoFosjuqJcYODAgbJt2zZrK3EQN48++qi15R2iWo888oi1pSTG9A3HTLvXU+e8p4LlDAmS9S80tbYUJetwVeWC8mCzMibd0Rtn3OfEzZ+vtbYUJW0IecONdVtRFCXdILrSt29fueKKK6wRkaCgIPnvv//khx9+kIcfflh++eUXKVKkiNn+5ptvzOrXiJjVq1fLzz//LHv27JFPPvlErrvuOvP8pUuXypEjR2Ts2LFSsmRJswAdEZuTJ08aY59owltvvWWEUosWLWT37t3y2GOPmdthYWHmdUlRI+rDqtmMOUEEzJ8/37zuyy+/bFLYpk+fLk8++aR0797drNDdo0cPqVy5shw4cEDeffddOXPmjLz55ptmVe6vv/5a4uLi5KWXXjKfhUXveE+iSPZ7ItYGDBhgVvnmM/MaN998s0mPe/bZZyUyMlJy5swp1atXt/ZKZP/+/eZ74L14Lo9HCH7xxRfm/lKlSpn3mDJlilmMj9uk2Xk+Jn/+/El+B6wyzmWD737VqlXnU/iyMicjYuSK95fJmQS6IlGgPOH+y6RBWU2LUbIm19YqLF8uPiDHwi9tNEG8cffxc1K5SG6pV0YXk1TSBo2wKIqS7hw/ftwYvmXLlrVGLlChQgVZt26dtSXGuH711VeladOm0rFjRyNIRo4caba7du0q9erFp+DMmjVLduzYIfXr1zeihjQzDG4E0NatW42RjaioVq2ahIbGd77JkSOHXHXVVcZYf+2110xU5/rrr5d///1X3n//ffMYJ/3795dChQpJq1atTErbzJkzpUOHDvLXX3+Z+xEZiBr2sUmTJkbA7N271wiDXr16GUFlCxgMfd4T4XHDDTfIokWLZNiwYdKlSxcjFnLlymWiUOz/woUL5cYbbzTPQeixj04mTJggZcqUMWl111xzjRnjte1/iV4hsHiN++67T3r37i3nzp07/5jXX3/dPIZtvh9en/354IMPzP1OPvzwQyPU+C537txpjWZt6g5aIudivaeB5QoLloeal5bOdYpaI4qSNfnriYaSJ4d3s/FsdJzcP36DaXmsKGmBChZFUdKdAgUKSEhIiIlCeIKYKVasmLUlxjhGJDz++OMmIoGYwcDv3LmzMfwxwIFIAc+dO3eulC5d2hj/gOGPKOCP5yMC3nvvPSMsiGDcf//95nE//fSTrFy50jyfyM8tt9xixm2IjJCuhiCC77//Xu666y4TFXLCNo8FIiEIgJo1axpBYUdG6tatayIskyZNkmXLlpn3fOKJJ0xkhP2l7sSOoFStWlVOnTplbicEAoqojbf9tlmyZIn57gYPHmwEW3h4uHXPBfgOEIjsD993t27drHsu0Lx5c3n66aflxIkTJrKU1bll7Do5dCba2rqU+qXzygddq1pbipJ1KZk/h3zYrXqCrY6j3Vql+dCMrznctGmTmcM8/5hrAx2cQMyrW7ZssUYUGxUsiqKkO4iVli1byj///GONXADPPlELb+TOndtEZVq3bm2iIKRn8VgM/ODgYCMUuI8/b9EbIIrSuHFjI3Co4ciTJ495/tGjR42wsJ+PuHCCEKFzGelkNkR0GHcWtrPNvtg47+O2c/vw4cMmKmO/JxEfz9cD9jMxEDekZyFCiOx4EzhEnBBJCBvPzwa8J/uT2HeAICT97s477zSpbwhJINK0Zs0aczsrMXzeHpm95bhEJRRdCQ3S9VaUbEWPZqUSbnXsHtp6JEJe/i1jWx0zh9mpuk5wUKUXiKbkYD+e9GVSoInEKxejgkVRlAyBCAXpTtRm2MybN8/8S7cwGzsSwIR+2WWXmYjF6NGjTRSG55J+RUcxUqWo36DuBQPavjhhiBNNcUKUhYsZERJAJNx2223ywAMPGE8ctSZEW5zwGCI71NbwmK+++soIFiIiCA1qQ4hgsJ+2YOC9PcWGvS+IGkQEhj+vh4CifsSbOOG9AcGGaPBMxRo/frxERUWZ2h3SxoiSIAqpP+Hx7NNvv/1mUuV4LsKO+h3gMVwk+Sx8Hw8++OD5z4cIckJkiue+8sor5vMCqX3U2SD8shIr9pyR16fvkBOJrLey8tkL9VeKkl34rVc908LbG5ExLvnw773m/MlIypcvbyL5tvOFP6LG6QFON+ZiX6EmktpKIIKPY8nTaaVo0b2iKBlEvnz5jHFMITypUXjoSTOibsKuMbnyyitNbQoGODUjL774ojHEae07depUUyTepk0bU8dC6hRixo6cEElAzCAeMMqp0bALyCtWrGgMbGpibKj/2Ldvn0mLIu2J9CxPbrrpJmPo8x4U1t9xxx1GeCAEuODUqFHD1MOQklawYEGJiIgwn4UoCkXqGPs8nm3+5T0Z5z2JOPH6RDn4bvhDCLH/iKI6deqYSMpHH31kLr7OtDmiPrwGr4moI+qEyGG/qMXheyYNbdy4cabYnvoVns9+2I8hta5Tp07nvwMaEVAj5ITfgTocQNyVKFHCFPxzwbXFX1ah/BsLJcJtfHmjQK4Qef+mqnJtrSLWiKJkL1pXKyS/rDniPkcubURBRHL8skPyYocK1kj6Q/oXDiTmPti4caO5XjCv4ixDvOAAoqkLzi5qIrmN8wunDg4eHEhcW5hXP/74Y7NeGA4mGsUw53KbiDbXm+eee87Mg4ULFzYRaK49ONt4XRquEDH57LPPzLyMmLLB4YPjihQwnsPc/umnn5r0ZRrLvP322+Y6xX7zenymxYsXy7Rp08xcbl8rswO6cKSiKIqSYoYMGWKEGs0CsgqsZL9q31nT/ciTHCFBcmuD4vJt99rWiKJkT/r/sk3GJNLq+6a6RWXyQ3WtrfQFx86gQYOMYwUw8OnAiIMGiLDTFIV5i8YrNGjBHKbNO+IE5xJpxYgMHE8IGTpK0vCF6DJRfgQD3RkRLbwXzibmQzpTEtkmIo1DitpHmp7wfogdajcRTzY//vijyQig2QoQJafBC0KKZi04q9hfagcRMAgtnF1E/D3T3rIymhKmKIqipBiK/KkJyio89uMW2XIk0qtYgfKFcqpYURQ3Q26qKqXy56B0xSt/bjou3y27UPOX3hBJJ4mIP8QKkWobxATRYda1QqwAEWSiK6TE0vnxu+++M+IBUULUHWhsglgBBI7T5+/N/080hyg5r4noITOAiE1iIJaIlAOiicgLoonnUrvJa5FBYLfzzy6oYFEURVFSDKlxCTU4yGz8sPKwTFh+KMHWrCFuy2z9i7o4pKLYBGqrY4x+/myIrJCua3ffoskKabAUuLPuFJCuRQt80mHtuhdSkakPJKXMhno/cAoPbtu1hk4YJ83Wfj0EECm5vsJrknLG69Ain2i2/VrZKR0MVLAoiqIo2Z69J89Jj+82yrGISxfGAxaHnPVoA5MSpihKPLQ6Hn5zdSmaO7BaHXs2WgHECQKEWkkiLCzES70IaWFEPxATRGGoAfz1119NExfEBff36dPHpIMR5fjzzz/N61HDh9ihe6TdbAVxwmtQ48L6WbSGJ7rTs2dP0wyGta6c6WDA44n20OgFcYTQssUPt4nc0LGRFDDW2aLJCqlqpJhlJ7ToXlEURcn2VH7zXzmZQEewvDmCpX+b8nJ/01LWiKIoNo3K5ZO/tp2UHcfOSZxnWpTb7j4VGSMRUXHSrkZhazBtQTwgQOi2RSSF24gGCt8RHwgHCuzpyIWAQQzQKZE0LFJcibKQeoXIoH6EiAvraFEEjxB5/vnnTXSjQYMGpmaFRjA0daGRC41ieB1Sypo1a2Yam1A0//fffxsxwyLCefPmtfY0HlLXqIvhPRBavDZRFbqcsf80i6EdP50sT58+LXPmzJF27dqZJinZCS26VxRF8QG6g33++ecm35luXkrKwStp5417g5SL4sWLX3JhTys6frxa5m494XW9leCgIGldraCJriiKkjC5+/8tkbGXdg2DfGHB8vcTl0tDt7hRlJSgKWGKoniFEDXha7xHFPnxR4th2u8SAk8Kwu7+go4rvoKnLCl8eYwTWi/T6YWOLHRvceYzJ0VkZGSycpbTG4o5SUPwJ3S9IaXhnnvuuWQtF1b0J5c8MSpUqGA8kXzvac1bf+yUf3eeSnBxSDsVTFGUxJn5aH0pkkBq2JnoOLlm5MVrWylKclDBoiiKV1hLhHU4MDztIj/C0KzlQRg9Mei0QmtIfzBlyhQTnvcFjG97Aa6E4DHkJieHUaNGmXA9PfYp2iT87ytDhw417S4DFVIaWAvAH5Ay0a9fP5PnTRoDf05xR744OdgcW4lBgSnZyuSYJ3WspYa/t5+UD+buSTAVLE9YsKx5XheHVBRfaFmloDzQrJTkzxFijVxMeFSs3DJ2rbWlKMlDa1gURUkQ+sWPGTPGRFqAAkDyg+lUQsEfhX+sVs+CjbR+pHiQHvEsIohooSiRwkNyhmfPnm2KFRE+tGScP3++WU29bdu2JoeYRbEoJpwwYYJZ8Z5xWk6yCBd5vXjdS5YsafYDWNRr4MCBxoNPr/uaNWtK7969zeJevC+5w4gr2koSHSEXuVChQqaXPq9PyhFjLEL5+++/m/1HlHh6/+mPT3tL8qAx7Om5j+ef5/DdkH/M+/FdsXjYH3/8Yb4bcpn/+ecfeeihh0wuMt8LhjyvQT4yQoy1AXgc+c6DBw8+v+AledR0hOHxGPnkW7OQmA1GPN8TAoFFyLif7xZhx0Jn9v7xmez947cjj5v3ZL/Jq2ZFZvr8s3900WGxS6IjrNLMwmmsGUBaFr8dC3oSiWGVewpJnR1y2G/S5PidEIO0B+U1+e5ef/1105aT/eK7GDFixPmCUsQji1TynfB5nQuqIXbIJed3tluK+hMiKjXe/lfCo72nsBBZGXNnTWlRuaA1oihKUnSsVUTGLT4gx8MvLXrnTNtzIkoqFckl9cqkT7qnknXQCIuiKImCoYtfg7/u3bub1XwBQcBK7IgWuqNgRFOEiNFLkSKG+NVXX20KDTH4McJZaAtRgoHK6/EcOrcA6UM8/9133zUr32P426vXYwxTIOnkmWeeMdEBUoxIX8PAReSwXxjUREKGDRtmRA3Fj6zmTjFj+/btTYSEAkZE0ocffih33323PPXUU8b7j3HthMW72K/OnTvLo48+atLJMPgZp3NMq1atTPobz7/++uvN+7z55psmqsKCZHwfLF6G0OG1Z8yYYQx2Vp5HBGDsk3b39ddfm8gDK+yTQsb3wH4hghAXGPQ2fFZeG5GDWAEEFd85RZn8Juwf+8tvwP4ReSKVj9dDeBD5Yd9ZQZnVoBELCDy+S75XevwjFPht+Z2//fZb8xhv9Tss0sb7s2Aawgwxdccdd5j95P0RSfwhOm2xAogbfl9EIoWknlC8iihLC+oMXCwJNVvNGRokdzYqIXdeXsIaURTFV/56vKHkDfMeZTkdFZthrY6VzI0KFkVREsVOz+EP4x6D1IaVd+nEQhTE24q7PNaOdvBHihnRFwxVIiH0/KDrCgb1unXrTFtJDFpus5JvYhANQZhg6JKG5En16tXNfYsXLzaefN7HEyIH9qJeRGmoT0mqvgXBQbcZnoMo4XPbIoaIzbJly4xI8ZYGhjBBAALfK7cZYx0ThAOiBqHBayDqeA+iTC+88MIlNUFERBAPvC/QZYYx9g/R4rl/X3zxhdx+++3msYhGIjmeUDdif++IL34fhCPfNfvHApGIVs/+/4hDRCosXbrUNCiwV75HkNLNhsfwvTjhOyDihRBCXHnCsZUWdSz3fbvBeHoTWh2yerHc8sntNawtRVGSQ6kCOeTDW6pJsTyB1erYCdcEmqikB2QleHPIJAfmdyLx2RkVLIqi+AwGJKLDLoJHXOAhJ3UHI9sbTo86kKqEkdq0aVNjCGO0Y5wjHJxNC9lODKIBeO+J3FDr4AmdpohMIFyI1NhCwQmGPFEWu0bn1VdfNaliicF+UUhvP4eUJwxxnksUgWgOqXHe3g8D3U6l4ntx3nbC98v72O/x4osvXpQuZUN7TVKsEH/UFwHCxnP/7PaYTjGGqPEEUcfjbBBARGPYv8QaShJpWrt2rdln0s4QUohVomBEaR5//HGTLuZZ3G+LJh5HfRCQRkZUDnhPBJ0/+WzRfpmy7phExnhPBWOZlTXPN7G2FEVJCQ82KyVNKxSQsOCL5zaDe2jrkQh5dVr8AowZAeuseHOy+QKZAVw3fIH5lPkNR1JKITJPBF8Fi6IoSgKQruQJhi71FzB8+HBTA0GdCNEO0oIAI5NJHQPZ09DF444XHy89Xi7eo1ixYuZfDF+ewwJadncpXgtD12lsAylUXAgw0ElBAvuxpD4hHqibwBDm4oKA4F8eQ8oV701aFgY26VHcx+fw1tGLz2B/DqIM1MSMHj3aCIOvvvrKjDOGeOJz8Bp8fu6334/9J0phG+NEkXgMeH5HtPylJuXtt9820RxqWbx1SiNVjZXmiViRDgcJ7R/1KERviH7wO/GawO9gf79EVahhAfaJuhxSw5KC6Bnf3eTJk83ianxmfhOEKWlvQHqXfXwA9TXUx/Ac6pmA/cXraYs9vivqpfzFpkPh8vTkbXIikcUh/+3XyNpSFCU1TO1dT7zpFYiMccnwebtl1d4z1kj6gjPLc971FVJuqdH0BZx8OOdSA9dH0qlTur9ZBRUsiqJ4xV55lzbGePLttDDSr/Dccx/F5dQfYFQyKWOcEi258cYbzX3UH5CWhAFLWBwefvhhY6wSIWEyR/zYAoPXxLClsxT1FUAKGa+DB98JC3ER1SBNjVoVoAYFIYLBjpef12NFY2owWPuDPz4P3n5SqTD4EVDsD+KFFYg9Iyy8L00B2H9EBmKC16fOg7oa0rko5uc7ohZk+vTpJqLDa/K+fF67Exd1M3jJEAaIF56HcFiyZIlpGmAb7tR6UIxO6hbfB8KG4nlvkJZHvYiN5/7Z3c0YI/LDZ6bmxH4O+0ctDIKIYntqlBCO/NZ0R6NGhrQ69o9ITkIgNvAEchwQZcIgoLmADccE3ka+e6Con/3gN6LOCEh7oFbIbjDA70X9j7+4/L1lcvqc99x5xMr/OlWSxuUvXoVaUZSUM/ORBgm2Oj4d5f9Wx0ScqSEkvRdnD5DWynWCMTuy7Bk1JvWW+RYnC40+bGjlz3OZE4kgk0lAZJg5m7mS12Au4z2ZR+35DQcQ8ycNa2i+4glzOs4krl2k4vI45nwcPsA+4LDCaQTO/eVfrhvcz9xpO76yOrpwpKIoipIu0C2O5gEJiRAu2jQaoCkCUSkaMRCp8ayZSQkthq+Qf3eevnQlbjdhIUFyfe0iMvmhutaIoij+gqjmZwv3m4J7T0KDRLrULSo/9Uj9uUfdHjV0CBMizMwl1CmSnkodHfMLwoQGIggKmpwQWUfYkDpLwxQcUzhc6B7J43D42GnHiAZECc4bGsNQs4iTDmcMTjveD2cVEW+cUjjD7KYmdLi0HTOAY43n/vLLL8aZRFo1Kbi33nrreecer0+KLE4o0oL5HHwGBBQRdZxsvDZ1ooMGDTLPycpohEVRFEVJFzp06GAicrTC9gYXZi7kRHu4KBMF84dYee7X7bJm/1mvYgWK5w1TsaIoacQHXatKyfxhEuTl9Itxj83cdEK+W3ZpU5TkwtxCei+RB2otiWATNbGbkJAiTGqVJ6TfEj3hMWQWELVG0DD/2C3VidQjVjwhSkLqKs9FFBEJp16FSAtiBRAxniA+iOYjOkipJbLMXOesfSQzwVstJCKGaDbvSe0idaTZARUsiqIoSrpBTQw52d6gpTOihWYEeDTtQvzUMHXdUVNofyaBVLCcIUGy7gUtsleUtOSvJy6XvDm9m5z+anVMZJb0Kxq7IE6IWiBESPUljZmU3J49e1qPvgCCBkeJ3aiEKAZzD7V9zloVb41KiNAQheF5dFCkEyNpXN6EhieeaWnOpizA/c5tG1KoETu8J3WJzpTgrIwKFkVRFCVdwYBIDM/2xynlWHiM3PrFOjmeQJF9wVwhMqlHXSmUQI69oij+oXSBHPJB12pSOIFzjVbHVw5bYW2lDGpJmDuoBaSrFrUrRHVpmU49HHV2zqYitlig9pH0LaK6PIY0VAQHgqBv374mPYyoLw1CABFhNyrh9UkFo76RBjCkeNG9kkV56VQJvKYvdSbMizQmITqDUEIg8T7g3F/eE3FEnQv7QMez7IAKFkVRFCVLUm/QEtONyBt5woKl15Wl5frL4hfeVBQlbenpPt+aVSjgtr6tASdBIttS2eqYFDDSuVjA1q6Bo6U6XSkREQgQakuASAy1KogbmpzQdZKCd+pGaAZDsxFehyYidFjkNg1ggLoRGoZQj0exPbUnrEOFMKLehWYjFP+Tlta7d29Tk0LamHNNKQQQaV2IH3ucSA0LG7NfFPWTXkajEzo78nmI5pCyRkMUamZoTEPEiPfJDmjRvaIoipLluPnztfL7hmNyLvbSSxydVptVLCALn7o8fkBRlHQjV/+/vJ6XkD9HsPz9xOXSoGx8/Yei2GiERVEURclSDJ27R+ZuO5GgUZQrNFjFiqJkEOnd6ljJGqhgURRFUbIMy3aflgEzdsqJCO8FvPlyBMvK566wthRFSW9aVS0o9zctJXnDQqyRizl7LlZuG7fO2lKUeFSwKIqiKFmGph8slxORCa9kP7RrNalRPLc1oihKRkCr41IFwrzWs1B29sfmE/L9isPWiKKoYFEURVGyCA0GL/Vazws5QoKkc52i8vCVpa0RRVEyEmpVEmp1fCoyRrp/vV7Co5JuD6xkD1SwKIqiKJme3hM3y7ajkQkKlvKFcso33WtbW4qiZDS0OibimWCrY1eQXDlsubWlZHdUsCiKoiiZmu+WH5KJKw4nuPBccJDIhhebWluKogQKptVxxQISxkl6CS7ZcjhCXvs95a2OlayDChZFURQl07L7xDnp9f2mROtW5jzWQMJCvBlEiqJkNL/3rmecCt6IiImTYXN3y6q9Z6wRJbuigkVRFEXJtNQftETOJJDnnt8tVp5pU16urlrIGlEUJRCh1XGhXNrqWEkYFSyKoihKpqT96FUJipXQ4CBpVjG/vNaxojWiKEqgEt/quKTky+G91fHJiFi5VVsdZ2tUsCiKoiiZjv9N3yGLd52WmDjvZfakguG1VRQlczDs5mpSMr/3VscSJDJTWx1na1SwKIqiKJmKuVtPyLB5e+T0Oe9F9nnDgmX187o4pKJkNpJsdfyNtjrOrqhgURRFUTINkdFx0uGjVXIi0rtYKZgrRMbeXVPKFsxpjSiKklmg1fEHXau5z+MEWh3Haavj7IoKFkVRFCXTUHfQEolJwMGaOyxY7m5UUm5vWMIaURQls9HrytLStEJ+CfVqoca3On5dWx1nO1SwKIqiKJmCe77eIHtPRllbl1K9WG4ZfVt1a0tRlMzKH4/Udxuo9Dq+tN+xaXU8T1sdZzdUsCiKoigBz5iF+2XahmMSmUB4hWVWVj2ndSuKklWY+WgDKZzbu5l66py2Os5uqGBRFEVRApoNB8Ol/y/b5EREwotDLnm6sbWlKEpW4OqqBaX7FaUkbw7vpirF97dpq+NsgwoWRVEUJaBpNGSpnEqgIxiLQw7oVEkuL5fPGlEUJaswvButjnO4b12aGhYd55I/tNVxtkEFi6IoihKw0BEoyrtWkbCQIGlXvZA8eU05a0RRlKzG349fLnnDLhUsoK2Osw8qWBRFUZSAhDSwtQfCJc7lfXHIEnnD5OeH6lpbiqJkRcoUzCFDbqqaaKvjFsO11XFWRwWLoiiKEnBMWXtUxv17QM4kkAqWMyRI1r3QxNpSFCUr0+eqMtKkQj4J9RpoccnWw5Ha6jiLo4JFURRFCSiOnI2WO75cL8cSKLJncUgiKwVze/e4KoqS9Zj5SAMJDvKeGnY2OlZbHWdxVLAoiqIoAUW9QUvMWgveyBMWLL2vLCOdahexRhRFyS6wPkvh3CHW1sVoq+OsjQoWRVEUJWDoMmatHA33HlnBu9qgTD4Z1KWKNaIoSnbimmqFTKvj3GHezVdtdZx1UcGiKIqiBARD5uyWedtPSHSs9yL7XKFBsuCpy60tRVGyI7Q6LpVEq+MfVmqr46yGChZFURQlw1my67S89cdOORWZ8HorK5/VlewVRRH5+4mGkjdHwq2O7/laWx1nNVSwKIqiKBlOs6HL5WQCYqVQrlAZdnM1qV48tzWiKEp2pmzBnDKkc1UpmNN7PUuMtjrOcqhgURRFUTKUuoOWiPckMNLAgqVLvaLSo1kpa0RRFEWkT8sy0qRifq+tjl3a6jjLoYJFURRFyTB6fb9Jth+NtLYupXyhnPLl3bWsLUVRlAvQ6jhIWx1nC1SwKIqiKBnC+GUH5YdVRyQi2nuuOReo9S/q4pCKoiQMrY5JG/UGrY5ba6vjLIEKFkVRFCXd2XEsUvpM3CInElkcct7jDSU02Lv3VFEUBVpXKyT3NC4huUO9m7Rno+Lkji/WW1tKZkUFi6IoipLmjPh7n2w6HGFtiTQcvFROR3kvsi/gFiv925SXllUKWiOKoigJM/LW6lIyfxjFK5dAq+OZm4/LT6u01XFmJsjlxrqtKIqiKGlC06HLZc2+MzKgU2X5fcNR+Xv7KYlxGxKeEFFpW72QzOhT3xpRFEVJmr0nz0nNtxfL2QRSTFlr8sS7rSRPDvXVZ0b0V1MURVHSnOYVC0hktEv+N2OnrDsY4VWsAKlgKlYURUkuptVxF211nFVRwaIoiqKkOfVK55W8OYPlbFSsHDodZY1eTN6wYFn9nBbZK4qSMkyr4wr5JcRL5zDT6vhIpLwxXVsdZ0ZUsCiK4nciIiJkzJgx1tbFrFq1Sv7++29r6wIxMTHyzTffyJkzl7agnD9/vqxYscLaSjmbNm2SWbNmWVtKelK7ZB4JC074kkNkZdzdtaRMwRzWiKIoSvKZ+WgDSahXBw6ToXP3yOp9Z60RJbOggkVRFL8zffp0eeSRR6yti9mwYYMRLZ4sWbJE7r///ksEy+7du+Wxxx7z+pzkcPz4cXn++efl999/t0YynqVLl5o1BPhr3LixNZo1QbBExnjPLYdbG5SQ2xoWt7YURVFSTpKtjkek3gGmpC8qWBRF8TudOnWShPp53HnnndK3b19r6wJXXnmlFC5c2Nq6QPny5aVevXrWVsrhtZs2bWptpQ8rV668SIAdOXLERHlsvv/+e/M98bds2TJrNGtSNG+YhCXSovjHVYekx3ebJCpW+8AoipI6Em917JLw6Di580ttdZyZUMGiKIrfCQ0NNVGD9evXS7du3eTRRx+VuLg4kyr2ySefyEcffWQ9UuTPP/+UwYMHy8svv2weY7Nr1y55//335dlnn5Xt27dbo/FG/3fffSdPPfWUzJw504wR0enfv7/8888/0rVrVxk2bJgZ9yTYkZJ0+vRpeeKJJ0zUhT9Ew+LFi+WNN96QKVOmmMfs27dPPvzwQ/NvVFSUTJo0SV588UX57LPPzP1EfR588EGZN2+edOnSRY4ePWrGbWrWrClvvfWWGSdSNHz4cKlataq5748//pBRo0ZJ9+7ds02aWtViua1bF0DE5MsRIrFxLvli8QFtPaooil8wrY7zeU8xPRfrkhmbjssPK3W+ySyoYFEUJU1AAGDQf/HFFzJt2jRZtGiRGd+8efP5KAO1LIiX5557Tvr162dEBPDvzTffLD179pT33nvvomjNCy+8IHfddZcRFnfffbdJJaP+ZfLkyXL27Fnzfi+99JKcOnXKeoZ3BgwYILVq1ZJBgwbJb7/9ZqIhjRo1Mvt68uRJ85hixYoZsVKmTBl59dVXpU2bNvL222/Ll19+KZ9//rkUL17cvF90dLQRHmFhYeZ5Nrlz5zaChb+RI0ea90TMwbXXXmvEV4sWLYzYQbRldU6fixFiLCXyhUnTCvnlwaal5N0bK8u33WvLv/0aS+SQq+WWBpoWpiiKf/j7yYaSN8x71zAWrb3n6w0SHpVwqqoSOKhgURTF79gCA2FRoEABqVu3rjHOMeBLlixp7oN33nnHGPqAOChSpIi5PW7cOGnSpIl5LtSoUcP8u3XrVtmxY4fMnTvXCAzES2xsrBEU+fLlMyKgUKFC5j0OHTpknpMQr732mtx2221GeCA4eDxiYsSIEfLBBx+Yx5Cy1atXL3N76tSpRoD99ddfct9995n34X1DQkKkZcuW5rXs/XWyZs0aE1nav3+//Pfff9ZoPHny5DG1Pj/99JOJGmV1/ny0gUS9f7UcfLOFW6A0krF31ZRn2pSXLnWLymWl8kiOkCDzpyiK4g/KFcop73WpIvkTbHUs2uo4k6CCRVEUv4NgcUZFMOoRBUBaln0fRrw3iGp4g8jH4cOHpXXr1ubvmWeekcsuu8zc50wnIx0NIZMYn376qREmDz30kFSsWPH885s1ayalS5c2kRZS0apUqWLu27lzpzRs2NC8L5GfDh06mMfzXs7P6oQGA4geokgII9LLSA3z5LrrrpOCBbP+qu6ViuQyC0MqiqKkF4/Q6rh8fmvrYmh1vP1opFkfSglsVLAoiuJ3nOLBE+d9pFh9++235jZpXYga/hinjsROEYuMjDTj1atXN1EKhApdv6gdYdvb+yEkPOFxtrj46quvTL0LkErm/PfNN980ncmaN29uthFZCKM77rjDCJc9e/aY94aExAoULVpUBg4caPaFdLGhQ4eaqAqsXr36fOoZtTh8JkVRFMX/zHqsQYJNP06fo9Xxbm11HOCoYFEUxe+QNnX11VebFsLUrGC4U7eCoX/ixAlj5BNFIS2L23QIowC9RIkSJiLRsWNHefjhh+Waa64xRe7Hjh2TtWvXSnh4uEnNIiWsdu3aJoJBuhnF9pUqVTIigFQxxAUF9E4ofKeuBdHCfjz99NOm2J73oxCedWOIBAG1LOwT+2EzYcIEs68NGjSQIUOGyI033igLFiww6WBEY7wJFz6PE4QL3wWQesZrIWJIlevcubMZVxRFUfzPH33qS+Hc3lPDTkZqq+NAJ8h9kU3YPagoipINQdAgtkj9UhRFUbIGT/y0Rcb+e0DORl8alc8ZEiQdahaRKT3rWiNKIKERFkVRFAtECjUqpIOxiKWiKIqSdfjwlupSglbHXlz1IcFBkjM0SI6Fx1gjSiChERZFURQLUs9IK6PwnjQtRVEUJWux58Q5uezdJXI6Kr4xS3AQ3QlF3ry+ivRvU86MKYGHChZFURRFURQl2/Dxgv3y0m/b3WJFpF7pvDKpR10pnCd+jSwlMFHBoiiKoiiKomQrBszYKSXyh0mfFmWsESWQUcGiKIqiKIqiKErAokX3iqJkKx544AGzBouiKIqiKJkDFSyKomQrWMNl6dKl1paiKIqiKIGOChZFURRFURRFUQIWFSyKoiiKoiiKogQsKlgURVEURVEURQlYVLAoiqIoiqIoihKwqGBRFEVRFEVRFCVgUcGiKIqiKIqiKErAooJFURRFURRFUZSARQWLoiiKoiiKoigBS5DLjXVbURQlRbAY44wZM+TgwYPWSOAyZcoUKVu2rDRq1MgaCVyqVKkid911l1StWtUaURRFUZTshwoWRVFSzF9//SX/+9//JC4uTh577DE5c+aMdU/gEhYWJtHR0dZWYHP27FmZNGmSlC9fXkaOHCn58uWz7lEURVGU7IMKFkVRUsTTTz8tp0+flr59+0qDBg2sUSUt+PLLL+Wzzz4z3/nNN99sjSqKoihK9kAFi5KlWL9+vdSuXVuCgoKsESUt6NSpk1x77bXSr18/a0RJD4hiEW154YUXrBFFURRFyfpo0b2Spbjzzjtl5cqV1paSFvTs2dN4+lWspD+jRo2SrVu3yh9//GGNKBnBrl27JDIy0tpKPocOHZLjx49bW4qiKEpSqGBRshSrV6+Wyy+/3NryH0uWLJEFCxZYW9mXFi1ayG233SYdOnSwRpT0htSwX375RT744ANrRElPqNd66qmnUiVYnnvuOTlx4oS1pSiKoiRFyBturNuKkqkhu5EC5cKFC0v+/Pll4cKFcvjwYdmyZYtMmDBBGjZsKDly5JBt27bJsmXLTOH1V199JTVq1DDjFJDv37/fpNysW7fOpJfxWjz+9ttvl0qVKkmRIkXMX3bk0UcflW7dumkNRQBwww03yLBhw0wRfvXq1a1RJSVERUWZFDuiVu+//77Uq1dP8uTJIx9//LH8+OOPJvWR+x5++GFz7BPl4g/hgmgZN26cHDhwwAjIHj16SIkSJaRmzZoyduxYIy5vvPFGmT9/vjzwwAPSvn17+fbbb837xMbGSqFChaRcuXLWniiKoigJoTUsSpaBdrX33nuvzJs3z4iR+++/X66++mpp2bKlTJ48WapVq2ZqABjPnTu3XHfddfLnn3/KmjVrZMOGDUaYdOzYUXbv3m2ef9lllxljBNFCVIHn8pzs2GL2u+++MyJvyJAh1ogSCDRv3twcw9o9LOUgJDi3mzRpIsuXLzeigrlg6dKlMmjQIPP9Ao6KzZs3S7FixYxDhLQw5ob+/fvLzp07zTkyc+ZM6dq1q9lmHnnkkUfM6wAtqhE+zEMVKlQwrcAZUxQlY4iIiDDnMefq0aNHzb84OXEm7NmzxzSV4VznNmOctzwmNDTUODqPHDkiBQoUOH8eFy9e3DggSpUqZRyfZcqUMeOKf1DBomQp6tSpI998841JC7vvvvukTZs28uCDD8rEiRONZ5NUGjzTRFDGjBljvKtMPIMHDzbGH3/79u0zr3XllVcagwXR06xZM+NBveqqq8x92Ylz585JwYIFU5UCo6QN06ZNM97+qVOnWiNKcuD8J5pCZBVjAzA4mBtCQkJk4MCBMnv2bDOOOEGw8DinYHnllVckZ86c8uqrr5rHMfe8+OKLUrlyZenVq5esWLHCjLONYCEipoJFUdIXHJM4D8icwPnGuYxTkvMYccF5iznM+V26dGlzTnOeI0ho4sN8QCYG18OYmBjzmseOHZNTp06ZaOt///1nxA6vwesjbEj7xEGBHVKyZEmz9lfTpk3NvKEkH61hUbIUTCpMHsAkY98mooJxYsNkBExAiJDMsOBhRoHxRUqdEnhcf/31UqtWLfn555+tESU5MF8EBwfLjh07rBExaVoYFMwfzm6DPM6X7oNEYIoWLXrJ4319vqIoqQdhQurlHXfcYYTHu+++K3///bdxEuBc+Pfff40DYePGjSYyitPyvffeM/Vl3bt3N2ngdMPEPqB2E6cloganJlkb/HXp0sVkdeAcff31181aWTiQFi1aJHv37jWNNb7++mtp166didYMHTrUOEBJO6UaA4eT4jsqWJQsh9MosG/zr3PcGVg8efKkiaawoCAhYu5D6ISHh59/HMaG8znZBVJkSLEjzUUJTJ588klTBK4kHwRL79695fPPPzfbeElxbmCckNaBMYPXFMOClBCabwCP2bRpk6mPA7y0wPzBX6tWrYxw4fXoCEYEDM8sHQyZW3LlymW6vZGKqiiKf8DxgBCoW7euSeMmcvrQQw+ZGrPx48ebujLSNIl4lC1b1npW2oFDtH79+tK5c2d55513ZPr06SbSQ/ooEVfEDQLmrrvuMuJJSRwtuleyDKR5jRgxQipWrGgKXyl4RaQQ9sXgwKNCdytCwaSHUURPVzEeg5eEOgCKbDFKMEYwKAj5tm3b1hjuTDaEiplosguffvqpPP/888Z4UwIT0vUwgPHmZcf6qtSCF5XznS6ApIOSBsr3SQoH5z9GDqKGKCxChnQuvLQ06cDDyr/MFaRMMndwSeU3IVIDw4cPN2mp/D6khPBc0kQwUCjix6hRFCXlkILFeffaa6/JFVdcIW+//bZJ1aRhBnNioJ1j2Cc0AbrnnnvM3ECKGbVyTzzxhJk3dCFm72gNi5LtoIYFA+N///uf8ZoyedhQRIegIQTMYzAsbPC02nnuiqIogGGEQYSxpChK+vL444+bjqCkfGX2dvs0+yDai3P1rbfeMpkfygU0JUzJdiBS+CPP3ClWgDQOxAo4xQqoWFEUxQkpKKR5Ed2lk5CiKOkDzkVSu1q3bm2K6bPC2mBEg0gdI6r7zDPPmOiscgGNsCjZClI+fv31VxOCpWBZu/SkAqYOR11QQJOZ9jUxXHHuz6F+JkVRsi9kO1AUP2fOHGska0K6GG3Xr7nmGmske6OCRVEU34g8JTHrfpfYgxsl9vAWCcqRV4Jy5pOg/CUkrFZ7CS7f2HpgAGDv66FN7r/N1r66//KXDLx9TYKYTbMkZutfEndspwTlyi+uiFMSXKyyhFZuLqG1O7ofkQWEmKIoio+wHho1qtlh0VUWbGahYP6yOypYFEVJkpiVP0jUyl9E4qKtESfuKcQtCEKKVZOc171sjWUcvu1rVfe+vmKNBSZxh7fKuTlD3QLlpEisl88SEioSmktyte0nwaXrWoOKoihZFxaBZkFn1lTLDtAM5IUXXjDNPbI7mlugKEqixKz+RaLXTE1AAECQSFS4xO5bLRHfP+rWBLHWePrj+76ukYgJj2ToviaG69R+OffHu+I6c8S7WIHYGJFzZyTyzyHiOhbfVldJPbNmzTLtjBVFCTzo8ElHrewC6W+sH6OoYFGyELQNpVCNNryKf4he8o1Er54srugIayRxXGePSsQPT1pb6Uuy9zX8WIbta2K4Dm2WyN/fFJdbjPiE+/NGTh8gcfvWWgNKSmHdFFanp0OgoiiBR8eOHU0LcQz57AALT4aGhlpb2RsVLEqWgdWpWdGWDmBK6nEd2yHRm2eLKyrcGvENREvUP59YW+mD6/iuTLOvSRFJGph7v5KDK/K0RM7+wNpSUgprLNWoUSNbLhKrKJkBFm2tXbu2+cvqkPbGorOsEaeoYFGyGDlz5rRuxcOCcHPnzjWLvvlCdHS0WYSKf2127txpuorROjE7EbXiR5NylGxccRKzbYH5N73ITPuaGLG7lrpFl28RoktwxUrsjkXWhpJSWEiW1eiBSMuLL75oVse2V8P/6aefzCJ1LDoLtDX+5JNPJDw83MwzrKj95JNPyrx584zwoSvhSy+9ZFqV9uzZ0zxHUZSUc/nll5v11FgUeteurJkOy/oyt956q+lsqsSjgkXJsuCZsA0JVphmYmPFetZfGTJkiHnM/v37TceRvXv3yvz58+W7776T7du3G08rQmfmzJnm9kcffWRaDGanVJG446wrkbIOVEHikrg9K62ttCfuOBetFO6r+2npua+JEbd/rUnxShHRkUbwKP6Dc57VqAcOHCgPP/ywREVFmdWzR44caeYRID2F6C6eXxajvfvuu80ikhgba9euNc9hXmEFbtaMUBQl9dx7773mnKxVq5a0bdv2vJMhs4NDhPVYaC7A3BEcrGa6jXYJU7IUrHZ79OhRI0gmTJhgJrM6depI8+bNzYJM5L9yHwu+YXRs2LBBFi1aZAwTjAnboMArWrduXfnqq69M/ii57eXLlzf3ZQtio+Ts+N4SFJ28FCsbl/u/OesPy4g1OSQkJMQaTRu2b94oc59pLAVypnRid0lImfoJdg2bMmWKPPXUU7J+/XoTwZs+fbppNcligRipFGnjOV+1apVJSWRKveWWW6RkyZJG6AIXV55re+k53jB0MWSdnJs5SGJ3L7e2kglTeWgOyXP/N9aAkhJYn6l3795y0003yenTp42j4+TJk0aosDhkoUKFjIBhfPTo0dK/f38ZPHiwrFmzxvyuXbp0sV5JzG1egygN3X4URUkdFN0zB1PbAQgV1inh/MPQf/PNN805nNlgZfv3339f8uTJI3379jVzBjD3VKpUydToZndUsChZCqdgIZWLKAuezZdffln69etnJjIMxYoVK8q///4rH374oXkOxmSZMmW8hl9z5cplCvwwRrM6ixcvNnmzP//8syx+uk6KvTsuCZJBv66VYbN3ycSJE61R/zNgwABZuHChnP7sNglO8cKQQRLWoKuENb7T2r4AF8b7779fDh06ZI6h9u3by5133mlSfzBUu3XrZv4OHDggffr0MQLltttukx9//FHy5s1rPOw8jzQhthE19krGbC9ZsuSiXOxzMwdagiUln8Ul/x0Oly+O1Jarr75aWrVqZYxrJXk4BQu/5RNPPGG+S85/5pQiRYqcn0O+//578xs+++yzJkJLw49//vnHeiWRU6dOmZQxxjlOFUVJHZ6CxQbD/r777jMdxBAxLVu2NI4i5u9A5NixY/L2228bhynOjAYNGpj95briRAXLBTTWpGRZevToIc2aNZOmTZsaw5vcdECA0NccrzjGh133QiSFyIpNdjEwZsyYYXL0EWzkzTLZE3k6FpRyYzcoNKdsiYgXeKTlkXbn7z8EJwY5ka+zOUuY90oR7n0NqdzM2rgY3ueqq64yogKjkwgcYoDIHR6wK6+8Ujp06CDVq1c34gk++OAD810+/fTT5kLz3nvvSdmyZeWxxx4zHkAEC/uMUexZOBpSspZ7Vg6ztpJLsOyILmTenwgAqYz169c374thTfqjkjR2aklERISJrjGHkApKXRtChaYezCGIFCJppKUAaaebN282xwVC5Y8//jARmaySqqIogUzBggWNs+3s2bNGzFB3SiScKHipUqVMqibzIudoRvDbb7+ZuZjrCc4qrhnMy8wbR44cMY4NT7GiXIxGWJQsBd5sIiwff/yxWRmW4jwmqxEjRhjhQqEeuecYHhiTeLxJ3YFPP/3UTHDdu3c3QgZDBC8qnlXSPzA6swIYYuTHMrnzL0Z4165djUeZyEG7du2MoTtz+FMSvWqSuKIjrWf6TnDRytJ/5hnjOWJixsAnv99fsN9ffvmlEVZEN3bN+FTCNk9N8b7mummgteUdjNWwsAtCgtziHDlyWFuXbnN8YdTaJLVtQ7ezc3++J3GnD1kjvhOUr6jkbNdfHuj3homUde7c2Xgc6eHPomP8kW5gR1/4FwGlXID6tVdeeUWaNGlizn/SNEjpwsjgfOH7IiILjCNamGts5syZY9IHOSZJEyMax/2zZ882x3/Dhg2tRyqKkhISirAkBNduVsWnaQ7zoh2p4LpO2jfzcJUqVaRevXrGVuAcr1atmhQoUMA8zhc430kZZv6gHpbIOu+Lk4jsDK4NzPk4snCAMDdTG+cLGmG5gAoWJcuAUCGPFZh0aAWIIMGLfeLECeNxoZ4FOOxfffVVY5A4YULDyCbNp0KFCmabon3AwMusBXBMorZIIXXFFij8a0eYuAjgHcYQI+pS1T2Jh3/7kNsaP2vu95WgnPkkR4uH5Ku5m+SHH34wHq/ixYvLXXfdZTzSqYX6ozZt2siYMWPk9ddfNxeLbVu3uvf1Yfe+Jq9TmL2vIZVbWCMZT9S8ERKzY7GpI/KZoGAJrdhUcrTtZzY55rkoEjHEs8cFGLZt22aEiy1iOLY5rm0Rw0Vb8Q3qj/CO1qxZ0xpRFCWtSa5g8Qb1hzgXcHhhM5AKTq0lIgPnEyKGuZGsDCI3XMMARyapXNgP3EaMcJumG1w3eV65cuWMc4t/sTeIwhOpx1mUElSwXEAFi5Kt2L17t0ybNk3OnDljUnmIJGRVmIjtKApGvS1S+NyeEK2gSQGGKxMvaUsQd2SbWcTQ585VGM7VrpYcrR4x748XCZHH699+++0mxYZ1LlIDaWDUEpCbTPSGiwyh9dTsa6AR8V0vcUWctLZ8wC288twTX9APXNwQ7aQ13njjjSYVAc+/J3gA7egLIobzw46+8C/eQOViqGkhT/7mm282OeiKoqQf/hAsvkAmAkKGuRTxQpSddFDECE4+BAjZGaVLl7aekTaoYLmAChYlW2EXyGLsPvjgg9Zo1gHD046kkCdrR1EaN25sPeJSBg0aZDxN1FrgEaLA/CJYEX7y8/ErryeyXklQnsISWrWVhDW5EOomFE43NiJVo0aNMt4qQuMphW4wdIEhhI/niqgN0Rt+U4PP+1rEva8tL9rXQCPixyfd/zuZ+Mr9YblMzUueez6zBi5AwwmaABBhoeEEAhLBSE53QhCJtKMv/LtixYrz4sX+N627vgU65Jtv2bLFiDltOaoo6Ut6CRZPSJcmuo9Th3mSzqFEWBAvrPeGE5SUr40bN5psDtaI4bpKbSyOURxrZH0Q/eYaWKxYMVNnyL9kc3DbWxqaCpYLqGBRlEwMp68dReFfJkY7koJRnxQUhiMqKEbkOQ899NBFbVnPE3FCzs0bYdZmcZEiZtKVaGLgnj7C8khwnkIS1vAWCXELFieIiqFDh5o++aTsEYqnwB/hmFxYjI+oAR5umiYQhqewmbolXv88Pu1rN/e+Xm0eHshEL58osdvnS1zEKfcGqYnW5wjNJUG53QKxwuUS1uwB81hv8N0gXFm4kPbLpIkR7aL7lS+QHmGLF/tfDHVbwPCnqzAripJepLVg4ZpK5y6uURTC45zA2cO1DNFAwxRqYwFnGSKFayjzIH84MRApRGKYPxEvvCbCA1FDpIZmHDg+GKe2xk5FI90MpxyvS7opdbe8nwqWeFSwKEomg0nNFih4zO0oCv8mp40tXVMoLsb7Tq0Da4TwmonhOn1AYveukbjDW9wbcRKcv6QElagpIWW9p9bRTx6PEhMyzQ6ee+4509KX1q/2miS+MG7cOGMs81zACMe7RTgej5c3z5TZ133ufT201b0Rm+S+BixxURK7c6nEHdwcL8DoalbS/TnKuy+aOZIWC9T7UOtjrzFEah5RFoRLSqDGyxYw/FEf44zClCiRio5tiqIoiZAWggVxQqo4xfIs3Ej2BeKDJhnU9ZHGnJwi/JRCFIfCfRa45o9rPQtYU0tDsw9armer9eA8UMGiKJkA2qrakRS6kdgCxWs0xAfoBEYXJFKqACOT6AeeHX/yxRdfyLx580waFx4qxAUgkujA5q2uwhMmblpQL1u2zGzb4oUGAXSCy6g2lZkJ0haoTbI7mbEgKt896WItWqSu4QBeSGcUBtFsR18QMXgHFUVR/IG/BAvXjW+++cY4wRAkzFcUx7PIdCBB+hkt/FkbjTQ0GgBwPQzU9WXSEhUsihKgUPeBSOHv3Llz5yMpLIiVGqhToc2znUZFuhAtHu2Vdf2JXXi/evVqU6TMJMtnAETTJelcHrCGBaF1ih1tqMehQxgXHL4bz9XilUsh7cAzFY8UAwrySUGwmyz4A34XO/qCiOG3c9bAkNutKIqSElIrWEj3wulF5IIMADqCZqYlC8hO4PMTccERSHq0vcZclgfBoihKYOCeiFx9+vRxlS5d2tW0aVPX22+/7Vq7dq11b+qIjo52FS1a1LVu3TprxOXaunWrq2rVqtZW2uAWHK6oqCjXrFmzXG5xYo3GU7x4cdehQ4esrUupV6+eyy12rC2Xa8GCBa4rr7zS3H7mmWdcQ4YMMbeVpBk+fLjriSeesLYu4BYr5nvesWOHNeJfdu3a5XIbGa7evXu73GLFHINu8er64IMPXG4hZT1KURQlab755hvXvffea20lj549e5rrh1usWCOZl5iYGNcnn3ziKlasmGvs2LHWaNZGBYuiZCDh4eGu8ePHu+644w5Xzpw5XR07dnR99NFHrn379lmP8A979uxxhYaGuo4cOWKNxNO6dWvXnDlzrK20gQsEQgMwWJ2Caf/+/a5SpUpZWxfDRenrr7+2tuK5++67jfEL11xzTZa48KQnHGcTJkywti6AKKxYsaJr5MiR1kjawTE4adIkV79+/VyNGzd25c6d2xz3b731luuvv/6yHqUoinIpKREsZ8+eNdeL77//3hrJWjz44IOuvn37WltZF00JU7IdJyNi5ExUrJTMl0NCQ9I/lOrLIo7+hBoQal3oTOKE0Prvv/9u8njTkscff9wsrkf4nVW/WcyTdrs2M2fONC2V6fhl8/7775s1QoYMGWKNXFhbhEJEoCiSIkUK8BXfoYUmaQXeijf5jVhcktqW9GpfzHoHzhoYzgnSHu0UMv5NrBWzoijZh+SmhLGGSvv27c3cQveurMqwYcNM+u0zzzxjjWQ9VLBkcmiZxwXehoX0yMekzze5mkDRa3ILX8lDp81e3bp1rRExnZ4wIjPjYnKr9p6Rj/7ZL0t3n5L1B8KldMEcEhPnkmJ5wqT3VWWk15Vpu/hTchZx9Cd0PmFFf7tg3Qmr8tJqMS1EkhO78J68YaAmBSPVefFwChTa75Kfy+J8TsjXpSXkgAEDTN97vj963ivJA+HqbIDgCcYAtS0//vjj+Xqj9MYWL/a/1L0gXGwRQ8e5jOJw5HZZc2SGHI3YJeExx9zzSJSUzFNNyuWvJw2LpawJhqIovpFcwcIc9r///U8aNGhgjWRd+JylSpWS3r17WyNZCxUsmQi8orQUPb9IngWGHt5S2uHhPbXB8MMb7euaCzZ0i/rhhx/kjTfesEYuQEcNDFwKqTMLj/+0VcYvOyjHImKskYsp6hYt1Yrlkl971pMS+cKs0dSDoWVHUnxdxNGfIBAwOllA0BO73TAroKc1zsJ7YO0Xjlc6hTl54IEH5IorrjCTLi2LPWFVYV6LjmbpFR3KqkycONG07/z++++tkUuhSQLC4LPPLl2UMr1BcHM+2SKGY8FZyJ9erT5/3/me7Dy1XKLjWMzTMzrLpTRIWpfrLfWKXhc/pCiKX0mOYMFRxrpdRPWzAzhDaWJDVgUOyayGLtObCSBV5r777pPnn3/ea4coezVqp1gB2o126tTJ2vIN9CsL9Hl2jGKV8n379kmPHj2MoUi0JTPQb/I2+X7FoQTFChwNj5Z/d52Wph8slyNno63R5MN3h0DB8GZRQyIbGFKkPGGsEyFIL7FChALDzptY4bhA/KaHWAH62BMRIWIHpIjRpcwTIjGIGW8iBAFNNyt7jQ+6XiFulJTBWiysYTN8+HBr5FJoo0kkBo8d33dGwnmDwGWfWHCN44HF2zi+r7rqKrNKNB3oEFdp1eb6242Py7YTC91iJdK95S2VNH7sn/1fyfpjF0cHFUVJf8g+wQGbXUCksLo+LeyzIipYAhgiJqyVQboMayZw8mFAeIIHH++9J6yqmtxVqCdNmiS1atU6nyZE3QALDH766acmjQfIB33rrbfM7UDmkR+2yDdLD8phH0XIzuOR0uT95RIeHWeNJA0RLKJOfP/k/LMYHwv10S8d7w5Gli8rzvsTjhUmLHuRRU84ptLba47BaaelYVyS4uMppkhDwiBlbRVnG2MYOXKkiQrZqGBJPeQ84610tjr25KGHHjLeSVois/hkoMDxQ9oD+4/zZM6cOaZNNusVsJo/ERgiyx9++KER6Knl642PyrFze8RloiiJEx0bIfP2jpHFBydaI2kHn53PfOrUKWskcXBupTV2JFVRMhrbwevNcZcVwUlKi+OsWvOngiVA+eCDD0x9AxGNGTNmSKNGjax7LoXUDk/BghcSz2hyYcVzCqRtiBSwmGCfPn1MwTNQJ+MskA5EFvx3Sn5deyTZEZM9J87Jfd9ssLa8wyKOiEhSUfguiFZg2LFmCAY3nt7krDjvT+68804jCBJaV4Ni96ZNm6ZbpMfGKVjAM8rCeiwtWrQwYoW0L6IyNmwjnIki2vBa6f0ZsiKkmPK9JwbGP6IGQc53TgpqoEGNHlFo1uchmscxc8cdd5gGAqxazSrVHFuDBg0ynzk5zNnzsZyKujRFMTGoa1niFiwRMSetEf9C/RGrXrMGEUXFNK145ZVXzByUEDiZ7AhlWlKsWDGThkN9paJkNNThElHO6uC4wBGZlZvQqGAJQDi58DBzsU3KmGBxQS5CnkX1eBRSUjBLZMBTnXsW3xYsWPCSjlOBxnuzd8u+U/EpSMkhxuWSKeuOmk5iTvieMaqZ/Eizw2gj7ero0aPy+eefp3jFeX9CZIe6A1L6vEHBOveNHj3aGkk/iIY404o6duxoIohbtmwx6T38ywKWQG0N3nzEFyBsEDg2rPSPKNPOUamHxgfUupFulxSvvfaaEQSIFv4NZJgTb731VpPyRlSBznykQCJ8qQHkc3O+cJzx+e10xUtxyfpjsyTOlXzjm+f8e3CCteU/iKaQBketF2nCfA7STXfu3Gk8rN4g8ovgT48F8sqUKWPEY0L7oijpCU5Xrj0IadKOsyJ0BiPCzPyWlReRVMESYFCHglHpWVifEHjaPFNjMEwpusIzakNeN4XMFGUhhMDpKeWEZhsjkA5jNoT3K1asaPLdbbi/SJEi1lZgsnb/WetW8skZGiwzNx03kS1SYbgAYzDjuaBIGeOablapXXHen9hGPl7lhMiIVDAbzwgL8J1iaCEEKQJ3wueoVq2aMcowtnr27Gndo+lg/gZDFhHuWbfmDSK91LIRcQkEke4r+fPnNxGJgQMHmojouXPnzPlC1AjHA/c3b97czLtTpkyREydOmOftOLVUcoSktHg1SPacXmPd9h+DBw82c3uTJk2skXiI8hJZZY53ghjjOc4IJWMTJkwwTQycXSZ9gRXC+c64jiD2vMH5SWF0Zql1VLI2XB85HkmX5rpCBDYrQEYHTggirdh3WbHQ3okKlgCidevW54tIfYWOEHicSVMCCr9J+8E4tSG/m1QB0sy4OJE6ANQF8HgiKKQ24ckmorNjxw5zP9j1Mc6LGlGYQG4RGB3rksgY3+tQPDkdES23vfuDMZJp+8v3xO9CBKBOnTrWowIDDA/EIxMXx09CYJjwu+L5zAiITNmtsm0QLHR6SaiDCyksCBnPxhGaDuZ/XnjhBVOcirHuC9S0cX4EBweb1tmZDYQK5wtRI9pnI2BwQvB53n77beOkIErzwhtPy9mIlBewHovcLWdj4tcN8hdEezG6PKGuB3BWOaHph2cqmP0ZiVR6tg9PDFKGia4jbnE0IF4Sgv3h8YoSCCCicUQQTaYOF0Pfuc5XZoFrKOcfmS4IsEcffdQ4kbJDxoEKlgCBzlJ4wZy5+75AuJNF3vCcI0Qw8EgLsl8HcUGUhEJ61qy45ZZbTCE+Jy7GK88jvxtj9rnnnjMHv7MwE0OTHGk68tgsXLgw3TpMpYSwkCA5fCb56WA2oSHu02LrPJODTWoehbt4aLjoY+Tw2emaxsX60KFD1rPSH6JreIbxdPL7JkZGRldsPKMsiGOOR1LqEoJGD0RUnCJaIyxpA8Yl9R6kOfoCxe2cH5wLzBuBDhd6RDP1dwguHBA0FOE4xHgnpYIufxgCdvRo/779qUyxCJKwYP+uc5QjRw6vXYCIrAPXBCdEhPlMTjBuMHZwdiSUQurJ+PHjzZx37733mm2cOTTK4BjAseVZG8Rrp1XHNkVJKVxvWHCYVvs4I3FScD1BgAdqdy0c0r169ZKGDRuahkhkf9hpoOx3dkEFSwBARIRUMIqhUwLF9aQ64JEmlca5JgGtbVlLAVFD3jaRFi5eeLUprqc4n3FOYIxvCuw5MYjKAOKHtBy7kIvHc+HPqAXlfKVx+fzWreRDStigx26T+vXrG5FH6gXhVjzQfBdEWWgdyG2EId8ZXhuMNiZAvju+z7QEo51IHJ5hTwPFE4QwvyNRtIyEiwL7DXxX3bt3Nyks3locA557hCLfNb+FjQqWtMOXInwnGPNEHzkPmHcycr2DpAQJ4h6RRcMMhLPnNucSggVDm+8BR843n/0keXNdbOwnh8K5ykqOYP8WweId5pzwBEcTERPP6wiOF2dkExArefLkMVFOe/7A2YUBlBCkgeHUApxgpNUwNxKtInfeU+hyreG+jIa5mP3mGskfjWzslD9vEI1mrkyPjmopgWswDihSAH2BcxJHW0JdI/0FXTGxKewFqwMdros4whD0XF/4fkh9x9bhHKPREJkL6Q0OYtKgEVSkqSJQmMNIv7zuuutMSj5RVBpbZDd04cgAIC1XHLdXwif33E7lYsKjAM15P0a3M92JPG9Cps5iflIBSB/gRGK18kDmkwX75blft8upc8kvlm1cLp8sfaaxyfkmdYLuG4SOv/76a68r0/N9kpaHoHH+y3dLWgR/fLf2vynp3uYE8YlYSqwdrQ1GhC1M/UHc/nUSe3CjxB3ajLUqwflKSFCxyhJa5SqRkBzWo7zDJIyYozU3xsDHH39sxinAp2jw2muvNds21BxgUJEShgFJfQHPcS5CmRiX7mtx975W8WlfA4qT+yRm13KJPbxFxBVLHbiElKwhIeUaSlDhi9de8gcUpmJ8sPBocmB+wONOO+G08PphdGNgJPTHsc58ldCfsw7PE4zvAQMGmHOXNDGiz2fPnjXz3Lj1PeVMdArOn6BgaVbyDmla0r8dijBYiAaRkkdkHvhuOF8owvecoxD+1OvY8wViDqeUnR6DQctrYgx99dVXMnv2bCN67BQzQJDQnh2nFnMbUWdgfmQ+Y+0kBKCzWyVOEs5p6gAzEvaJ39ROI6U9Os69xDo5Mk/zmZyZBb5ARBjhR6fItITfkDnR1yJy5kyOGcRaWoJ98cknnxhDO61I7sKRLIBtO2B9gd+dNErsIpp1cG4xD5CGiXMXxwwCB0cw9b1cX3FycB4kJtA5xxDPXItxrOAcYFkE2q4zd7IMBaldvBevgxOb85Pjl3PTV3C08DrJXdIiM6CCJYMhZxwVn9bej+xInYFLZP3BcGvLN4rmCZWv7qkt119WxBgvRKzWrl1rJhoiAhS7+jJRAgYUF3dPMYMn1ylg7H8TM6hsCGfjBfa11gCjgYtnaiNirqPbJPLPD9wKN0JcURHuAUeNUGgOCQrNJWGXdZTQhrdag5fC98jkizh2euHw0BNlRIjZ0EEMw8tuEAGIFYwBLhKJGdMX7Wu0e1+drV7tfa19rYRefps1GLhEzf1QYt3CyxV1ViQWLznpSe4pOzhMgnLmk+CilSTntUkXyycXjOFmzZpdVAvnK6Sm4tjg97QdI77AeeFNiNh/XNy9CRH7z5fzxxOEM0KF4wyjls5ieFfJEcfAM485/Iv8e2CCtWCk75AK1rveePcv5v9EBrv2EMMNoYC4QoR4FuIDjhMiYAgT0slwDmCsYxRhxOMwYG5iXrHr9Ihg4mBwwjHBeYmxj8DDyKITGAaWN8FCmiqOLwy7jIR2/KS92R5p9p1IlG3Q0WyGz8J3QXoQYHhzTbZFDkKEaDvj9mOA4xLDEwOd7m0sfEvECmFA+o4T3oPUHs4JUq094Xfifgxifg/ek98Zo5UoAMYzvw3zJ9cBIkHO34jPVa5cOa8Rd4Qtr8Pn4XM71wbjHMBhiuFtn0N8J7QHJ3WQcVvc4f1nnM/mTJXEAMcQx8FEimhmFizeIAULwY+4oJEEvwvnAr8RERnbIYhY4Djgu+G4t8cRNMxfjGND8H3z3fI7cE4yf3FskTWRnBpmb6hgUdIMjDUMMV8NUMV3joXHSJU3F8nJyIsXIUyIEPf8+8q1leSN6ypaI2LqVbhI2Dn6XJjxvnKhQMCkBLyVTgFj/8vk5xQw/Muf3YoUbyZRMl9rUbwJgZTgOrFLIqcNEFdkEvm9oTkltFIzyXG19/omDFKiiXiaPKOJTNyEvDEkgAs/F24W3nSC4cV3Qrc2byRrXys0lhytfcvfT3fc03L4tw+KILiSnKGDJM+D441H359wDNJymu87uRCVJNrC+iB2FCApQcJ54SlCnH+pjUw6wfhAqGAEIlRsQc8YNRlEMJ38sOUFORC+ydpKmpCgMLm+0vNSqUC8wZtWYBAhODifqC/B+PEGhhuGJqLGG6R7EYXntTC4MIg9z73EIDKDUWvX/rAvpG7279/fbGckrFPGXI2RTZQWJ44NndI4vpmXEFvMlQgcp2BBGHIuIFR4Lo/BacJrcbzQ4pu5lscjjJi3PAULxi3OLxw1RJwQlghAGwQncx4p3OwrjRX4DaibRMhgpiECeE9EtVOwYPzy/RM5Ik2M9/c8fjkHERVEzuy11oi8EQ1h36iH4LMiWrne8Hi+G653iCBaZzMXMP+yL926dTOigd+cz8rrsM+sdUSNa1YTLL5C1JLrG3MdkRnOS44t0i/TS0CoYFHSDBUsacuJiFip7BYtZyJjJCaRI71kvhzyxDVl5aX2l6bYcKHCiHF6lBAttA/lQuEvQ4rJzlPI8EeoGG8M78P72mKGC0li8Hi8qs721skldue/EjX/U3GdO2ONJIH7uwouXkNy3XDxBRPwuDJxU+fTwqNOYujQoaaJAJ3sAMPLTslxwoWQCwKv4dlW2p/7mtGEj7vbLVR8E9o2eR6c4J7RU1MgfjEYQhhmieX7O/EmSBCWvA6/Z3oKkoTAmMLIJPqJUEFU2WDUYLiREuWN3/57R3adWSmxcYkvRhsWnFu6VHlZyuRNn46CfO84JpgrMLZpnODZFQx+//13U5vhrcMYRjjfP0Yr6a8IG89C/YTAoMZ4JF0GYxuPPelKgdSYhfmUCAu/LaKKBgIYk6Ta2F0zmcsxzPkMtmAh9YdIL0av8zFcDziGiFZxfnAdJ+2Kz1yjRo1LGhngaELAEbUjCsE86LmWEVFJUveISoFt8NomGiKBtalYp80pWBAn1Gjx2xKhIWOD/XFClJ0UZwQNheX81vxGXMO4zTzL67OwKim7pMLxWal9QdRzDUGM2N8VEW5Sdaml4rn2ON9bZk8JSy38XohDfnOuaVy/2aYO1q4fZozjBJHH+YOAxYnCOcRtHo/gQPTiQCAqx+MZY07GsZdQTaoKFiXNUMGS9nCEPzB+o/y27qicjY6Tc+4/O7MmV1iw1C2dVwbeWEXa1fCe08zvwySDUeCEPFcEBJ4xPF9pBV49JihEilPMMJEx5hmVwcPGBQSRk6pagthoCf+qe/wXmBxCwiRH03sltPaFvFsutHwOLsZMtFy0nTBps790OiI/myJoLnyecHEkEsUETirGeaMqLkbCv6B7Uer3NaOJnPqaxB3alOyPEly8muTq/La15R8wcmmKgDc2pRESLtwYYsx13mrA0gM81wgVRDBCxTMnHAMU45DjMDGWHPpRVh76Vc7FnnX/PHaqIT9UkIQG55TcoQXlxsovSLFc8ZHCQANjldSttIR5CaMpUCDdDyEHGPNEBJgXMdDpUuituN4WLMwvzF12sxAbhAlzracoS0iwMK8NGzbMGJGk4hFp4fWdYFRzbHKsgq+CheggTRQSa2vvFCxAyh91SNRJcH0j/ZN5F7HL+zBPc5umJyy+ipOIbQS/E5pWIPp79+5ttnldnEnZRbBwPvFbElEmXQxRwu9HpBK4FhOV4rpFKh/ikIgLxwHnIccCIoU/5h7+mIsQNPwx5yI+iKRyDFG7yXWP5/EdIC5xXBId5Tvnd8RZkVUFi3YJUy6CPEu8Ak7I3U3qQh7I4HT+8p5asm9AC/nxgToy7OaqMrRrVTO26rkrZMnTjRIUK0C3ELxRnoXeGF/k+jJJ4YlD1Pgb8o7pdETkgXoC/iWflt+IPyITTFp4wbhN/isTIV5SLtR0QMLoTMkCbtHLJ6bMY+8WOtHrfrc2xHTmQXCREoEH19na2IYJm8/HxZMLHukNnvD9Isp4LL+Fs3NY9Iof3LNZ6vc1IdLLr+M6vEVcpw4mW6yA6/RBiTtwafcoX8Eo4VznQsjvQB0HXla+a44pjDfSZjjOMPI8tz2fz9ouGFi8Dhdf0sN8baHrLzBU8IhjoFKQznnsrYAVYw4DMCmalLhVetT9XNqU7yM1CrWUCvkbStm8daV+sU5yU5VX5YHanwSsWIG0FisQSGIFSG2ywWlC9IjmAdRrUPdhixGMT+djgcgFhqj9GMQYqVEY+pMmTTo/L5B2hqFJNN4ZibchjZeIDOlgCT3GE+Y5Hme/R0Itd3EKOJ07npEbT7iWE/VElCE0MK4RHhjBvB/1mhjXnPdEVkgXJE2MaADfBRBV4jPz/TjXaMsOIILoOodwRCwgghEWd911l/md6Y7HNZc/RCDOOWwIxDHXZ66BpOTx3fH9UuvCXMq/bDOO6EWEcG3nefxOXBN5Pa7/OJA43oh0cT/OIoQc9Us480gft5tsZCVUsGQBMAIo4vNc4ZjQN554X2FSJl8Xr4ATQpAYwEy4mZmcoUFyY50i8uQ15eQp9999TUpKjeK+LbY0evToBNeaoD0ikwVeLH/mbDOpkaJC1yVvYBjgVcFrhjDBUESYMNGx3apVKyOo8JBzG48LHhg8ZfyeTHqJtTGN3esWYM6C9WTgCj9uunMxaWMIctEDZ2tjT5jYETcUKOKV8oTn2e2MMRgo7uRCC7F7UrGvESfiO4klACIRQw9jHPA4sm1fvDk2+G7tz8XFi/20U2/wlBLmt728bPO72fU6TmJ3rxBX5ElrK3m4Ik9J7LZ476w3EhIU7AuePy52GHR8PsShLUiYEzBuOF4Se35ikBJGu2G+A/6SMy+lBKKfHPOcP0R3OAYppvcGn4O50jNNMSFCJEzqFOkgHSs+4xYpr0u3am/JNWV7pVsKmJI8iBYwV5AORpQPEUskhIguhj7HBdEJDHecUMyhGO0Y6KRuYSSS/sRjSIvi8VwLOI+Za0kFoxgdgx8RRLoZtR9OMEBJj2Q/8H5jTNKExAZRgujnPnsRaIQN70uKGtcYRAI1JjjIeCxRTYQXxy/nJWlcGMTenCsc26ScUVtEZIXPRLE4dgORR4Qan4HUQJxfGNg4xDCYeS7zHfMc3w/fA/Mut4nkE13gusfnwwbh8zMHZiX4rYh+IQaY+xB0bCP8+F6YZxAOCaVppQWIS44rhBPXTX5Tsg8QUBy3/K6IWa69NHzICmhKWAbjj5QwCuQopvM0qDFaybH1BSZBPNwsAOaEk5IDn8mM96FLU3aFBdO4gHCBSgi+c/KACVfbYeHkgmGJAcgFkwkpOXz33XfmWOKi4QnpMJ41MvzLb2+nkzlTy0rOecF6ZgpwT6ZR5VrIZfcPNBdhJ4m18SacjRfSs2gUGMdw5mJqw2SM5/GValzkUxBhAfe+htbsIDlaXLquAd40Ilx8Bn57ogV40rioc+Hmt+ZCxQUBYwFvI4KQdqNcNGgkQPoGnjcMJIx2jAMMF7Y5/4kA2EROf1Pi9l0wZJKHS8JduWRp2bsvSdfij+/cmarl+ZdUrRP7iyeP3y81UOSLwYPAt9f18BcIZOYrDCzmLs86J08QYfwW/A5K1oR0GgQza1cAdQHOlsZ2RyycJHi5qctAsADGOs9ljkEkYODjULHBaYGXHUPWhnkVZwXPc8Icgfec1B4iO7bzBZjz7c6JOA6Y54CIDvuN+EbI4ORADNhRahw3NCzBjGNfMGKdxf5OMGYxvBE2RG9sEGi8DnMaIobzHDHG6/E9OZ1HzCE4Mxizu5Hh6Wd/+G5I/6RWEfGWVqRnShjzOXM512Icw6TfZXTXu+SAQxKRi4OS6xRRGm81bJkFFSwZTGoFC5MFEwceFiZDGyYf29jyBVIm8BqQCwukE2GcYcziOcGQxBDDA2t3gslucPEg+sSknRh8Z3jFuIgxqfoS/rdhgmHCx1OFhzu5cMHh/TGWfQUxagsY/vD+rVi2RDa/20Hy5krZejtMK5OW7JInvt90SeE8nkL203OcUDopiVzovaWVYCwTyfB83snjR2X/yG6mHimlhFZuLjnaeO+KhOBAAGIMs294T8k/ZxvRhUjEU8tFFGOez473Ec8X6Sdssx4F547tVED8IGjt883m3Ix34iNbKcH9PsfPRknV56Ybg4c0J4wiXwVJUmCwEc2zDb/UQooWOfF4dVObRsT8iVCxPZ9EfZKCNDU84gml2iiKEnikl2DBMYmjisWNiTRldrA1ud6QscFnyoxoSlgmx06zcIoVwHNI+NpXuOA7awJ4TTzyGBV2xxk874QbsysYVaxTQAg+MTCamFAxSvE0OXvlJwZeHGpW8ISlRKzgASLikByxAjyelCXylBEuiNWwnLklX6n4FKaUEJwrv6yNKGY8dbYQsv+I1OFZ9xzH4853iweL9AXP+xHndE9xjiHuSpctL678KTfGWc8ktGb8mhvewEgnUmJ7TIm0kV5iR4iIuJBqYUceEKjsv91Clm1SlJwRUMSOp1iB4GKV3U+wNpKL+32KN77epHHhJSVaSgSIizXncmrBM8t34a2+KCWwb+Ra4wTACEkJzEfsF3n7NMVg3vNFrABea7vAWVEUBbhmIVBoJsDcmRXECmAPsp4PEUJaY2dGVLBkcgj3OVtz2hAF8NXoJXJCWNgZJsfrSG4qnmIbDEkMxuwMAg6Pui9F7HhoiBow6ZH3TOpBQtAbnxoOUndSAgWSGM324mjJAWMPMYoBSdoVucvkRrOaugSnMLQfEiaVm19vCpxJ/yHaZP+RpkNE0DnGH1ELhAzCCwPWeR/fN4YpYtAeI22M1b0xxgtUauTe1xROZ+59DS59ac1MRhBSuq4E5UpZtCEoZ34JrXCFiYjyHfO9Ex1iLuA8RpRS+O7LsZsQ5P4T6fKWcpgSEA3sHwIO4ecr9poQeFkpPOX8cabYJAXHGPNeQukziqJkP4iGU5fENTs581FmgnojnGVkgWQ2VLBkcvCG45V3Qo54QmKFCzv5ujacoHgU7H9t6ICCsenMRcX4dua+Zlfw5GLY+wo5sKTX0R2E4klPEAwYlgjElEL9ka8LSgI52uwT0RVSwDAAiQIwkdmiNKxBV7cF7X0hukQJzSGh1VtL23btTc403xXRExtvncIQKHiAEM0INxoFOOHxPM+G34CICzndrG0Q2uCmVO0r0YlAILiMWzjlSGE7yrBcElzeLdzcsBo5ETMKbIm6MU/wnZEuiEggCkF3L1JHkwu/FSmkKRXX3iDNjsgQtSekcSQEzgJarXK8cpt5Krmig+5GfO6UiHtFUbIuRM+pQ01tnV6gg0ML+w4bIDOhgiWTQ1GgM62B+gByuO3CcAwVCq7I70aQYAiS2oJRQDcgUpwoHsbDbhcaAqkW1Ko4x6irIAUnu4NXnzSf5BTqYlSTD0unNTzD1AMA3UUQDJ7NDpID3UGIPuBBTwpqBujsRI0Dopb94fkU2SMYOCbsorygfMUlx+W3SFDOvGbbV3heWOM7TcMA0tsoKqcw1c6b5VjjuKTQ1MbZyph0JmqvEHE2zg5hHLtEEejOQqoW321Q3qLufb01xfsaSOTq+KL5PMmBz52r48Vr7rA+EM4MhADw/SGYqZPidyaSRtc4Ll4IG+e5nhS0B2bu8Sccl0Qh6erl2W2PSAodeEhdZW6i+QdFvskFwYaApvOZoiiKDfMi1/SUNsvJbGAjch3NTKhgyeTQVhBPMx5sut2wbgICxa5joO6CVCHy5zEGMFCIlHBikhZBegcGDakeznazeGfpruIs1KVriNNTnp1JbpTFhrQrPMPUAuAZthdKTCn89vy23hZZdEIKD789XeMo/kZ8Ui+COAAiKxSGI8achNbtLDmadpegXD6kF4bkkOAi5SV3t/jV6oFUOOo5qFWgWBvvNjijLPzL9+CsPfCMstiCBYOTokGOabAFC6R2XwOFoHwlJHfXwSJh/DY+RH5Cc0rumwdLUMHS1sAFqBfiWCOq4oRjgXbNdC7imERAImIROMwjnPuJQbE6v4+/c6FpqsBvy+vjHGHfiKIR/SNtjOM4NU4TrVtR/AHzFXNuakU74rtfv37mOMepmNR55ys0sqDRRlpDZgaOI9LS6ZJIA5fMCqmpSTXUyWrQ1S0zoYIlk0O0hPQPCrsRHaQ5ONdEoBUiK/tiBDA5kp9J6hGFZHhY7VWJUdvkttteb4wWZ5Ew3ldEkL+9qpkVCoX5zuh/nlzwDNOKksYGCB8K9FNKYqlgdEFCKNA0AYGKgYlnnAUcnfBbs5gYAtYbIdXbGCEgQcESlMNLBCMoxEQqQqtfI7m6DrEG40FMICoArzZ1J7T0dAoWbwtFYjxzXGJcclEkIsWxSySIYnsgJQnxzXdp4/O+Vmt1yb4GFDnzSe5bPpDgkjUlKO+FlqlOGA8uUsEtVt4TyeP9MUCklLQwIlvewNAg4oKIJeJHW1fSrtq2bWuMMpwa3qBNJms0IXz8Db89xgPHL2kaOGJS246TJggIdtY3UpSUQL0ccxKdCnGg0NUwJdjzLW1zSUGiNhLHAt59f9SJ0iEwPdbe4PykiBuBRE1YZl5/hYwDUuDJOskOEG337LgZ8LiNASUDcZ/orhtvvNHa8i9u8eH66aefzHtERES43Iaxy22wutwGiMttmLiOHDni+uabb6xHu8z4d999Z57nxC1kXG6jxOWejKwRxcY9yblOnDhhbflGy5YtXW7j3dw+fPiw67rrrnPdddddLvdFzIz5ivti53Ibm9bWBVavXu1yX/xc+fLlc7388suuQ4cOWfdcyowZM1zXXnuttZU00Rv/dEX+OcQVPr6XK3xiX1fklJdd5xaNc8Ud2WY94mLcRrCrZMmS1lY8bpHt+vzzz1333Xefyy2qXHnz5rXuuZiJEye6brvtNteSJUtcbuPA1apVK9dff/1l3etyuYWa+ZwJYfZ1lnNfX0p0XwOV2F3LXZFzP3SFf9/XFfHjU67wCY+6zs0d7or5b5H1CN9Yt26dq3Tp0tZW0syePdvVu3dvV+HChV0dOnRwjRkzxnXq1Cnr3gs0b97ctXDhQmsrdYwePdpVqlQpV8+ePV27d+82Y/369XO5xZMrPDzcbKeEr7/+2uUWPtaWkp2Jjo52zZ0713Xw4EFrJJ5t2+LnBebPvXv3mttOeJ7bKDfXSFi/fr3LLX7Nba6rzHVOmHfd4sPauphx48a5ypQpc8k1ddCgQa66deu6YmNjrZGk4byYM2eOa9GiC/MB13u38W1tJQ7X++XLlyd6/dm0aZPXx9x8882un3/+2dpKH7hm+Woz8Tu3bt3a2kqcHTt2uCpUqGCum/6azwKVDRs2uPLnz++qXbu2NZI5UMGSwaSlYEkpCBcnJ0+etG4pnnz77beuu+++29pKmmrVqrn+/vtva+sC48ePNxcYLmS+wsVy48aN1pbL9csvv7jatGnjqlevnjHmk+K///5zVapUydpKO7gAr1mzxtqKvzBwsb7ssstcAwcOdD3//PPWPZeC2OEizmM//vhjazQeRB7fm+I7+/btc+XMmdN19uxZa8Q3/vjjD9fDDz9sLnIIbI5T+zUwroKDg83tlPLhhx+6ihUr5nrkkUdc+/fvt0YvMGvWLFfu3LmNiE0uHG8VK1a0tpTsDNc2RPiUKVPMdRfHHbz++uvm+HvvvfdcTz75pKt48eLGmeIEZwkG3i233OL64YcfjGBh/uS5DzzwwEXH2EsvvWTeo0+fPubPk+uvv97VtWtXa+sCK1asYF0819atW62ReEaNGmXOMZwOMGHCBPMeCBPmfOb+7t27uwYMGGDudwoWhAznDvM9zscrr7zSfE7A/hg6dKjryy+/dDVo0OASEQdvvfWWa9iwYeZxOCc4n+DTTz911ahRw3X77bcbB1R6ERcX5ypXrpxPc1hyBQu/J69boEABMxdlRfr372+cUNh12AqZCRUsGUwgChYleRAx8SZCnDAJYuxt2bLFGvEOFz68yd48fE644DDxABcTJtouXboYr7ivhIaGGq9hWoMBwD46wUvGBbhs2bKuPXv2WKOXwsWSx7Rr184auUCJEiW8XmCVxMGjmidPnvMRjOTy+++/m+OU17jhhhtcX331lREUnAfJhchtoUKFXI8//riJNiYFETcMs+SA13Tnzp3WlpKdwcnBsQpEJooUKWLmbuYgouVRUVHmvlq1ann1snfr1u28kwTBUr58+fOGM4IFoxeBwPsQ9UDoI0BsoWHTuHFjE0X0BEHB43meJwiKSZMmmducN0Q7yZJ4++23zRjOMyKh4BlhYQ5FsMDTTz9tHEXQpEkTs5/8Ea1/5ZVXzLgN0e327dtbWy7XG2+8YcSWTefOnc9nC6QnZBfYnzUxUiJYgMgXtxGxY8eONWOZHbJpmGsRe3akPLMJFq1hUZRUQtGhs97HEwrbWD+EVqpJ5eGzpgQtY+n4lVB9DJ3g7K5vbqPfvD594+k0RkcuX6AWhLVb0qNNtV1474QCf74T9xxkGjwkBPU+fG80knBCu2Rqc+xFTRXfYcFLt5Fl6tg4BpIL7TA5TnkNGk9QEE+zBvL5WfuFRhBJwXowtDCmjo7jly5lrK2TFHQHY00Z8uapx0oK1hogz94tWqwRJTtDPR2NHYCGI3RXpBkI8yD5/HZOP8diUvUYzF28ht3ghn9Zv4zmNNSL0X2TY5XHMd86oYMiDUQ84XwAb9cJ6lyoNaP+hX3j/GFtNM45rgcs+kszAF/hfOV12E/+qKehhs3JX3/9df77Aurd+HwZDftB7RznNw1D/A21wcxLdCyku2XevHlNI5iU1ixlFNSxst/8hnSPpY0xxxjHTmZEBYuipBLaFDOBfvzxx9bIBWgjTOE5xp2vkwTFzhjpFB1z4eOCasMFl4JoLpQU7VN0PmzYsGR1hKErHGKI10kPvAkW4KLABZeie2/QBhqDmBbSnoY134PdHUxJGVy4uODTkCOl0AqbgniadXBhx5jhd6UgH3HhCcX/HLsYa3QtxOhwLljrC7aR8uyzzyZaIEv3PYxIivYVBeh66TS4KbL21nUOkcGfJ8xF/HmDxzMf0+GONtwYi8A85rlYKw0gaH5jP8aGxjg4BOiM5wndETnu6e5oH9OrVq0yHR4xRhObD3FsIXSA/WebInNWPv/nn3/MOHC9coLQd35fCDvEViCAM4vW7Vwj+vTpYxY79jc0g+E7Yi5h+QGuVxwvtGB3fm+BBMcVxweiF5uD/UTocuywMHNmRgWLkmbQgcwJRk1yPECZCbp9eUZZJk+ebLoSsZBnSsC4Y4G8nj17Gk8dwoj1KYhI0LUtJQvf8Xw6yNA5Kr1gES66gjkneFa65wJKa+cpU6bIH3/8Yd1zAQQVCwoi2vDAO1HB4h8weOjcxgKMqQUhjAiyvb60sMYwoisdq0bjvcYDTdcxOtQ4PbfJpXDhwuZ44oLMecEaCk44vlgYM6l230r2gvbBdEWMiIgwcwjHJ3MrUWuuT7ZI4TrlrUUvEV0EPnM7x7LzMcxnHNtEGxHt9evXNx5tIvCeET4iGghvhD0dEHl/HF4zZswwCwl7A7GAt3zHjh1mXSvAqcWxP3v2bHPM0xaZFvBce4l02lEizpGxY8ea84HrEY/nXEX84FBCQHE9oeufk65du5ox1utgzS72jQwAG94H51pGQYSMawf/Mscg6vgO/Q0dQRctWmSOD343olm0dOc34RqG4wYnIOPpCb850eobb7zRdK1jf7iNk5O1zBDQ3KYDXVYgyP0DXOpGUNIN2s0yUWG0pQZWryclCO8HF3EmwWnTphkPJh4f1t5ggu3WrZt53KuvvmomSxsmNiYz0nQwBljzgMnZOTklBxb9Y8J2LmbIoYY3lpa1yV2dOjPAhYkJiwsi3yXtivGYpRQ8RnhG+OOCQ7tZPIK0BS5Tpoz1KN/BS0Qr4Yww4gits+94AgHPFZ51vh++MyJELAhpXzBJV8LgZH/53Ey6tP9kHAjR46W30zGU1MFc0KlTJ9MmO7XQSp3X4mJKqgppJrQSZo7CM3n77bcbQ8hfkB7IRZqIC63dgbmL44r5TFGc0BYdI5drE5FxIB0KwcG8wp/traeNP+LDBkGC0OH45TnAPEbUgvsAMcL1dMKECSb9EiOauc8biIcHH3zQpF7hmCJantichrChXTHRBRuu81zzMVgRFLwOEWlEGe/PnMlzaH9/3333mfdE8NiRJQQYj8ex4Fx3zYbUY1rSI+j4LHamAM4O+zNjYwRCu3D284svvpDFixebOYjrCd+tL1FkhB+/HalgvkL0id+ZlGzmPb4romZ8jxw3LDHBb8UxhWgl6kFki/mJ+3gMDj3+5bl8xxyHRJ+5viFIeV3EJa/LtZ/28wgRhCLP47XJtiAzg3nclwWkbbDRUpIWnGEgWJSMwx9F9xRaN2vW7JL2uk888cT59oi0fx0xYoS5TfEVhVc2FA3S+YcOJU7cB7NphZxc3Aax+VxO3BOby22QmtsUYftSYJsZoSPWo48+ajrRpBS7aNM9qZmCSvdEZcYpsqcri9voS3axPMcI3WQyCjrs0JbYxn2BN/+6J2tTIOq+wJt2x9CjR4/zXWfcF3NT9EihK98JUAxLtxrFv9AFjI5sqcV90TXFuPzG//vf/6zR+G5i/I50R+K3ps0wnZT8hVusmHmMVqu0c1eUzABdr0aOHGkK8e0OXErqoKiczmc0sGnUqJE1mjjOovvUwOu4RZOxv7DtaBhD4w8aPNCYITQ01DScYRsTnD+K4e3bdPBi7uRx9vP4l89CwwNel2uiP46VetolTEkOqRUsGAd0AJk6dao1cgFnD3hnlxBaObZ2dM6gLSHdmDxhvxJrOesNJorq1atbW/EsW7bMdCOZNm2a2cZ4xjjKimCMMbmkBPr7Y4gjPj3b9dLlyH5dHsdk5msryd27d18kUDMKjFSECcK5b9++ZszZYW316tVmDY5nnnnGbAMTKuNQtGhR0xWHY5X1ZRT/89xzzyX7nLdBWPN82iYjtBHtnq2obTgOWBuFOYaWq3Qds+eH1MB7crFP77UhFCW1cC3HWYWAUfxDSruEZRcym2DRGpZMDuFIcsMJf3riFg7mX0K3hBDdJ6SpCSAXk5QtoNMO+bje6iHsVJ3kQIqPZ1Ee70FOMGFjoJ6BokTC5lkJ0u3ofkWagVtUWKOJQw40tSqEkEnVIw2K34d8XCek6tgr2pNWw/dJDj9dwZJa0ZjjgMLBjIaaE9IpnCvbO1e853NwjHCcAiFy0ohIhwPyt1mtX+tX0g5y/EkJJafdV0hboFaLY5j6FdIaKIYn1ZX0SNIYPCGVgcJQUmHJjb/mmmvMb8sK9xzr3mqakoI0WFJBmOu+/PJLv6S3KUp6QfpWs2bNEizqV5TsjgqWTA5GKxf7xCY5DGHyWsmjxTj+7bffpEqVKua+8ePHGyPbzku1ITcTw5Hal+SwefPmS/LG6ZJCoZpdt4JRQrEjOe5ZBUQKn5GOJUm1OQbEIL8J3xW1RRh1iJzmzZtbj7gA3ZYwIikOdYLopDaEHGV+V29QL0TXEPJkMxqKO9nn8uXLn893tgUL+cN8d9SqNGrUyNROUTxKXrYNgoXie/KRfW3frCQf2qeSB01RaWIgNJ588kmTJ04jCHKsPbvQ4KygDiAx6Br2wAMPmFx88rI5nqlX4pjv3bu3KRD2hVatWsnff/9tbuM44XXIE6e7j6IoipK5UcGSyUGoJBWpQLDQtadly5amj7jT40lXEVu8OKGAlc4S3orwEoPOJC6PPg6IIrpsOMHDmlWg4I1OHba4owgTw81by1XEIoY7BY5402h3TDtYivASgt/Bjoh5QpEgBXmIHnr9Y+TbYHBS5E5hXSDA52bNDju6AggS9pmOYBTXA98bhivCD0Fjw9obdIOha5iStiCmifJ5i2TRoY7idkQnxz6FwLQX9QadwOgW1rFjR2skcXCccLzT6YfiV35/1lFhXQzek8YM3qAzEx31KEC14XWILvM8hL2iKIqSeVHBksmh6wcdvTwXNKKfOkIGzzURDgxDxA1dJEgLs2natKlJu3GCd5N0HLpTAZ5TOkvR+pR0HoxgOlkQEaBjBV1HeA9SOkg/sjuHAB0o8MA6O5+QMsJrYuxkZvgMGGQY4Z5eZNpZkvZmp2sRGeDz8j1yH52NfElZ6devn+mylFQLWEQPhiFRCrzevAe/ubMTXEaD4OA7szvzAEKFSBvfIZ52Gzq9YLR6rtFBdxtSkJS0h2OHSBciERCRRDyI2iEacXZ4SyX1hAgu0Q7aJycHfntS00gBZI7iPREeRE14X7tNNu1E2SdvabE4XEgTI7qM+KH7jqL4Amm3pBZ6Llqb1nBt5dqBUAeu7d7WEqKlMPvmbb2j9ADHJ5FRbAVFSQ9UsGRyMP7eeusts64GBgH1KHghSbvCu4igocbFXriPtoQYzaRfAGk2XNTxqHJhJ6eclrmk3dgiA6OFVqS02UOQkGuLAYERjUcUQxkDHI8r/chJC7NhUuNxzlaBGKjUeyRlhKcFq/edlV/WHJEfVh6WOVtPSFTsxdEgX2ERJuot8DZ7i1DBG2+8YdY8If2Nx2OU8/36Wn9B2hjPYWEwX8D4J/2F34l21nbtR6CAoGWfnItIcnxyTHlG5YCoE0LPKcaJwnDcOCNJStrRtm1bYzjxnRMRxOjHSZFUyqMnnAsIDI7nlEBtDO/JvMS8xjFD6hoplRxXrAGTGDhZaPnK/tPe2x9Ex0XKqeiDEh5zwUGjZB1wrOEc8VaDlZbwvjgbqckCooZkSHjCmhu0aPZclNITT4ekv8B5hKCjZkxR0gVTeq9kGP5oa5yW0Gls4MCBpiUpHbBonfzVV1+53n//fZdbeJi2x3R1chsx59vv0sp0+fLl5rY33nvvvYs6mKUHH8zZ7brs3SWueoOWuMq/vtBVccAiV613FrtC+8113fP1BtemQ+HWI5Nm/vz5rqpVq1pbl0IXNLcBZTqOuEWE1w5uvkC3MLrGJAe7fbDbyHe5xaPpAEdHpkDALYBdo0aNMi224d1333W98MILps31sGHDzJgNrY5peUz762LFipmx06dPu9yGs2lX6RY6ZkxJO7Zs2eLq3r27OY45Z/nuo6KirHtThtv4Oj9P+APagzIX0V2vfPnypvX34sWLrXu906tXL9N2OaUsPfij64v1vVyfrX3Q9cmae12jVt3mGre+p2vS1tdcu0/Hd7RTsga0j+UcSG8mTJjguuWWW6ythKHFLedmQoSHh7s6dOhgbfkfzj/m6kBFu4QljnYJU7IUeFGIvJDaREE44WpSm/D4EFEhgoAHiM5W1K/AK6+8YtLFvK3wTtQAry0e0vQgNs4ljYYskwEzdsr6g2dlzf6zsvvkOdl5LFI2HgqXGJfIhBWHpOtna2XGxqQ9paTF4dllMSdPWEmY1BRSuFgMjKgS6XrJ9UYDHcGIRuDV9hWiPUTQWCiLgmXqZUjrIQqWUA1MejFu3DhTt0OtASk+v/76q0lbpFmAXcfixC64p3aBGiwiiXZ3MKIyRBJJiVD8DxFQVkkmxYpGDxzHbiFg0qk41znOUoovRfi+QuMFjgnqZziWiOAQLaZmhagnq3jbXmonRJiJKBP5ZOFeXzkTfUS+3vioLNw/Xk5FHTKRlXOxZyTWFS2now7LnjOr5dftA2TajkHWM5SMhEgF8x7RZmfkn0wEIm6kKn700UdmjMcSqSOiy3FlN2ogjdptJ5mFlrkWJrSQMivBE20gE4HXALIYqNe7//77TUMWe4wUabp7khVBfaG9Wj61iEQzyZiw9wu4FhA9t6GxBKlgHN/ObnpEEDlPqaXkGgykfzOXEplkviQ6yRipw0Tu+WxOOF/YJ6KQFSpUMPWnpGVynlBvSUo472Fjfz/A4ok8ni6Wdjq5ovgVVIuScQR6hCU1rFy50roVD94et9FjbaUPNd/51xXW/y+XPDU3yb+Sr/7jmr7hmPXMSxk9erSrW7du1lY8RADcFwfjfWbBQ/cFwbrnAqxNkdwF+dwXAuuW77iFiVkHxxtENa655hrXrl27rJEUEhfnit231hW98U9XzPoZrtj/Frrizib8ndmweBfr8QCecKcna/369SYS5WTo0KEu9wXV2or3dPIYtzFgtlmHxdvaQRfhsa8x/y3yaV8DkbhjO13RW+a5ojfMcEVvnuuKO7Ldusd/rFmzxuUWvK5atWpdsg6QE7coML9ZSuE8chtM1lbKcBuQrgEDBlhbl7J9+3YTGb788std1apVc7300kuXnJusd0EUsk+fPtZIwrgFimvM2vtcH67smuTfiFXdXFP/e9d6ppJRMOe6DW+X25A26z61bdvWXIPatWtn7mchY9YHA9YNmjx5srlNRPyNN94wt8eNG+e6+uqrTWbBunXrzLHvCdkEbgFsbh86dMjVsWNHc5uFbln7jEV+WTeLCDHvj9llz8PMybwfx+KVV15pHgNu8XE+wrJ161YXa1ABmQzOBXhZWNeOsPBaRNNZs6t48eJmjDW4WIAYyJIg2sL3wR9ZAmRLeMJ6X3wXvA5wXWN/YMaMGee/PwgJCTGfiYg+10Zel8ew5lZiWRbphUZYEkcjLIpiQbTBCUXVFMymF21GrpL/jp6T6BjfcmwPno6WR37YLIt3nbZGLkCxL7nM1OsAHjg6n+H5oqYH7zPePG8duVjbAq8Znbx8ge5G9porvkJuPl40z/bUNrwenkUiFXYxZ3KJWjBGwsc/LOfmjZCof7+Uc/+Ok3MLPpOIHx6Xc7+9KnGHva/1gveb74h2xUDxNl3obPgOaaEdERFhjVyIsNgQsaI2x47a2WuyJIS9r1HzRp7fV8Yu7Gva5HX7m9gtcyRy0jMS8dtrErVwrPvP/TkWjZXI6W9LxE9PSeyG5K9X4gktzKkpoysYETrqhDzXAXJCDQuRO7voPbng3eVccDb/SA7UQHFM4fVOiMqVK5tIKG2yiXISGcLL7RZj5lwm0ot3mCgk8xSttvE+e4NIyg9bnpOIGN8iem4pJNtP/itT0zjSQnMTItnMLz/++ON5T31CEEWg3XNa1xwQbeccz2g4TqjlBI5XIt9cg1gfiN+duYTCeiDiS+QDiAI7u8oxXrBgQRNh8RbVJfrA8QbUVE2fPt3cJhpBy3bmMtrKU5xuNxax1yQjgsxrEtngvKJWDOz9BmfDGjrhEfmwcT6O6AYRHM5fb4XwREqZQ224JjgboNgwV7OWmvN93Lbi+X+9HT/O1uF0AKVhCrWwiuJPVLAoWZLvVxySzYcjJCo2eRfn/45FyvO/XpzK1qdPH9NliDa7dGQhpYW0E9IMuAAQfrcvNAnhy9osgCHGBadHjx7WSNIQgqeNsi0IEoL1eijQRBhguPm8PkXMOYn4rrfEbJolcu6MuMKPmzH3lUtckW4RFhstsYc2y7k/35PYrZe2nXUuFIlxiIGFuHLimRbGhR4RZsPFnCJTut5hdJH6QzoiF/CL8NjXuPBjCezr+24xcPE+BBrn/hgo5xZ+IXEn9ohEu8Ucf25jWKIjxXXutLhO7pdzi7+WyN/i0z+SC983aSmIQYx5BDmCxRco9kUQ0EQiJdAFCaPQW9poYmCIcd4lp3i/WrVqplU2goT0Qs5l0hPr1q0rAwYMMClAnHek7uBY8GT2ntFyNvqEteUbmHc7Ty2TgxEXGpD4E84P0o84D1i0kxTbrl27nl901RMMc34v0qBIhUtLSB1GQGX0YrV8TkQcrd/5w4DmeONYR5Q4nUs4elivysb+HjHQbWMdgevNWGfudz6XJiEU67MuEH98H8xdYL+WJ4zj9EpqiQLe39nAxob3I32T35c1lLyBkGD+ZD00+zvhM3nDuZ98j87vwNtzeAzF/XxeXpdrDSlkiuJPspxgYZIkh5O+/+S5O722ePXwgrPgWUIwIZCLioGkZF5Gzd8n+06lbCX9xbtOyfajkeY2RgCGDZM9XjEiLLR9pq6HPH9foS0lF0ty+BPDuaK9L+BlZv8wwHwFowzDDdGVZFtaBMDEvuKKcBtsCVxsbVwRJyVqwecSs/GCMYkXGA833xVee9otE0FydgoDxAlGGHChI58bUWVj169QQ8RnxkN+SZQlufu6cOxF+xpIGPG3b7X7M8UfhwkSGyVxh7fJuRm+R83wgGOwEemglgPvbnIXiIX58+ebvHnmy5SQknoWDCJ7cciUQN0d9Qt0NaTugLo7OowhghAAGI0YmLRshoiYk7Lr1EpzO7nEuqJk0f7vrC3/wb5RQ8h53LZtW2MM4wignTnzlTfvOufMjTfeeNE6NWkJzhnOT7uuMSPgd2U/aPlO1IMaCwx2RAzt1ZnLWUOIeYf5k6jvqFGjTCSGCAGw/7ZIoX7Tm2DhO7frVTgXEMdEVBAWCBCcXPzL+9tGvP29ICS5TetwojR2/QvPJUrFcgH2Y4D3Yn+JbiIiuKYwV2L34DwjikbUjX95DBEdPiv1O4gKjhPEBIISJ5q3qBzHj/MYQugxR7BPCPtDhw6Z9+S7sL8fHE4INc4jolc4pYgeKYo/yVKCBXHCpMKJTg9/vA12CJYTi2IxjCZaZCYEJzWeNoqBOdGVzMmy3b6lXyXE/P9OmsmdY4oLGR4sJm2MHNaUSAlJRVkoDr3uuuvMApC+gJeaC7BdYJkcMNwQXXhmOVcS8pRHTH5WXJG+F7e73KIhaul4idsdHy2xoysYAbwX0SAaAnBxJl3HxilYPNPBwBYsgLGJl5DfwS4khdTua6AQ9c8Yid3jNpLjfDT2XG7DYf9aifprpDXgHQQGcyJr+2BMEmHz1i41OZBKgyE2dOhQa8R3iA5QXEw6mi9wHhIBYu0of8C6LqRJ0mSAcwljkiJmjFjSgFgMdu/ZdRISnNJFboPkVFTKGxQkBGsUIVI8G3Lw23IueEafOEdIg8LzbcO1jfkGZwIOmORAAw3SoDDEnalTTmilT3oUhnFGgSCneJx5jvXAaNbBd0D0mnmJYnKu9aRc4UTh++C7o6kM6w0x5/M9E4mxnU2IEQS/k0qVKpmIMc0oaF+P6CCtihQtHKQ0T8GewBbhHOQ7419EBilZ2CYIB0QVz0c80dKdphd8j0Q+EaPMl6RpzZ49W4YNG2aK5nk+DiveY/DgweZzIdTYT2wZbB3OTcQLwgMnLqKCon+e47kIL+mhrK3CvtnOXpxaNN3hu+S5CF+ilIgXPguvzTWEbb47jgtS8JzpahmJbQOmBn4Dvl/EL/MdDXaI9PvCV199Zb5rX0D08dsR9VYuxVT2WrczLRgw5OUT2sdjR2oMEzEnNpMIHmsujJyACa3I7AkhXi4Mzm4daQETPxeTlKZW2HBRYkLBQ0iImgOf23iM8LYwuTExYygy+dJlxDPHlMmVCzeTDRN5ciYcLvJ4rHiuc7E/fgO8esnpdpVaomJcUu3tf2X3iZRFWMjnCDq6VfJOfsocS4TY+Qx8f/zr7c/zPmfesRPSy/CmcUF0wu9HHj0XSV/goonhyUUitfCepEngFeT352ILsRtnStTir41hn1yCi1eTXJ3fNkYpF2s8kE7jhRQ2DBq7loU0OI4dUo0wHHA6OA0pDEg863ZeNd4+BAxde/gOPnn2Lve+fiWu6CQiEl6w9zUxMCS4GNuwn05hiZi1F1gE0iMQhTaez8dz6jXHO/yYqVdxnbmQa+4rQbkLSe7Ob4rkK2GNxIMxReoTnlqiC6SO+BvmVeYd3ie5cAxwnDi7D3nC/Eg0B4GUHLi8Mf8x93v719sYxhpijuOq2+PNpNV9pUwnsJThkvtqj5aCOfyXz4/BzfHnaTgDi7PiwHBe5zC0mc/5XDacY0SNibJiiJEu5gv8vu3btzfXWX43vjOMZG/gpMChktx6PEXxF5wniFFfrpMcqwhabyl3wDnFvI3YI3MAscd1LKl10rC3cK752l0RO4619L799ltrJO1AjCPmMwuZXrAQUaGFJZMm+dgcTBxE5OoThsUII3xJihieIds7R1oYi5kRYmXC5oLIBG6D1wPDmwPUWciMqvZWnInHwVkEineFi19ScLBgrNkh6JTAa+CB4YJOvjYQpsXTYgshUkAwCDl5+X54jl0caMPnQvSRDuf8LpKC8DEeW9uzZIO3Bk84Fyw8DOkpWoq/skCOnE2ZkZEnLFjqHZwuefcsMh5dPK/84QWzb3v+ed7HhdwpYpy38dDgRXPeRxidKAOGgD3uvN+5zXGFV81OW/EX1IMgXEizIlUo8pfnJe6o95z4JAkJk7m52smH47435x8pXE7wZCNInMc9n420BtLi8Pzbhd+0kMbb6DS4gOOX9plM7kfGPy5yLKX7mkNy3zxYggrEF8J6wsWGqA/nByKF2hkugHhuESkIJ1pJ87u2bNnSRIqIlHEOMs/gneMxnCcIe853LowcM56NGGLWTpWope4Lla/RlYsIkrAGN0lY4/jvjbQ7DEzmJoQK53ZagoHKRdmbAcs87SkM7H/5wxuOBxxhao/Z92MccExyXHje5+21nGOINK4BeFm9/ZvYfZwPdzx5tZRvEyExcSlzfoSF5JHedb90/zLxNQz+gLRKvNiIYCccX8y/eNGZ+214LJ5h5mMbRAznFOcfKXA2OE4SclThkMKbjtgBhC9GHOctxz9/eP5tIc/1AEeF53VGUdITBDbXCc9okidJCRYcAVyLsDHh1ltvNc6+pOrpsCG5TjgFC9c5rgXelncgIsN5iQOZax7XertuiOdxLcXB42x1TZSY+Q6Hnp1BhA3LNYvP7bTLnKhgSWeIrpA+wsWfECh5yHTzYFLFI4uI4UDhB8MQ54cGwqt4u5lkeZw3ryPGPz377VSU5ID3mItmUnBQkVNKRCglcJFCDCAKyO92QtgZAwrhhvhC6VOHgVDjguXs4Q7kRFNsmFyPGNEaRJ0zaoDxxuvjXcdwwxDneybEnR60HbXKrGSfEnKFBsn2V5vLR0PeMvubWDeixHAKGKegwYDgt0C0sI0hgRcc8Ww/xvnnKYaY6NgvDAVPMeP5l9j9Cd1H5IYJ8PcHyrgNrZRND66gYHlt8mb54Nfl5jiwizU5R/mXaYfzCrFh34e3l3MS44rzF+OVcZwERCy4YNiP5Y/XwgtFPc6ifnUkJNh7AWmSuF8nZ4ueElKjrTVwAYQkHm3EIQY50TYMa/K42R9EAN3iiGZS/My5gNDiokZnIc4nvk+itWxzwcPg5Bxjm4tP2bJlrXezald20QwhJZ/FJSGlLpM5wc2NUOG3RKg45wVPo9552/NfX8ec95E6ggjjsznv4/dKSBjYtzFs+e6cY/zLhZvvGMeU530JvZb9b3IcLzaIKwwJPJ0NW1WVX7b9z+cOYZ4UzVVR7q45zNryD1y7cLxxbHGts2EOsdN5nPMsxzDHpr3iOQKQtEzmaBxYzEVchwYOHGiuJVwzvcF1lhoNDCDmctKDOA+Yj+j+yO9HZJTXBByB7Ktt4ClKRoCRzzGdVJQlOYIFu5PHEuFnfmceR8CQfse5ybzLtRonOYKF9HL2AxDyRN+5bnHeYWM6IcuB65q9BhmCBeHPPMr1kfcjbQwnMfMlkVYygqj55NrJNRWbAoca9i72C3VN3gSbCpZ0BoOdH9ReLI8fGXVK+gUHKcY5RgYCgsmVf224CHLAOCdUDkg7SsHrcuF35lhjyHkryMd4wvOaXFKbEsYFhOcndjLyHnwPpDlwcBJp4QD2rBPgROOkTOiClRAYXHznfF+A14FUKvJb+e5IFcHjR14mRnl6MHX9MXnou41y8EzyoyytqxWSOY/Ft2TGq4uH3b4I+wsmDzy4eCNJBeP3cxofCYE3FG8R3683MeP5l9j9Cd3HeKG8OWXxG+2lTGHvqW1J4oqTpTtOSP8ZJ41YZprhD/Fq32ZSRZTg0WUbw4mccSZ4ok324zgneQ3n6/Bnv9axA3vkn1daS6mCuaw3TybufQ0uUSPBtDCObc4bO32NehouEvYichhvGH9cpGw4bjiXyG8HLjSkPNlzCxcb/mgf6oTOYLF7Ll3s0DdcEh3jktJPTT3fPtwWEggHHBc4bhIz8JO6z9uY531EdrjQkgJo30eUJyk4BzCscabYUP+EJxExmx4Q/eIijtFv/3YTtzwnB8OT3/EqJDhMWpftJZcVaW+N+A/q4Yh2MPfjLMIpx/UMB5FnlygMJcQe8zLXKQSzHXnDkWSnlmFw8ZtxXDMnccw6oa4C5wNCyY448lg7QoMIJyKNWAWiZokttqgo6QUiHVuE7BIii97wRbAwN3G8IzqY55zRSWrISA8jmwUnCzYp9plTsCDgiUDj9CL6a9edMefYIFiIZhIpxfnD+UwdEfvGHIktwrWIax8OMhwNPA6HM/MXNgV1RnaKLXMEDiNsPk9UsGQAHAh4rTkwmMhRpxg/GOZEFDBs8Cbzw2AgcNBgODDGgcQPyQ/HZM+EbufzMmlz0Djbq/qb1AoWIkpcWPFmJQSRDzxuXNj47BgTGBFO8BBzUePE9rwvMXg8edOcMHZrX9JgEC+8pg0nHMYShazpxS1j18nP64667VHfD/EyBXLIX483lKrFLhTqMQFhXCY00aUEJjM8H23btjUTD4IyKUjXIrWRjmNpCcKSGqjxd5SUoEjfamo8CQrLI9NPlJF/dp4zk6o3qDvDkLZbyXLe4pHifKX2yYYQNwYkx5knpJtReLrpvRvEdfaYNZo82NecV/eR4Irpl7KYENELxkj0xos7qCWH/WHlpe/4deZ74QJL9NYWEsk5r1MLIo/jGy9fciBNkHmDY4YGF0TX0stDT30Mq4eT9+5k1+kVMnPXcAmPSd65UCx3Jfl/e+cBH0W19uGTEBK6IioqUi1YUBAFe8OO14LYQKxc7BVQsKCgXnvFchUVFSvYsHzea0HBgoh6VURQRERFsNB7STLfPCdzYLLuJrubTTIb/s/vB9k522anvv/zth7bpl6MIFk4RxEfTEQhJggl4W88uAcgojF+OLfwGDI5QE4j4Spsc4ww7oEIb863WAMHTw1ChXwYrvcIHQwvjivGOT+5hziYAOP+Fp4kFKK6YHKbexv2IveeWGGfrIeF84L7NjZjuKN/MoIFUc9yeHIrFgQL3kqXw4Lw4Bzj+7Fv+SxsWdaTc5aJeGwDbDs8LIRzM1HAPQChUhbZJlhqRJUwLogciMz+kMjK7DUzc645EyIEI49YcmBGlAMWhYtXxDV9YubIlXnFzc3O5uCIMqxneWEPqHVmy5hdCNeLD4NgIu4+VaPGJYmHZ1D5PqpBhUEcsq5VyUtn7Wg6bl52f5Qw5K68fFa7UmIFcMdiGDATkik47piJ5IKTjFhhRhRjoDLFCrM3eCgxchG1eRutaxyWKiTq73fCefaCnQhii8PljZkY4OIZ9vzhhSEuN55YAUKtCIPJbVyxdc3d4u8NP6uD3KbbmZz8NL1aeQWm5R5H2vBS53nFUMU4rUqxAghrCn44j1Ky4GHhRswNn9CHqhIrCCW+M1asQIuGu5idNz7S5OaU7yVy5OfWNSdsfUuwVDlwThBOwrUWbwv3r0Tw+1yjTowtJrqYcXaFIhBr7hzjXhprzAGztlyruF9i6FBli+PKVcNCMLnCGnghuedIrIiogJ2ECMAOwsvB/YZqX86GSRbsQmwc/iHIHUwKM9kG2JzxxAKeb67NrgItEwVlnbdAXhnhXqwzIZeEUvPZ7vOZPGCCiMlgykkTnsa5jPBxJLL7so0aU9YYg5iZJnYWYSaxYPC5sqmoUW6MuM+oAobngdAwQiaYiQQuvIgaZqGiDIYBM1/EXYdBlDFzzywYng88HoTMEd7kvDncwIjF5HXccMJVeihawElFIj9GIYYloXBO9TOjxmwBJxPbiNk+B59P6BehRQ6ej7dfKpvP+3c0+2+1oWmQn9jYyPVP/JaN65j3Luhgdm8Zv1M8hjN5TsySZArCr5j1KQ9mdAhFpARrZYEgc3HuCACovdNRJqdBGgZHTq6p1bKTabLZlrbQQviiHobnOF/dxZuLMsdJuARkuJxxPPDIYGDVbvcPf13TqPsfrKupXfHSl5mg1lb7+HfWdMPwPJO3TUliPTdjchqYbSPXAOOxqsu0Y/RyI00kNhOBIYDQ4m9VwHdhOCDSE9Gp6Qlm7y1ON/Xy1lVAjE+OqVOroTljh2EmLzd+omumwQBjdpX9TZ4V0QWxcA8g7p3QRWdUhcF7jIgBrjV4lJOFqAXy8Zid5v7CtRLPaSrNb0XNZOoff+/zUt0wUYZowLZhggK7hDB4ctbinRsOxAI5esA1jesToaouhJX7FuKdexKTm9ib2JjYSITlYmdxnjFRieDHm0sxERd66sBOQ8TwfpcTyKSEixJiEof7Is9zrhFazjrg7eQeSui0K41MmCj39ajbsclSI0LCkgXjHU9AvNkjGitxsBEOhrGOS47KW5VNRUPCEFnECuP+ozkfuTsYwYSzIcQ4oZhhJbSC2XNUNzGPhNDhUeExJwcHuYsT52TDcOUGhnsTUcc/3JiEeCBycH9SyhW3PzHKnCx8HnDCEaLGycJJBhiniCKX51LVjPrqL3PHe7+amfNXmhVrikxdX8CsKSLmv9j03mNzc9vRbUxBXtn6HVGIoMUzV1EQxIS8UEUtHBYVC8KQ/YsYrwyYzaYiF54bLqCxrP7wQVP40yf+jy9fWDlyGm5q6h5zqzW83e/8W0f6AIQtF1ZX1YjtywXfeejKCscjuZA8KQw1qOi6RoVi/zes+uI54y1OvocHJY3zO/U0tbbePxgpDTPxTEjwL1HvjMqCsFHC+rgOJSNeMHS58XJdjGd8ZxK8DRxreAuSYfbyKebj2U+aP5fPMMVBqWNuoLVy8vx/tc1WG+xhDmmBlz7NAhBC1CA63PaF2W/rDczQ41LztFY13EOw/7DDwqHsDqJzXMNxbBrsHkAwEDlCCBbeE0LEEO7cxxAp5Ijh/cRmYNKA6AFsNkQHIfLkfMXL78PGIh0Bu8kVhEJM8VnYcfxDDBGpQSgbBZaYUCYJ35XLZ934XdzfwyX1w2RbSNh6JViAGdzybpoIFtfvobKpqGBx4CHiwCMEA6GSDCRqctBz8IeFBDdvZhvwrHCSotCJW+bmjjBBiLDOQCUixBIx566cKUYG28+pemYJKH+JSKpuFiwv8kXLCrNsdZHZrFG+2Tom/Ks8ODaousRFoiIgEPkMZlu42OGyDVeLglR7s6QK4WiUIeXYi1dBxLHq3TuCruvll3bNqdPI1Dn2VpNTb905xjGCZ8qJ1zAcM4hjZppctSHi6AkHAi7qzDDFC3tE6BC+5jxCUNF1jQrFv3xuVn3wgPFWJzFDWbuOKdirt6m1VflFPwjpoQIbIUJ4X6oSRAvHeVlhYlxzEKKIVry5hLe5UKZMgjFBJbARI0akVe556Zp5Zs7y78yKNQt9aZJrNqizmWneoL19LIQoYdNrxpvVRcXm5F02NQ+dWLrASNQoL4elJiLBIlIiU4IlkxB6hCInpAtDlqRmDFvyghAhhMpxs+d5ZyxiWGCQuJkHB68hTIGEMQzXmgCeOgzqsiqzlQUCEHHimrsRP473KTYkhZKEzOwkSqRNFzw6zLqwb8NJg2Wx+oMHTdFvXxlvRXzxlFPQ0IZkFRx8ucmpX1IH3oHnju+K1+Wf8JNu3bpZ4UzYIduVvDGMVGaNCFUjvDEexAnHc+FXZF2jRNH0D8zq/40s6d4fz2tUq7b/W+qb2jsfa/J2SL4gBAKQY5CkUIQLIWNVBdcNhEjsdQKY6GA2MdxfpKxjJ104p/h+EsuTqcwnsof3pi00705bECyJ6uah8b+ZBcsLTaM6eeaIHTYyz5+2rtlu1JBgiT4SLNVMFAVLusTzXuGRwEsQLwEtm3n55Zet4ZVqnD2GuevoHoaQJ0IQXVgd/XNIoEMsZhK8XIhMjrdU+wsV/zHVrJnylin+a7oVAzm1C/wrSK5vOBeY2jseYfJ27Bq8sjSEs2F4JqoYhXjjNcx2Y7QiUNhOCGcuT/GKEjADz+tImoxH3HUlTCevTpnrGjl8sbLm2zfNmu/H+EpsuRUoeF1y8uubvK328X/HEb7oSiN3xwfPFsKFSQWES7hTf2VCmAM5heTfhXHHgQtpcBA2Scx5JgqgcN5yPGXTTVokT0G/D+2MviLyIgLWZbAvyCPdq1Uj89Z50ShwEosES/SRYKlmapJgWd8IhzMlCwKEah7EtobhIomAwGCPF+qUCchTIZaWnJKK4Rlv+QIbdkVYlfGN5/KgNjziLtyd10G4Ib+dc4DkXX434YqIOLx5sQ1RgdjdRM+VJvV1jSyrllgBYwoaGFOnpNdFJiARG+HCPkK4uOa6lQnCnP1OzDXwlzym2OqCgKCi2hRFKioCEwCI5qpK5hdVT53+H5pVhRIsUaWgVo7p0KyhmXBZ1UyOpIIES/RRwK1Y70Cju2ofFYEQOfKFyLlIBrwBJBPHihWgVCiN2zDSKcedSbFC6A+5Mnx2xcUK5Ni8j5xGmyctAPg95CfEw5U3psAASYlUuCLXgdC7eIIEUUfFlvLFCqS+rpGloKExGzTLqFgBcjioMsXxgReDqlOVDUVNEKiUPqagB4U64okVIPeJcEmXfJoO9CAh+T/TYoXwOiFEcqwq8synvyw2m1z9sZnye/QqiIloI8FSw2A2EmOP3ADi+wnTIuGZahHuH8ZJPJh9dK+hGVGykMBKlbUwzFKQNB5FMICYTWYbVRQaNfHbExnjYTCaKAWdCOLq33nnnYx2hqYqFA38KIxAsYTqoizBgneF343xR4lHBAvCKlHImitlLDILxweVZvBmkB90992V1/QQqMpD1RtCtGiIVhaIWgRqOhXO8FZSbpeKiJmE85VwVyYEaiKEZSa6VwiRLo3r5pkhh7c22zWNTmVGkR1IsNQQMOJIUCZRmSRVOrKSrI1owAAhBtx5AjCI482iUk8fwwCBk2yiNyWRCSOJLZuH4UmOB302ogQ5NVRFQ9hlxttQsu3plULj0kRQeY3SsolyeSglTWljvDCZSDBGRLVt29Z6a6i61KhRo+CZ6oHjqWPHjnZmPRZyFmi6hfcJ8LKQnyLBUj1cfvnltuogIpek9EydJ/HgeKDyoKsKVxaUVWcyht4uyUAIGccWRT969+4djGYGQhaZ1KGCHz0PahoUSSFchFw6trkQmQCx8sIZO5jz993C5CpsT6SIBEsNgLAKwisQJPRHod43XYkxPFxTInqz0KeFGE0apWH0xYI3BnFDaFIy0JeEz0L8hGuJsz7cyOkfwowodcejAuWWEXXM6mayHwVGFHkA1E+PhRs+caKJysginggTo246xhtig3CodKHENFXAOCZYp6hQlpcFw9hVkcPDQthXPMGCJwbvWGwJaJFZENaUP+bYpYcT3oRE1drShR48XIfI6aJ5Gzkt5YHAoXdBeaFYnEvk4tBcjXynTMNnUyWQ38CEQE2DIhkUUGGigVLj2UKHZvVN7Vo5Jt+3hvWv+v81qZdXknjv06iglhlzfntz0LaNSwaESBEl3VczFU26pxkbRjidTqmmE4a+FvT7YBcjRAiBwrtA7gXihJCMMHhKKPXpeqyUB8YGVX1cOAczjlT/oeERZWkRR4RhMHseJcMZMYXxhajLNJR2ZhuGq6XRARcPTKKmmbHVkWjIyYxwquEYeNMQKhiXGIFRhIZa5BLUqVMnGCmBkB1CGDGQeZ7tR2f22FLYhC1RhhfxLaoOjk/OYfZLPI9qqiCGyEPisxxUiaPBaHnXQiYFSNKnPHE8+AxCNTmPKhOuq4TPptPHJRvgOsk+YoIgW6AZsE26F5Gg9Q2fmrnL1pi6tXPN5AGdTJsmpa/7UUJJ91kAgkVUH2+88YbnG87BUur4N3xvt912C5biM27cOG/77bf3Ro0a5V111VXeoEGDvOXLlwfPrsM3dD1fQAVL5XPsscd6//73v4OlEi699FLv/vvvD5Y8zzc+PN8YDZaqnz/++MPLy8vzfBHlvfjii8Fo5li5cqVXUFAQLHnePffc411yySXB0t/xL5De+++/Hyyto0+fPt6wYcOCpfLxBaLXqFEju6+jzDnnnOP5gjhYWseWW27p+WLGPvYNTs8X1n/7LatWrfLy8/ODJVEdjB492vPFinfeeefFvYYkw8SJE71OnToFS6XherHXXnsFS4l5+OGHvbPPPjtYWseNN97onXDCCcFS5dK4cWOvQYMG3m233RaM1Cwuuugib/DgwcGSEKmz8dUfe7mXjvXmLl0djESXmTNneq1atQqW1g922mmn4FF2oJCwLIdZxvL6E9CYkJh/+h9QkYdQKGa6wzCTRr5JoryBWAg/w2ODBycMs5vh2W88DpT+jQrMEOORIvE+HMaWKejMTrJqmzZtrIeAWHCabsaDvBYXphcLXqtkc1koBUzjTmZEKyP8JZPECwsjZ4qwQY5jQuHGjBljH1M1LIxyV6ofSg+TH4fXkHOb/JBU4RhNlKiO1xPvYLzy12E4dzhmyM1zcGzRFJVeQ5UNOT40wSRPhvyzmgbbd9iwYXZfxHrihUiWUzpuaubfvLdpUr92MCJE+kiwZDnEUiM2yoJSnsR9Y6hTPjdecjg3+eOOO84a3LEQB44RGQY3ImKF3BgHMd2ED1Ci1MGNndK/UYFO/RhchL0Rf14ZsI2feuop+zdRVTAMAbZforwW1pOwmYsvvjgY+TvsE4QXjSgJwcsG9thjDxvyFRaxrpwxYpnfxL+uXbva4y6MBEt0ID+N3Cv6+nAcP/bYY8EzZUOzSEoUx4YEhiGfi7yZ8vrBIHzpxUMIJv2NCM2icEVVwGQHYbj0dsmWcy8Vhg4daou3ULijsq6TouZzz3Fbmw3q5AVLQlQMCZYs59xzz7VJ5OF8B5LhyZmg3LCbpXbJ9wgXN8NNvgOGBp4AmiBeeumldpxlKt9gDDBrT/UxEi/pzo5nhZsZSdLkzFAG1UHuyoknnmirCzlmz55t4ySjBLO7lV29jJleKnTF6/vAdsLYue2224KR+Fx00UU2yTxe+WW64rMv5s2bZ7d5NkFydXhm3AkWKtS98cYb9rglTyUsWNgGHIt4CUV0IGeN2G83WYGnLxGICfKrKAxSHlSMw3tM/hvXo0SQhI9RzQRAMkn7mQSxVhle2iiAoOS8JKeMSREhajpekOu7PkFOczYhwZLlIEToVE3y6pAhQ8zLL79sw2oI3UBgEI5EsrcrBUr4EMnxhIkhWDCsMTrwCFB2FrhZYSxSLYzQMcQJVXxIZEW8kBzNrBuz3WGjkuaEJPqHT3rCJcryElQ1CAi6bPNb2F6VBT1XSB5m5tcJQWCfUFaaGeRkIISP2WwHQotwM5KeabYYG9qXDcSGhTnBQmgcBlKXLl2sEYrn0Bmr8q5EF857PImcW/fdd58VnrFhUkwSIL5TCSGjQpUT/pQjj4XjhmsW4hdPR1XCpBC/m0IEiRpeZjtcZ/B0cr0XoqbD9SaqveMqCyYBs4qSVBZRXVQ06b4y8AWP5xuLNoH1P//5j3fvvfd6n332mde3b19vwYIFXvfu3b1Zs2bZ1zJGslo8Vq9e7fliKFiKDkceeaTnX5y8yZMnByOZhd9MYQPHFVdc4fkGld0eJPunCknEFEzwRZa34447ejNmzAieyV4OPfRQzxfR9nGzZs3WHk++cWq3F+y///7e2LFj7WNfBHu+0LaPRbTxhbTXvn1779RTT127z3JybEHKtGnRooX35ZdfBkue9+yzz5YqNjJgwADvlltuCZaqBq6DHJdcH2saXNcpHlKnTh1v6NChwagQNRuKibzyyivBUs3mnXfe8c4444xgKTuQYKlmoihYPvnkE2/kyJHeX3/9ZY3j77//3hrbGAQss86FhYX2tVRuQtjEGtELFy60Bql7XdT4+uuvg0eZZfbs2dbojqVXr1628lUicVcW06ZNs5XNrrzyymAk+3nmmWe8nj17enPmzPE222yzYNSzlc64aQBGE1XwON4QmSK7GDFihDXoqQD34YcfBqPp06FDB2/MmDHekCFDvB49egSj69h33329Dz74IFiqGl577bXgUc3j3HPP9U455RSvuLg4GBGi5tOlSxfvu+++C5ZqJr/88ou3zz77BEvZgwRLNRNFwZIOixYtCh6VsGzZsuBR9FiyZIn39ttvB0uZpWvXrnFLQx988MFrDa5UGD58uNekSRNb5jjstakJ4G1iNssd/1OmTPFat27t7bLLLnbZiZrjjz/eljoW2Qdl1A877DAruCnxXVGaNm1qj4dE1KpVq0onST7++OPgkRCipnD44Yd7d911V7BUs6CtABEO2TgRoRwWkREaNWoUPCohqomaxKhSxYykbpp2ZhLyh8j/Ie47DOWJqcBGIzs6SMdLoo8H76HBJc1BKTFKnsCcOXOCZ7Mfcll8QWY728N7771ntx1J3DQ2Ja9l4sSJNrGafCqRXZA3R44b+49cFBqyUamQ0ufpQIW5O+64wz7mfIiHLyBs3lhVQMz7IYccYu69995gpGYxaNCgyDagFaIyoXjIrFmzbHl18n1rAtg7VP4jD5Zrc05OTvBMFhEIF1FN1BQPS7ZAszsa3+Xm5npPPfVUMJoZaCTnG9rBUgl33323baYZhrCnWI9UGPKGmJH2BVAwUgLeCJp1RgFC/irKRx99ZLcZzQKhW7du9je7nB2gUSShKRWFfKVMrHN1Q+PTbAAPa7169YKldRCKwP7dfffd7f5Phnnz5nkbbbSRza1z0DTy5ptvDpZKw8zoZZddFixVDmvWrPHatWvncQs98cQTg9GaA9uXc499KO+mWF+ZPn26DU0mtJWQ+EmTJgXPZAe+OLHrjWeaBtYsZzMSLNVMVAUL7kISoclfSUSscb548eLgUbShG/3jjz8eLGWGyy+//G8drxPlXixdutSrX79+sFQa8jdwR2MQxSOcrF5dPPfcc3b9DzrooGAkfQjhGT9+vH3shFy4izmdxB955BH7OF0GDhxok4dJ7s/mxH22A0YkhjI5ZVFm11139T7//PNg6e8gPvbee28rUssqIsHrECuIlljYr5x38aiKMEKXv1cT4RrVtm1b2wm7rMkVIdYHyOclpJXz4ZBDDrGTkO+//74NL48STMhSqKZ///7egQce6O2www42D/T3338PXpHdKCSsBnDKKaeYwYMH274dlDPmMWFII0aMCF6ROn/88YctYRyvKZp/ktrQjNgeBIQu0bsl3EwyitDfobxmm6lAE0Tcxr7xFIwYM23aNNO3b1/bVyQW39i34WHbbrttMGLMV199ZZo3b247iOOOpnFkPFLpgF9Z/Pjjj7ZXCqVr6SeTLuwDtsWbb75pS9SyPQgtpCwuJZtpTkrZ5oqWXqQEN59DKVrKbmcrbCtKzPo3T7u9ogrHPdckF+oXD/rp0D/q1FNPtQ1DL7zwQtu5Pgyl1uk3RK8hX7QEo+ugDxEl1CkhHgthZ7yXPlCVBSEVhIXVRDjWKMFOf53YcF8h1jfoV8L1hHvSAw88YNs8PPvss2aLLbawfdDOOuss28uOkNRwb7rKBBuN78Mm4BrYo0cP06RJE9sygKa7rCfhX1yPy2vCmy3YWpPBY1ENEFdI13V6dqQD+RDLli2zxgH9VOixwomDQcwNleaO6UJXaowC15/FwQnAeLgr/osvvmi6detmjVhOZBdrHjUwjllPjFd6QtAgs6Lsu+++dnvss88+dplTCjFXXv+CcePGmeuuu872HaEvC8cAPW/Ko3///rY3BT0gqotrrrnGiiv6+qQLIo+LKoYRBisd8G+55Rb7XOvWre12oTkf+4pjqiIgrBo2bGjXOZt5+OGH7c2SXkJRhOMYoUE+VypwHHA8X3vttfac5O/MmTOTmnSh+S3X0djvJBdq//33t5+TaTi3MeoR7jTvpV9STYOGv9xX6IEkhIgPE6BMING8mwkS7jXcx5mAIWevU6dO1iZgcoVJSWyDBg0a2D5O2GhMTubn59uJXu51vJZcW3qQcf8jl4bJYF7L93Bd4/1MHPLZfAc2Go+j1qQ700iwVDMVFSzMPnPgAwctBh+dpMPjKH68ABjUzGozK0A3erpI8xgV7gw5BA8GJMskPZMoG4bE6DFjxlhPCnCSYVRgqLgkdoxYjGpOoCjC9kFYvf3226Z9+/bBaHrQtI7GneFGiFtvvbVNaqO5Y1mwX0gQpkABF71U4D3MPFdX40g8QiTwcQylC0Yp70e44flA9JHEDH369DHPPPOMLTrQs2dPe/xWBIwuGqhG9ZhMFm5YNPSL53GobjgeafjJzTVdaKrKZAfFF7imJAuvJfl97NixwUgJzz33nL22VlTwxoPCHRQV4FrHv5oEEwgU+cA8YH/gvRdCJAdRKEyU0PCW6yGP8YxTlIdJZsQI4oX7PiLFJcMjXniMSEGUcD3FxsLDwyQe130mrGgYvl56PhEsovrIVA4L/T9IkCSuOowvIjzfMLTxliRsX3PNNZ6vzG0Nbp6jGaEvTuxrR48e7T399NM2DpLX+jctOx7m6KOPLtVYiQaT5FxQvpR1AJK84r03SkycODF4VDFiy6geccQR3ptvvhksJYY8DfqP0JDTNwi8fv36Bc8khy+QvNNPPz1YqlrIsyEnxL9wViiG120rX/DaxoJFRUXBMyU9WMg5AfJYKvI95Emwn2ITt7MNig/wO2h6GsVcHOKlK5rUSe4LuTpnnnmmbZL63//+N3imfIjd3nnnnYOldXAtuu+++4KlzEK/qpoK1xdy5sLnpRBCVBcSLNVMpgQL3YipvhPmiy++sDd+B31AnMHGY8QJyZUIDXpehCvr7LXXXrZjdSwYqeHqPiTn0ycknBT75JNPRropEdUyMrF+55xzjq1p7rj44ouT6nrN/nZJ5Q4MdJLjUqFz587ep59+GixVHfSwIUEeQfHrr78Go6mD4U3VK8Q0cydhwwgR3LBhQ/v4gAMOsK9JF5pTbrHFFjaJmOM9W/n888/tNqHKXdSSKGPPhVThOOCY4jc6qOxGDxeSXJOtzkNDWBpVxtKxY0d7Pcwk48aNs4UnYieJhBBCZB4JlmomU4KFGycCJAyzlT/88IN9zF9u5AgMKn9hwNGoD/CoYHy6ajB4Hyg3G/YcODbccMNSggVDkg7TYagixXdHERoxMmOPgRwWc6mCZ2S33XYLljw7g1ueV+nVV1+1ngRXxjeWk08+2W67ZMEAwxCrDvDOVaQbMOVtmzdvbh/j9eN3PPbYY3YZ8Ys3pH379t5XX31lvU94oSoCFexqQrUjJhzcOR0VXIPPdOF6gnhNtH8QyHiBmfGfO3duMJoYRDTeZqoBOnhcUFAQLFUcqgbVrVvXXkcyUS0vaiCI2YZ4zaLcBFgIsf6gKmE1AOL/qbhDTLXDNd8jn8IXJDaRlSR6EvSJ9/Zv/rYpEhBTSS4LMZHEW/qGtf0smr3BO++8Y1566SWbVEaCF8nRDhJdaXBIzKaDPBhiLKOIL1JsnDwVqe68885gNHV69+5tk32BfBWqgfmixS7Hg5wMXk+yri9Qg9HSEG9P8u4HH3wQjJQNOUu77LLL2vWoStjHubnpXz7IxSBHCsiJosoJ+UBAvgn7yVULI/GXXIF08a9z5ogjjrAx+dkOx0aUKp0Raz1gwACbb5QO5H7xfireJIrJJq+J6jwHHnigjekur1AGCa/Ei5PD5xqtUiCE6nsUcsgExJRzHdlmm23s35oG1zPOb3IY0230KYQQmUSCJctBbHDD5GYfTtymIgWGGs+RXI5wIYmLBC/Ex9lnnx28sqQiEwYolZ9I/CKRm+QwXkvFMSpSIVboEN+rV69S3zN58mRb9YLvcpC0n8gojwIDBw60VdT4PemAMKH6EBU5uKGfd955tpt3PD777DOz2Wab2TKuCMHyIAEdMTR9+vRgpGwQOHx/VUIZWtaRIg6Ub04HJ1gQxSTw8xsoBMH2dIKF70HM8Dpeny4Iaso/UpGNanbZCpXBOHZJSOe4igJUyKMwQjpwbeJ4Z7IlGZhkYUKFam8IEK5NiaAoBRW8ELtc0wDBwzHFdS4TsP5UuuNzaxqc33fffbcVk2x3IYSodnCziOojUyFh8SAMxuWWEG4RL8TLQVKzC7fgfa5xIetGngRhY4RV8I+mbA6Sf8P5KzS0o2FRosaH2Q7bgVAQR2zSfRhCnTp16pRWvgHhGMmGYtDQirycqoJQMEIKCRcp65gqC3ITSKgmPM4d/0OGDPH++c9/rg2141iqXbu2fUzuRrqNSckxIGyRJP9shjwPCjUQHsW2qW5OO+00m6+WDuTb/etf/wqWUod9SggmOXW+CA1G40Py/gcffBAseZ4v+GxIoxBCiOxBgqWaqUzBkgno3v7888/bqlYuKZrcl3hdpDFe6fz8008/BSM1D2L1idmH7bbbzps6dap9HIb8DPIvbrjhhmAkdRYuXOhtsMEGwVL5kFBekZySVPn555+teEsXCjUgkOkYfPfdd9uxmTNn2vyiBx54wC7DfvvtZ5ObK5p4X1MqHSFio5Dk/eijj3q9e/cOllKDgh+jRo0KlioGx0z37t29Pffc0xs/fnww+ncQrFRBdJCLt2DBgmBJCCFE1JFgqWaiLlgSgceGksZhSOZfsWJFsFTzGDNmjNelSxf7+KijjvJee+01+zjM/fffb5PJSRavKAjD7bffPlgqm/C6VQUVKV+LoG3VqpV9jLcgXAEqNze3VClbvC6U5a5o4j37igpS2Q6/obornXGeb7vttsFS8nC9qF+/vvfll18GI5kDsYJoQbwgYuJxzDHH2KIbkMq5JYQQovpRDks1Qzw2OQ7ZBjkzJOqHIZGd3JeaConhJG7TkfuAAw4wvmgJnjG2Iy05BlOnTrXNoirakBIoikC+DMnn5UEyMU2lqiJHo2/fvjbhn9wn8gRShQR6cgtIjKZ5Jk1KYdSoUTZfheIDDpd4X5E8lhNPPNF069bN7jNysbKVSy65xOZCcVyEC19UNfvtt1/ShSEc5KrQtJPk+g4dOgSjmcMXK7bDdI8ePWx+2cUXX2zPyTCjR4+2+TYU22Abch5zTgshhIg+EizVDDf/RYsWmYkTJwYjIorcdNNN1hiigAGV1jDaHRQxqF+/vrnsssvKTAROB5KESXo97bTTgpHEPPjgg+b8888PlioPjlkKM6xatcrMnj07GE0el3BPQj2/z0Gy/ZAhQ8yIESOCEWP22msvWyCB7r/pVgq766677KQAlZ2o6pStnHDCCTbZnGIYXDOqA8QfIrpp06bBSPkg8il48Ntvv9nzpDLp3r277SrNfua7brnlluCZEoYPH24rh5EwT2I5Vfs47oQQQkSbHNwswWNRTVBpidn677//PhipfjCK8BTk5+fbMqHxWLx4calSpBhRlBKNKp/MXGym/bncrCr0zEb180znFo1Mi8YFwbOJYVYYj8mzzz5r/vWvf1lD23HGGWeYpUuXVrpn47bbbjPz5s0zt956azASn+uvv94UFRVZw78yQaThUXPekVSgTC3Vh0aOHGk9Bsxy42mhRDPGJNuUykuuOhHnxjnnnGN69uxpjV68kqlCFby8vDzrhcpm3n//fbPppptaAVfVIFR++OEHM3To0GCkfNjPlFd/5JFHgpGq5corr7SCCa9KWPQzAUFJZkT+dtttZyv4UTI5WZYVzjfL1yw0uTl5pkH+RqYgt0HwjBBCiMpAHpYIgOF3+eWXlyo1nCyE1TDzTy8Qbs7XXnutGTt2rDUCK1IK9scffzTHHHOMLVEcC7OSlLzEEAlTu3ZtawC43gdRYdCbM02LIRPMccO/NRe89IP9d86oaWb7myeaznf9z7zzfdnhNWzLm2++2RrSTqxQJrdJkybWsK6KMKwrrrjCejTuvffeYCQ+7P+HH37YiqzKhB4N6QgHiOdhcaWMge1Mfw5HJsLCEDsIzmyHyQ0mE6qar7/+2vb7SUWsUE6ac6S6xApw3hKmybFGGXJ6SgG9XBDbJ598sg0lw5OXDBP/GGmGf3uWefGHK83oHwfbv6OmXW6em3aZ+W7B+8GrhBBCZBybySIiwXvvvef5xlqwlBwk7buywiSdUiYW6HpfkWpClE1t2rRp3LK1ffv29XxBEyyVMHnyZJuIzetPPfXUSJRdLS72vNbXT/Dy+43zzKVjE/5rfOVH3o1vxU/UpbIQybp0yaakMwwYMMDbe++9S5VzriooB1tehaWXX37Z69atW7CUeXwBYTv2b7zxxt6MGTOC0eTguGnTpo19X+vWrYNRzyZxk8ztaNGiha1EBhxblKbt37+/d/vtt9uxVGD/camjAlm4UlS2QVlmihKw3Ssjcb0sGjVqlLATfTzatWtnj8MoQXGHQw45xJbU5pgCKiAyFi6vHY9la+Z7T313gXf/1929oV8dG/ffA1+f4L00/ergHUIIITKJPCwRgtl6Qj1SSQSleR9hLnhaiPF3nZwJoyGcCwg1I9nYFxF25p2ZemYd6ZjNP8I8HDzGQ+O6QtMUMgyNKvks3+i0y/4xZJsmEl9PSAWvJ7m2rK7vVUWbGyaYn+avNKuLyo56XLCi0Nz07i/mX+/8Eoysgzh3tgmN+ghHYv/QcJJmd9URXkRiOl4WPDyJIMF8yZIl1itRGdxzzz32t9OctFmzZsFocsTzrjDDTX4JnkZH2MvCNiccbquttkorj4UkfmbTO3fuXKpQQraBp4LcEULCCGOqKnxD3nqnEnWiD0PzTwpvsM05DqMExwA5aOSanXTSSeass84yhx56qPVuDx482D6PRyYWX6yY56f1NwtW/maKvaJg9O8UeWvMb0u/NSP91wohhMgsEiwRo3///uboo4+2QgTRUB4uZ+TNN9+0AoMOz+CMCxKOERlU9CIkgq7ihHnx+Ri15AZgACM8MEQxONq1a2fD04499lj7GWGefvppa3A6li9fbg1jjE3XnZ0KUuGQnupgn6FfmZkLVwVL5bN8TbG57b1fzWMTfg9GSjri0+X/hhtusAY2uRcvvPCCjcuvThBLp556qu0Kn4jK7ICPgEBkfPLJJ2tFcbKUFw7miA0L47UUO0hHsFAggPfxnYSyZSuIw2+++caK56qqxkfuFPv7yCOPDEYS895775m9997b5rJxDYkqhx12mJk8ebLt0o8IpoIZYZTPP/+8Da1l2VFYvNK8MH2gFS3J8ueKGeal6VcHS5UL1/CXX37Z7idEJRNXZUF+G935V6xYEYxUDt9++22kcjKFENmPBEsEQbBwU8FLQenNsAckEW+88cbfjArej3AhFwVhgxjBi4PhgxFCAi8zoYMGDTIXXnihadGihRU95KiQn9K1a9fgk9YxY8aMUhWCqMTD+mFwuqRVjHwMguqItYfXv51nfvhruTEplpNYvLLQ3DqmxMuC+MKIoSrSAw88YH7++Web17PDDjvY56sb9gOlWfGWxWPrrbe23gRyjTINnjqqkSGSUwXhQEnj8gQLJZMp9kAZWiCPhWMKDyHFHlKB5GoEO7le2QxGJudkVU0GTJgwwbzyyivlFnoAzhUKUlCog0pm2QDHHNc5BC0TOCwzocOx5koij/vtUV+szLOPk8fzRcuPZtrCkmO3skBcUbGPYhKUvN5jjz3sJBPFLOLBpBSTLYhKfnNlwv0FTzz3JSGEyAQSLBGFkBsMQnpHIERIEk3UQ4JZM14bDsHgRoxgIewBmIXD2GFG/PXXXzcbbrihDYtgxpkkeWbLSZIFEmsxJhs0+HvlG4xFbnwOZviYkTziiCOCEWO/g9cgfKqDYePnmD+Xlu7BkCyzFq4yH81YZLc5RjNlUSmBWhmGf0WhpHBsL5wweNcoxJBI1KQLYTQIjgsuuCDlfhx4WDCWKDNMSBkeO4REbOghhL0sLvEesZOql+XGG280c+fOtedIuMdLtkHJXsqf4/lLRyymCh4IJxjLAq8wpac5JrIRzm/62lCpjnBPrqeEtfpXMDNl/hhT7KV+HSssXmU+/6PyinGwrkymXHPNNXaCC5FImO5DDz1kzxsmV2LB68qEC4UQqgLOa+4l3COEEKKiSLBEHGbJqQxEWd0+ffpY4RILOSetWrUqlU/A7Bsx+wgSZj0J96KhGjBrShy3mwnFKHHP4cYnZIzwJ2A2fdiwYTZn4vbbbzfNmzcv1bSOGTQM2LBRjHHI+qQaLpQpJv6S2gx8mBWri801/37RelTwGBGG5PKCogaiFrFYVmnhyggNQ/ASSsNMLTO8yYInDu/cp59+WqZ3xREWLHhbCHdERKYqWDDiyAvDsM5mLwvnLQ0SOR7jeT8zCfuHawiz92WB9xaPKts4myHEDk8qoovfROjd6ZccY+rUSq8SHqwsWmoKzepgKbOQi0M5ddY1DNcCJqNiPRuIMDxgCH8HeWFUFcSThqhPBe4HTFYwiUCTzvAkVhgmGKqzSpwQouYgwZIl4A3BUIttIIjnhFl0EnEpPeogXIiYcjwDJIvjLUFAMNtFaA2hYQ5yCuhDcMcdd1iBQ+iJm/Emf4MO7szoIYjInZg0aZJ9DlzZ47CIYYzZ4OqiYcHfZ+uTJscz4+bWM+eee25WzMaTK0CPCeLy44EYwPhKtxxwPChnTNEGhEsqxOavIKQJvUskCDkWKUeMFwacsZXOb8FoIvQxm2GCAUORju2VCT188K6UJ9SZracoBWGrNQEmZ8i9wGuJB/CnX783hcXpCw5CyWYuTq/ZaXngQWEd4wlKJgVi89s41xAohP06EDX8ZkLJUvG6IPzJU2Kygu3F5E5OTk7wbGlo4InwFUKIiiLBkmXEVgcijIswEfJR8MI4OnToYEOG8KQwK8vzJNJjbNIJOgzPkxPBjYgbDMn+xEQzg7dy5Uo7u01/FaoF0a+AmxteFEDQULkqfCOkahjhQtVFQV76hzU33tN2zLfbiPwcvFpsuyiDhwvPQSJPRWV4Wei5kyqx+StleVccsWFh5KOk6mGpSSQyDDMFxzpeO6pmJQJjGEOZ5qGEI2UzTPKQo4M449qIsCX/Aq/zM0+ONLk56V9L6uZtYFo2WHdNziRMUJFgH8+zwTg5bGEI+3UFWRx4SLk2MOkVvj6UlSOGV4X8Hufho6CLOwYIWcaLE/a2kzvJOSuEEBVFgkUkBKOEmxc3KULGXIUlQieeeuop+zgWqmjRjI3Qneqi45bpd52uUzvXXHXaEXYWmxs/ndgRZYS9MJMcVWMZwx6xSTx+LHg1CBVBIFQnLn8FMc1fhAjrXRYIG4wivIQ8JnyFrvWpJt6L8qFIBuIXz2wiCEViP2CU4sXNNijjTjUwjjvO6dNPP916h/G+8ZsodkJBCfJBNq23VfCu9KidW9f/V1okZApXnjvW24jHkt/Yq1evYKQEJpnClcH4zYgaPHZMZFHtEQjtK8uzTF6cC6tEiFCZDMGCICJ0mOtPuOgC34m4EkKIiiLBIhJCXDfVf0j8J9bZJeHzFw8MXpkwGJJU26ns+Pry6H9gC9O0QeoeAGi7ST3TdtMSI4MZSXIfMOBIKiYkjjLQ5LYQNpNM9baqhPwmQjUQlLFUZpnjZMG4IrQQg9flXfGvPJyXhYp3bHuE2frsZaksCPEpq4gCxxXhh5z38YokRBUKilx33XV28oGJFMJfCYnlnKYqGIU1wiGyjjq1GpmWG+yalpclv5YvzDepvJ4/eLQRFng0XCljzn16yuDxJo8lDOcM1zOu0cD1gMIshJSGPfOUK8frSan766+/PhhdB+FfhJZRWpvPwOOPcOE7OTeZyAr3ESMUjZAzIYSoKBIsIi3wtrjmkQ5m0pi1rG7aN6tvurff1OTVSu3w3rRBvnnmtPizxsSL9+3b1xrd5G4QikElMaoJkSeEIR4F7r//fhtyRYJ2GGY9aYrHb6gO8JJQsIFQm2TDwRyxYWEYXunksYjEUHmMBG7CQ+Nx6aWX2rylbMhHwBv32GOP2SpaiFw8owgsqibiWcDQx7PCOV0euzc9yTTKT91DsEH+Zqb9xuX3rqkI5AnyW/B60PuKc4PiKvF65nC95tx3Vd+YhGIihgIYlEHmnCKfhUkqch25lhNqHFuaHiGDWCFUmDw/PDmIHkIV8eKS40j5fAf5jtU9USKEqBnk+IZXit0qhMgOTnpyqhn1VcmMYnkU5OWYt8/tYPbbqvxu3mEwnAmLwHAgRIYkcf7FxotXNcxqYlwwqxyGBp//93//Z2dcq5JnnnnGluIlHIcYeHJgqFyULMTbU6WOEBOMZ/IM+CxRcTgemC1P1DMDA5hQMbyqUYVqVeTOIagQJRQKoRAFf8lNqQi/LPnSvPXzXbbqVzLUr93Y9NruAZOfW7m9TsJQmALvL56OeIIFOO+o6IWnzIX3huE4YBsieshRRNAkW1WP/kh8LuKQyRImGSi+gnh0FSeFEKIiSLCIGk3Pp6aa1ybPNctWJ+6l0LRhvnn21O1Nl21Kh1GkCgnLiBf+cZNGuDDLW10QNkKMOp4NB4YdScbvvPNOMFI1UPyBWVmqG5HjxHoxC54sJEMzs0ucPMYWZZWjFpKXjVA1kFDHRDlBCFwM2OoO84yFfY9x7UQKIV1OpFRGl/3fl39v3vv1AbNw1e+myIvf46l2bh0rVk7e9i77uKpBHLz44ovWc0Rxi9jEeyBsDM8JVeDwpoRhAgFRwziVJFPdjq73C+cmoWCUhM/GPCchRDSRYBE1nk9/XmIG/3em/3exWb66yDSsk2f/1q6VY87cfXNz21Ft7ONMQpw8woVKSs7rgkFV1VA4gWTicM4BoSSnnHLK2kahVQEGUsuWLW3YCDP5hKeR75QsGFJUbSNsBTFIXgIGGlWIRPrssssuNjyPQghhSN5GrNCXqaq9cfHgGHbihL8c15xPTqRURU7NkjVzzSdznjbTFnxg6uY1sh6XHJNr6uQ1tI0id2hysNln87KLSAghhEgPCRax3sCRPmvRKrNoZaHNV9k0zcT8VGDW0nldiBd34oXy0FUBSbaIBEI2HDwm0bYq824IkaNvB4UBBgwYkJZ3hO1GdSQSf6lmNHz48Mg29cwGCA9CjFx00UXBSAmUNee56vZgkRDvRAoC1YkT/lZnFcIir9DMXjrZLCtcYAVLw/yNzRb1dwyeFUIIURlIsAhRRRBb78QL3gEnXiojhCUMhh8J7lRFctBng0RZqidVNsSy482hLxDGMZ4ShEuqUFKXKlVURkK4kERMVSSROoQOkWxNGfIwQ4cOtSKBfKOqhvOD73YihQIeTqSQJC6EEGL9RYJFiGoAL4ETLwgHJ17CDTgzCQYoSbEk1jqoBESn6k022SQYqRxGjBhhw44otUr8PLkodBNPB95HSWPi80kEj62GJsonntcNEJPkB1Gsoaogl8mFeRGGFg7zomO7EEIIARIsQlQz33zzzVrxQoK8Ey+xvRQqyqOPPmrD0khgB/JrqG7GbHtlQngRHcXxJGGUYqCmy5VXXmnzVujjgucoKuWkswn6ZVCamxwVByLhH//4h7nwwguDkcqBnh3Og8JfQhNdmBclwoUQQoh4SLAIESGYcXbihZ4YTrzEK0OaDjSDI6+GxpdATxS6U1dmLggliQkHI4eFPg1UCUsXksDpF0KJXcob4y1Q4n3y9OnTx5a6ds39OBbIY6GsMcKhMqAinRMpVKlyHhT+uma0QgghRFlIsAgRUUh+duLlhBNOsMLl6KOPDp5NHxq+UR2Kvg3Tpk2z+SAIgcqCRnRNmjQxCxcutH1UKgpCjvwVmv9RcUyJ98lBF3LEAyF6QDNPvF4k12cyiZ1jyXlQ+IsodiKF/jlCCCFEqqjTvRAR5YgjjrBGJrPg3bp1s31LmJE+++yzbUhUulBhi1wWFxbE91RW3gLhbuQikJtDM7lMgFChqR3NJ6u6n0y2MnPmTHPttdeuFSvse44pOplXVKzQX2f06NG2ozmfhQeMnhzkxFCOmmIJCEyJFSGEEOkiD4sQWQTN2JzXhZlsFzLWsWPH4BXJs9tuu5mHH37YNpkrKCiwTQTxhpTLqqWmeNk8k1O42pg6DU1Oo82CJ/7OE088Yat6FRcX23yZzp07B8+kDwZy48aNbTd/tgeJ/AlJYV2jjrdotvFWLTE5+fVNzobN/JHkeweFm4jeddddVvC+9tprwbOpQ8U550EhLyoc5tWqVavgVUIIIURmkGARWQXhK5QEdmBgZ7KnCTPCdKynchcNCqPMnDlz1ooXDHcnXuJ1uE6Eq7pFFTF6XZCYn4iimRNM4eT/M8UrFpUYzrV8cZNby3hrVpja2xxoanc6xS6HIYkbLxFeFsLPMgV5MOx7qoQhtGIpd11362FMrcrvw1NRvEW/mTVfvWwKf5pgTF6+ycmrY7zClbapUF6znU3t9seZnCZlC4RevXpZLxrNQvGC0BOH8tCpMG/evFJhXnTHdyJl//33D14lhBBCVA4SLCKroCO3q55F13N6emQyLIhSr/T2oOTvHXfcEYxGH7wtTrzgfXDihd9RHiT04wEJe1xiWfXfG03Rn77gKFwVjMTgC7yc+k1MnUMGmJzG60ozs79mzJhhw5H69+8fjFYc8nswugkNmz9/fqmKasmt68b+ul5Ral2jRuGk0WbN5DeNt3JRMPJ38Lbkte3ii8VewUhp2J94QwgDPPjgg83xxx9vc5iS4aOPPlorUn766ae1HhT+JnNcCSGEEJlCgkVkDcThY1i3adPGLr/66qs2kZuchkxy6623mr/++iurBEsY+pw48UK/DSde6tSpE7yiNFTwoqQs3gryDgjxCbPyzcGmGAFQXBSMJCanTiNT58jrTM4GW9plxBDhZr/++qvZeOON7VimwGuzdOlSm3/jql6ltq4N/XUdvHZdo0Th9++a1ROfNmZNEkUKatcx+bucYPLa/SMYKGHq1Kmme/futvwzlcCGDx9uE+ATwT5yHhT+UpjBiRTEbE2CggNMdLBd8BDVrVs3eKZikBP05JNPWqFYZqiiEEKIlJBgEVkLRviwYcNKlUadO3euLdGKkUxoFOFdVJEiwRhINl++fLkNp9pyyy1tB3agkSO9QvDa3H777Wbfffe1goV8CQw/+kcQ0nTBBRdYIxmjhB4Szz//fJlhVNXNmDFj1ooXwoLYZsyyx/L555/bcCGqRmHAuQT5VW/fYormTKL+rV1Ohpx6G5m6R15vvp4x24brbb/99vbzM82AAQPs78KwJh+jIutqGlZu88xUKJzyX7PmyxdtKFuy5BTUN3k7HWNq73xMMGJsQ1BEKCKFUMp4TUlJiHcihdC6cC4K3suaCPk75FUx4UF4XKbhOsJ1hcIDQgghMoOqhImsBNEAsX0cmMUnXAVDDKOLvhMY4kDSMU0SKRFMM8Obb77ZCh5K7WLMY6hjzCNEHPQoYRaW0r+In6FDh5oXXnjBhl0RYkOJ3SiDsUp1MX4jPVBGjhxpq2vhlcJIdTCDPmjQIOtZOv/88+1Y8c8TTfG8GSkJAPCWzzerxj9iRQrfy7auDPgNfD7fU/yL/2+ubyCmua6RwSs2aya9mpJYAW/VMrPm61fWepYwmHv37m3Dv1atWrVWrOBZwCPF8Y73i7A6EvE5pn/55Rd7PuCVqaliBS8Sop0CEGWJFcIYYcqUKXayIgzbCe8J2zUMkx2ME6IYy6RJk2wPGgeeYYQTkyc8FkIIUTYSLCIrwfBO1ICQ0KfNN9/cGiSEjzlDgZKu4QpGlF+lvCt5EIQXuQaECBQg/IznMYgxLsjBQLjgNWCGlj4mzkOTDeBlwjDFyEfI3H333bY/CmFgJNzT44XfR95Jv379zGoM5xWJ8yfKomjOZDP2rdft49NOO83+zTQ0oqRoAN4yu64rFwfPpEbRnG+NWZmaQKgsCqePM97qZcFSihSuMoVT3zL33HOPFZ7kNREeiJcF4cKxzzFAPgqNNzm+Ea2XXXaZ3ZbrA3hNqS6HVwkBj4CLhXObUMr77rvPin0eO1HB+6h8R7luGqKSHwR4sChqgABhUoSiHUCxAryy7A88V5R/pkw5kwIEN/Cc+wwhhBCJkWARWQkNA5klTgTGGGA4YCBArVq17OyoY6ONNrL/EDThWU5nbGBQ/P7779ZgOeCAA+w/KlNh+JEXAHgm4s2oRpm8vDwrIjC+MLTatm1rBQo9NNg+eJgef/xxU7ig9MxySuTUMuaPqbbPS2WCIc7+WvXXzGAkDXJyTdHvk4OFzJBupG3xbH89qAKWDl6xmf/dJ2bw4MF2m3BcIkip0kbY3Lhx42x4I4IG7+P6CMc8QgNxgWDZb7/9/lZlDhHB9QPvLB4oQksRFYgO+slQQALvFY/x1gC9kZjQ4BrB+93+p4Q0YpBrD9ucgh5cUwgv3Xnnne2kgZsoEVUp4sYAABvqSURBVEIIkRjlsIisgxCNG2+80VY+igfGNrkbTz/9tA0dw2gjfIPyvUceeaQ12gjpIlSMkq94YTDa8cAce+yxdhyjnhlWcjkWLFhgZ6EJE0HgMKOPd4bZfYwaZq27du0afHv2QlEDl++y8M/Z5v2B+5pmG8ZP1C8X/7LyxU/zzPWf5tqqY4QfYUTzzz2O/VvWc4leQxjOtQP7m8l3Hmc2KkjzUuava+7GW5k6x9wcDJSGGXOMU8QduVHMkuOV4jgiJBEvHDPm3377rWnUqJE1djmOCKsi9IjlE0880a7vqFGj7DKGLsck3o8wq9+51RT++r9gKUX831FY7Jl2N3xqjXFm9DHIxTqYbOC6sM8++9hlQuVYDm8nrhmbbbbZ2rBTJkbY3yTUX3PNNTa8CzhfEPlcH7ieMPHB/keMIE64XvDe2267zU56hCEc9aabbrJeTRL0Y0NbhRBClEYeFpF1IDyY4UwEQgLPByWKMTKvvPJKmwiL4YyByAzzddddZxPrmW0lfIyQqJdfftmGjNCRm1lVDBYS+Pks4v4xYjBEETh8DuE2xPvXlNlqjLmrrrrKTJ482bz57ljTtFFB8EzqeLXrmk8XbmDzfDDmGjZsaA14qjGRQ8OMM3MleL8w3AlTo5cMRh8GILPZ7D967pB3QBgTSczsT4QC4oB9So7BYUd1M41ql3jU0iLfX6d2RwYLpSFkil4yrAPHDEIYrw6ieeDAgbb0L7PrLLuyzYgRRAxeQNYX8fDSSy/ZXjesO8cuIY3kWfE7wni5efxfspAqvogr3Hg76yUjrEli5e/gaSJUzsFxSXGCWJyHFnjMscr5z/7kOAWOYfJ/OK4R0NOnT7fjTlgD5bbJC3JQgW/x4sV2ooNQU45pPGJCCCHKRh4WIURcVr52VUkiezrUqm3qdr/b5DSomupbK98YVFLOOB3KWVe8bIQETZgwwQouSihjePKPPCkEzIcffmifxwCmUh3iGKFDCBDhhuQFIWwQhIgyDGfCkm644YbgW0oonPpfs/qL541ZnUQ541hyck1+x5NMXvtjgwERC4LxpJNOMh988IH5888/bUgWkxJhEMmId/JRENdUGcTrSrGOHj162Ep6eFzxtuA5OfPMM61YJeQObwpCmmIdeObwuLjiHOTOMPnRuXNnG2rG5AiVyqhQyOcJIYRIjASLECIuRdPHmtWfP2+85QuCkeSptUU7U3D4oGCp8in68UOz+rNnKm1d16xZY41XR3nLhKqR7+Qob3ktKxebFf93rfEWzQkGkienXmNT95hbjKm7romm+Dt4U+nBgogkJCuW8ePH2/1D8Q48JOScwO67727HEBl41KgoiNfFgTeO3DbC//CeUJADLwyCBI8sooXPwMNCEQ+EDTkveHqFEEKUjQSLECIhq94cbIp+nxosJUdOg41NwUH9TG6TkgafVcWqN4f46zolWEqO6lrXsijpcP+G8VKpXJZXx+S3O9LkdTwxGBBCCCFqDsphEUIkpKDrYJNTL/kZ+5y8AlOwx5nVIgAKul6XNetaFnk7H2tqtd7TvzqTz5IEOTkmr3VniRUhhBA1FnlYhBBlU1xkVo6+whQTbpWoR0hOrslttJnJ3/10k7tlh2CwGkh2XTfY3OR36mVym3cMBqPH6o8eMkW/fWO8ZXODkb+TU7exyd10a1NwUEnCvxBCCFETkWARQiQFHdgLp42xDQrprI44yMmva7zVy01e6z1N/i7HG7NBs+DV1cu6dV3tr+vSknWt7a/rmpJ1rd2hu8nZcMvg1dGleNaXZs23/zFFfwQNDovWGFMrz5jcfFNroxYmb4fDTa1Wu5c8J4QQQtRQJFiEECnhzZ9pipf86RvPhSanbiOTu2lbW2krimTTupaFt2KRKZ43wxhfHBpfeOU2bl5lFdiEEEKI6kaCRQghhBBCCBFZlHQvhBBCCCGEiCwSLEIIIYQQQojIIsEihCiXYcOG2WZ7Itq8/vrrZsSIEcGSEEIIUTNQDosQolwWLlxoWrdubRYsSL2TvKg66La/YsUKk5eXZA8XIYQQIguQYBFCJMVtt91mGjRoYM4///xgRESJO++80xQUFJgLL7wwGBFCCCFqBhIsQoikadasmfnss8/MFltsEYyIKDBt2jRz1FFHme+//z4YEUIIIWoOymERQiTNqFGjTL9+/YIlERUGDBhgRo4cGSwJIYQQNQsJFiFE0uy9996mffv25sYbbwxGRHUzcOBA06VLF9OhQ4dgRAghhKhZSLAIIVICA3nKlCnm4YcfDkZEdXHXXXeZ+fPnm4suuigYEUIIIWoeEixCiJR59tlnraH84IMPBiOiqqEIQn5+vi05LYQQQtRklHQvhEibnj17mq233tpcf/31wYioCq666irz119/mUceeSQYEUIIIWou8rAIIdIGT0vDhg1Nr169zNixY4NRUVm89dZb5qSTTrJV2iRWhBBCrC/IwyKEqDCTJk0yl1xyiVmzZo3NpygsLAyeiS65ubmmuLg4WIo2OTk55qGHHjL16tUz9957r2nbtm3wjBBCCFHzkWARQmSMCRMmmFdffdXMmjUrGIku48aNs6Jl3333DUaiS8uWLU23bt3MrrvuGowIIYQQ6w8SLEKI9ZL99tvPJq2/++67wYgQQgghoohyWIQQQgghhBCRRYJFCCGEEEIIEVkkWIQQQgghhBCRRYJFCCGEEEIIEVkkWIQQQgghhBCRRYJFCCGEEEIIEVkkWIQQQgghhBCRRYJFCCGEEEIIEVkkWIQQ6yX77LOP/SeEEEKIaKNO90IIIYQQQojIIg+LEEIIIYQQIrJIsAghhBBCCCEiiwSLEEIIIYQQIrJIsAghMsJPP/1k/ve//5ni4uJgZB1ffPGF+euvv4KlzFJYWGiee+45s2jRomCk6iEV8NVXXzW//PJLMBKf5cuXm8cffzxYEkIIIUQyKOleCFFhPvroIzNy5EgrShAu48aNM3Xq1LHPDRkyxGyzzTb2MZebU045xT7OFJ9++qnZe++9zcyZM82WW24ZjFYt3333ndl3333NK6+8UmblsWeffdacf/75ZuHChcGIEEIIIcpDHhYhRIXZZJNNzH333Wc9HRjjGPCA1+HLL780PXv2tP9uv/12M3v2bPtcpth9993NxhtvbMVQdbHddtuZ1q1bB0uJOeyww6p1PYUQQohsRIJFCFFh2rZta/8WFRWZiy66yHTo0MEuv/DCC6Zdu3b2MWy99dZm9OjRwVIJP//8s+nbt6/57LPPzCWXXGKOP/54s2DBguDZEtHTr18/c/nll5slS5YEo8a899575p577jEDBw60YWE5OTl2fPLkyebpp5+26zF9+nQ7Rkja4MGDza233mpeeuklOxbL22+/be644w5z/fXXm5UrV9qx1157zVx33XXmtNNOs54cx3/+8x8zdOhQc84555h58+bZsdzcXDN//nw71q1bN/Pnn3/a8TCsY1iwPPnkk9YDdfrpp5upU6eauXPnmvvvv9+KP/e5/JZ3333XPh4/frz597//bbcXn89n/d///Z9d5nWspxBCCFHTkGARQmSEOXPmmIMOOsiKCAxvwJuC98PRoEED8+OPPwZLJTRp0sS8/PLL5v3337eigtdgyMMtt9xil++8806z/fbbmy5dulhRNGHCBPPGG2+YSy+91AqWpUuX2tezDoSm9erVy5x44onmwAMPNKtXrzZXX321/WzExO+//25fG4ZQLULY+vfvb3NhEDuIposvvtgKiqOPPtpcddVV9rUjRoyw38NzzZo1WzsOH3/8sbnrrrtsHs/w4cOD0fj88MMP5qGHHrKCqGPHjuamm26y22rzzTe3oort4l635557mq+++soKr/POO8/ssssu5sgjjzSrVq2yr8GztfPOO5tDDz3ULgshhBA1CQkWIURGwNDGG8Lff/3rX3YsLy/PrFmzxj6GFStWmNq1awdLJSBINtpoI3PAAQeYxo0b23yXP/74w3pN8Hbstttu9nVnnHGG9UJ88sknVsjst99+dnzDDTe0xj3eBr4fI37s2LFWqPTu3dsKj/r161vPDV6cCy64wL4vDN4JhArv69y5s/UKsS5ff/21FQmLFy82y5Yts699+OGHrYCAa6+91i47jjrqKPtd5NQ40ZYIfifekYkTJ9pkfPf53bt3t94TBAq/Ba8Mn/n888/bbck6sr0QLLVq1TKbbrqpadq0qRUsCDUhhBCipiHBIoTIGIgHRMasWbPsMqFi4epgv/3221oBEosLlSK0CrFCWBYCx4WHMd68eXMrRPBwxEtcR3Tg3UD84O3Be1GvXj0bmrbrrruarl27Wo9JLAiSDTbYwL7vpJNOMmeeeaYNycJDgwDDu4NnBxANM2bMsI8hHKbmcL+hLChOcPjhh5ttt93WhsqFq6vhbUEM4fn55z//acf4bfn5+XYdESsDBgywYsaFwgkhhBA1FQkWIUSFoUKXY8qUKeaYY46xj8mtwFMACA+MfcKrYokthYwRjucFT4XLeUHA8H6qcCFGnnnmGTvOexlHyHTq1MnmgBBSxthjjz1mCgoKzFNPPWWuvPJKa/QT0hULIqpPnz42TwWR9OKLL5oPP/zQei622GILmxeDoMITsv/++1uxQGEBxAqvhXBuSvhxGNbVPUceDF4RRB6fjyDi8+HYY481v/76q/XwuMpn/DZEzOuvv27F0BNPPGE9WIm+SwghhKgp1BpMYLcQQlQABARJ6BjcGPg9evSw44RVtWnTxrz11ls2SX7QoEE2hCnMN998Y5PJyd8gtIuQJ4x3jHk+h5ArEvN5P/kieFnwlowZM8YmyRNKhXhAmBASxXfiRUGk4J1o2bKlXTfCwahYRmK6KxLgQARNmjTJXHPNNebzzz+3eTF4PUi6Z7xVq1b2b4sWLWy1M8K4eA3eI/JeSO7n81mHzTbbzJZ1Jq8GIdSwYcPgW4xdZ8QdXhWqm+FBYd1ZH0LP8OTw+wBxgzhi/YFCBvxW1pHQN8Rgo0aN7GeyfXbYYQfrDRJCCCFqGurDIoQQEQRxd8MNNwRLQgghxPqLQsKEECIiMH90yCGH2NwZV1RACCGEWN+Rh0UIISIEOUAk1xOSJoQQQggJFiGEEEIIIUSEUUiYEEIIIYQQIrJIsAghhBBCCCEiiwSLEEIIIYQQIrJIsAghhBBCCCEiiwSLEEIIIYQQIrJIsAghhBBCCCEiiwSLEEIIIYQQIrJIsAghhBBCCCEiiwSLEEIIIYQQIrJIsAghhBBCCCEiiwSLEEIIIYQQIrJIsAghhBBCCCEiiwSLEEIIIYQQIrJIsAghhBBCCCEiiwSLEEIIIYQQIrJIsAghhBBCCCEiiwSLEEIIIYQQIrJIsAghhBBCCCEiS47nEzwWQois5NdffzXFxcXBUgl169Y1m266qbniiivMTjvtZE499dTgmfRZtGiRmTlzpmnfvn0wkjzz5s0zs2bNMptvvrldr5rKW2+9Zd58802Tl5dn7rzzzmA0PjNmzDBPPPGEOf30081WW20VjNZsli5dau677z6z3XbbmW7dugWj61i9erWZM2dOsGRMvXr1zCabbBIslYZj6s8//zTbbLON3d6wePFis2DBAtOkSRPToEEDO7Z8+XLz119/lflZQggRZeRhEUJkPUOHDjWtWrUyBxxwgOnXr585/PDDrRG8atUqM2zYMPPSSy8Fr0wPhMqtt95q2rRpY3bbbbdgNHmuu+46c8opp1hDvkuXLubVV1+145MnT7bGZKZg/umzzz4LlqqeqVOnmmuvvdbccccdZtdddw1GS/Ppp58Gj4xp2rSpeeihh8zChQuDkZoPIoL9PmXKlGCkNAjvHj16mJNPPtk88sgjVnAjbl588cXgFcaKlK5du5orr7zSPPvss/aYfOaZZ+xzHKs777yzOfLII+3xAJwHnBvhbS+EENmEBIsQIuvZe++97d+DDz7YGnZffvmlOfTQQ01BQYGZPXu2eeCBB+zzMHfuXGtYFxUVmTVr1piff/45eCYxzIgjLNIxrHnfTTfdZF544QVrYH7yySemQ4cOdia9d+/eduY7DAYrBqaD9XRggMZ6kpYtW7bWMEUIPfjgg/axI/x+CC/z2P1zrFy50hQWFgZLZcN3h8EIZwa/du3apmfPnsHoOn777Tf7mx3169e3ngDgO2PXFWK/IxFsF7Zp7Ge45fA2hXif614bT0Ty+StWrAiW1sF7lixZEiytA09KLOwntm9ZHrY6depYwYHAuPHGG83jjz9u9ykC/LvvvrOvueSSS6zwRYzfcMMN5j//+Y8599xzzY8//miaN29uWrdubb8HMQiNGzc2bdu2TUtsCyFEFJBgEUJkPTk5OcGjEhAlF198sRk+fLhp2bKlOfbYY+34VVddZbbffnvrAdhggw2sF+Dyyy+3z5XFNddcY4YMGWLy8/ODkeTBeMcIfe211+xyw4YN7Tqx/L///c8MGDDAXHjhhebrr782LVq0MNdff70NjyJUiln2c845x74PobPllluaH374wS5//vnn9vlLL73UGsCIMH7Xxx9/bPr06WPefvttu+zC15iV33333c2jjz5qZ+H3228/c/bZZ5t99tnHvh6D/owzzrD/MJh5XSII+zrooIPstuNzvvnmGzvOeyZNmmTOO+88uxzL7bffbgUi34cIdCDm/vGPf1ij2nmfeB2eMl7LPuP3xgOPEtsFLxZeBQQTnwdsQ4x3jPqNNtrIhvMlWvezzjrLilwM/x133NEKAidqbrnlFnsMXXTRRXY92X6AAMUDwnOPPfaYHXv33Xet2CAEca+99rLhWXD//febzp07m4EDB5brBYs9nlkXRO7IkSOtOBo1alQpQUiY4f7772+ef/55u8z7ETlXX321+eWXX9aOxX6uEEJkDZ4QQmQ5o0ePxsXg7bTTTp4vVDzfaPUWLlzo+Ua6Hd9tt928P/74wz7u0aOHfU+TJk28gw8+2D5OFl94eHl5ecFS8vhGuLfhhht6xx9/vDdnzpxg1PMaNGjg+UZ0sOR5bdq08XzD3Fu+fLlXXFzs3XzzzZ4vIIJnS9b5u+++81avXu35ombte3/66SevqKjI8wVKqdf7Isdr1apVsOR53bt39x566CH72DfQ7et534oVK7y7777b88WPfe7TTz/1GjdubB/H4hvxni+QPF9Q2GXfePZ8w98+9g1mzzfo7eN48NvC6wPbbbedHQdfxHhdu3a1j4855hi7X+HWW2/1fFFgH8ejadOm3ldffWUfsw4sg2+s220MrHdZ6/7vf/977Xf44s3zRZvnG/3exIkTvW222cbuDzj//PO9a6+91m63+vXreytXrrTPzZ49227HZs2aefPmzbOvPeKII7x77rnHmzx5sueLCm/p0qV2nO1844032sfx8EWT5wubYKmEf/7zn96ZZ57p+YLQy83Ntd8fhvfwGvDFjf3ri2G7DuCLP+/333+3j4UQItuQh0UIUWPAQ8Ese7t27exy2CPiCwYbGsOMN6FDhP2QmF8VHH300eb777+3nhZmyt2sdyxufVkvZsPxzoRxy3hT8IjgqQHyd3wj1j4Ok+j94L6L97Fe77//vvENWpsDRLI8XoZ4YU0u94JtDfwe36hfG5ZWEXxjf204Fuszfvx463366KOP7P5LRPh3sf99cWpD7cL7n4TzstY9dtsccsghNtdk3LhxZpdddlnrneA95IKw3XwBar0orCteDvYLxxY5VXivCHPjfWPGjLFhi4TApQvJ9BtvvLHd74SnxYbt8Rtij+fBgwfbMLGnnnoqGBFCiOxEgkUIUWPAaCSs57333rMhX2EwQon1RzgQ1kMS/MMPPxw8W/kQtoXhuMcee5gRI0YEo+UTTwgQFkTuRDIkKyQQCoRgIVYIPfrwww/XVpkKQ95POLTIGfuZCDdyoovPJAfj/PPPt6FUhM+Ry5EMTiQQehdLKuvO53AMxXuPE0KEnF122WX2WHrllVfsNkSUIBTILyEsj9BEQshcFa90IdQOsUThB7YT4W1hCKEjdC4MQpRQtb59+1rBI4QQ2YoEixAi62HGGWKNeDfu/lJGF0OWHAtEC+WQAQOdXBKM07Lgc9xnQTLvI+eEmXcHxivVsQDDM5zIH/v5FA3AWxAGQxrDlM/B8xAm9vN4P68LJ5y7mfnY7+rYsaM1ussTODvssINNPneldylwQC4IxH5mLKwf6xP+jvB73GMEAsZ5OtXd/vvf/1pvBsZ6+LOhrHUPwzYiF4VcF/JOEAsO9x68T+RK9erVy+ZGkTvEfiFX6IsvvgheXQLeKgRgONHf7Yd4hNcZyP1B8Jx00kk2F+e4444rJbbxorBeCCcInwfkKPE+cqAcEyZMKPP7hRAicvg3DiGEyGqI7edyRg7I999/H4x63pNPPmnHGzVq5PlG3dpcl/A/3/Dz9tprL5sX4HIb4uEbz2vfQ+4DJPM+ciDIqfENW+/AAw+0f8lBAR77xqw3dOhQm+dQr149r1+/fvY5+O2337y2bdva7xk0aJDXvHlzmxMB/DbyMchRuPzyy7358+d748eP91q2bOn17NnTmzZtms1zOOqoo2yeyNlnn+35Brh34okn2vwe8n1YH19A2M/zjW+vS5cunm/U21ybYcOG2fF4PPfcc97+++9v84UOPfRQb/r06Xb8tNNO87bYYotS+yAM38X3sh5vvfXW2t88ZMgQ+/w555xjfxO5OeS1kDviiw/PN8S9sWPH2tfEY8stt/R8Eeqdfvrpni8wvClTptjx4cOH2/31+uuv22VItO6PPvqo3Rdsf77z6quvtuPQt29fm9/CNjz55JNtjpEvfu127d+/v91u/BZ44oknbL7KYYcdZvNKyC/yxYF9f4sWLWyOUbdu3ezz5MrE4vYN+6FPnz72N7GuCxYsCF5Rsh3JxSLPp3fv3vbzvv76a/uc26bjxo2zy7BkyRJ7XJDDwjHFNuG4FEKIbEGNI4UQ6wXMcBPyxEy4K/tKrgs5G4T1MGPuSuwmC56LZN7HbDaeBUKMYkODWA+8AWWBV4D8BDw54VwLLt88R36Gw82ch78n0fvjQVgTnplatWoFI/Hhu10IVKok85sdhL/FC+8KQ5WwN954w2y77baltkUi4q07Fc74DCpw4QmK3U9sVzwXbBsHy+z/2PBDPh9vSmxIHd/J+iWzH5IBD2H37t2NL0JtSW88PGwvfldsPgvr734T76P8sRBCZAsKCRNCrBcgLkiIptQrpYMJk+nUqZO54IILrBGaqliBZN+HocjrYo1gSMZwd8ZnrJFL6FSsgc53xH5PovfHg88rT6wA351uEnmyYgXKEyuIMYz0WbNmJSVWIN66E3pHqFi87QeMhcUKsJ1ixQrw+fHyf9z6ZUKsAKKDEDgECCWu99xzT5vzk2j9HRIrQohsQx4WIcR6A0Ypsf4YlNtss41NYBbZzbRp02wvFUQZ3d/TZfTo0dZjQm8eqq4JIYSIDhIsQgghhBBCiMiikDAhhBBCCCFEZJFgEUIIIYQQQkQWCRYhhBBCCCFEZJFgEUIIIYQQQkQUY/4fVpCSrPaJBwgAAAAASUVORK5CYII=;" vertex="1" parent="1">
                    <mxGeometry x="8" y="230" width="812" height="473" as="geometry"/>
                </mxCell>
            </root>
        </mxGraphModel>
    </diagram>
</mxfile>